<?xml version="1.0" encoding="utf-8"?>
<!-- Generator: Adobe Illustrator 24.2.1, SVG Export Plug-In . SVG Version: 6.00 Build 0)  -->
<svg version="1.1" id="Capa_1" xmlns="http://www.w3.org/2000/svg" xmlns:xlink="http://www.w3.org/1999/xlink" x="0px" y="0px"
	 viewBox="0 0 595.3 519.5" style="enable-background:new 0 0 595.3 519.5;" xml:space="preserve">
<style type="text/css">
	.st0{fill:#1D1D1B;}
	.st1{fill:#5C998E;}
	.st2{fill:#3C3C3B;}
	.st3{fill:#D8B49D;}
	.st4{fill:none;stroke:#1D1D1B;stroke-width:3;stroke-miterlimit:10;}
	.st5{fill:#007E71;}
	.st6{fill:#FEFDF4;}
	.st7{fill:#14150E;stroke:#000000;stroke-width:1.5;stroke-miterlimit:10;}
	.st8{fill:none;stroke:#1D1D1B;stroke-miterlimit:10;}
	.st9{fill:#FA9E9F;}
	.st10{fill:#FFFFFF;}
	.st11{fill:#B0B0B0;}
	.st12{fill:#E9E9E9;}
	.st13{fill:#F5EABB;}
	.st14{fill:#EDEDED;}
	.st15{fill:none;stroke:#9F9F9F;stroke-width:2;stroke-miterlimit:10;}
	.st16{fill:#9F9F9F;}
	.st17{fill:#5BA696;}
	.st18{fill:#292927;}
	.st19{fill:none;stroke:#000000;stroke-miterlimit:10;}
	.st20{fill:#F2F2F2;}
	.st21{fill:none;stroke:#000000;stroke-width:2.0001;stroke-miterlimit:10.0003;}
	.st22{fill:none;stroke:#000000;stroke-width:2;stroke-miterlimit:10;}
	.st23{fill:#A5D6CD;}
	.st24{fill:#6D4494;}
	.st25{fill:#73E5E2;}
	.st26{fill:none;stroke:#000000;stroke-width:1;stroke-miterlimit:10.0003;}
	.st27{fill:#D8D8D8;}
	.st28{fill:#8B9FC1;}
	.st29{fill:#B1BCE1;}
	.st30{fill:#E0C68F;}
	.st31{fill:#FADB93;}
	.st32{fill:#B79EFB;}
	.st33{opacity:0.4;fill:#C4C7C1;}
	.st34{fill:none;stroke:#FFFFFF;stroke-width:3;stroke-miterlimit:10;}
	.st35{fill:#50B89D;}
	.st36{fill:#375A79;}
	.st37{fill:#2A4D9C;}
	.st38{fill:#009DC8;}
	.st39{fill:#4B668C;}
	.st40{fill:none;stroke:#1D1D1B;stroke-width:2;stroke-miterlimit:10;}
</style>
<path class="st0" d="M1233.4,463.5c-0.1,1.5-0.3,3.1-0.4,4.6c0,0.6-0.1,1.5-0.5,2.5c-0.3,0.8-0.8,1.5-1.1,1.9
	c-0.6,0.4-1.3,0.9-2.1,1.3c-0.8,0.4-1.5,0.7-2.1,0.9c-1.6,0.4-3.3,0.8-4.9,1.2c-1.2,0.3-2.4,0.6-3.5,0.8c-0.8,0.2-1.8,0.4-2.8,0.7
	c-0.9,0.3-1.7,0.6-2.4,0.9c-0.3,0.6-0.7,1.2-1,1.8c-0.1,0.4-0.3,1.1-0.2,2s0.5,1.6,0.7,2c0.5,0.1,1,0.2,1.5,0.3
	c12.7,0,25.3,0,38,0.1c0.3-0.2,0.5-0.4,0.8-0.6c0.5-0.5,1-1.4,1.2-3.3c0.1-1.6-0.2-1.9-0.3-3.8c0-0.8,0-0.7,0.2-4.2
	c0.1-2.6,0.1-2.7,0.2-5.1c0.1-1.6,0.2-2.9,0.2-3.7C1247.7,463.8,1240.5,463.6,1233.4,463.5z"/>
<path class="st0" d="M1193.6,441.1c-0.5,1.5-1,2.9-1.5,4.4c-0.2,0.6-0.5,1.4-1.1,2.3c-0.5,0.7-1.1,1.2-1.5,1.6
	c-0.7,0.3-1.5,0.5-2.4,0.7c-0.8,0.2-1.6,0.3-2.3,0.4c-1.7,0-3.4,0-5.1,0c-1.2,0-2.4,0-3.6,0c-0.8-0.1-1.8-0.1-2.9,0
	c-0.9,0.1-1.8,0.2-2.5,0.3c-0.5,0.5-1,1-1.4,1.5c-0.2,0.4-0.6,1-0.7,1.9s0,1.7,0.2,2.1c0.4,0.2,0.9,0.4,1.3,0.7
	c12.3,3.1,24.5,6.3,36.8,9.4c0.3-0.1,0.6-0.2,0.9-0.4c0.6-0.4,1.3-1.1,1.9-2.9c0.5-1.5,0.3-1.9,0.7-3.8c0.2-0.8,0.2-0.7,1.2-4
	c0.6-1.8,0.7-2.4,1-3.4c0.2-0.7,0.4-1.2,0.4-1.4c0.3-0.9,0.8-2.6,1.9-6.2C1207.8,443.1,1200.7,442.1,1193.6,441.1z"/>
<polygon class="st1" points="1346.1,263.9 1346.3,276.8 1387.9,274.8 1386.7,272.2 1354.3,262.3 "/>
<polygon class="st2" points="1190.3,444 1216.2,444.8 1243.2,386.8 1276.6,283 1261.6,283.4 1240,284.7 1234.4,287.2 1228.4,298.1 
	1219.9,326.4 1191.1,442.6 "/>
<polygon class="st2" points="1255.1,465.6 1312,346.6 1319.3,349.8 1343.3,353.9 1379.9,358.1 1403.9,360.2 1421.6,360.7 
	1435.2,360.7 1445.1,358.1 1452.9,354.5 1458.1,350.3 1464.4,343.5 1468,336.2 1470.5,328.3 1471.7,317.4 1470.6,296.8 
	1463.9,296.9 1452.7,295.2 1437,292 1407.9,281.9 1388.1,274.3 1339.2,276.4 1293,279.5 1276.8,281.9 1270.9,285.4 1265.5,294.6 
	1257.4,315.3 1251,340.4 1245.7,367 1241.2,393.2 1235.5,433.1 1232.6,458.4 1231.8,465.4 "/>
<path class="st3" d="M1395.2,155.5c0.1-7.3,0.2-14.7,0.4-22c-0.9-0.1-1.8-0.2-2.7-0.4c-1.2-0.2-2.4-0.4-3.5-0.6
	c-0.8-0.3-1.7-0.6-2.6-1.1c-0.8-0.4-1.6-0.8-2.3-1.2c-0.8-0.7-1.7-1.4-2.5-2.1l-4-4l-2.8-4.4c-0.7-1.5-1.5-2.9-2.2-4.4
	c-0.4-2-0.8-3.9-1.3-5.9c0.1-2.1,0.3-4.2,0.4-6.4c0.2-1.3,0.4-2.5,0.5-3.8c0.2-0.8,0.6-2,1.4-3.1c0.4-0.6,0.9-1.1,1.3-1.5
	c0.4-0.8,0.8-1.7,1.3-2.5l3.6,0.7c1.4-0.1,2.7-0.1,4.1-0.2c1.9,0,3.7,0.1,5.6,0.1c2.5-0.1,5-0.3,7.5-0.4c3.1,0.2,6.2,0.4,9.3,0.6
	c1.7,1.3,3.4,2.7,5.2,4l3.9,3.7c1.3,1.2,2.6,2.3,3.9,3.5c0.7,0.1,1.4,0.1,2.1,0.2c0.9,0.8,1.8,1.6,2.7,2.4c0.1,1,0.3,2,0.4,3
	c-0.2,1.2-0.4,2.4-0.6,3.6c-1.1,1-2.2,2-3.2,3l-0.4,2.3l-0.2,3.8l-2.9,3.7l-0.4,23.8c-0.1,1.8-0.2,3.6-0.3,5.4
	c-2.1,0.8-4.1,1.5-6.2,2.3c-1.8,0.1-3.7,0.2-5.5,0.2c-2,0.2-4.1,0.5-6.1,0.7C1397.7,157.6,1396.5,156.6,1395.2,155.5z"/>
<g>
	<ellipse class="st0" cx="1429.7" cy="371.4" rx="60.4" ry="12.6"/>
	<path class="st0" d="M1426,380.2L1426,380.2c-1.5-0.5-3.1,0.3-3.6,1.8l-29.3,90.4c-0.5,1.5,0.3,3.1,1.8,3.6l0,0
		c1.5,0.5,3.1-0.3,3.6-1.8l29.3-90.4C1428.3,382.3,1427.5,380.7,1426,380.2z"/>
	<path class="st0" d="M1433.4,379.9L1433.4,379.9c1.5-0.5,3.1,0.3,3.6,1.8l29.3,90.4c0.5,1.5-0.3,3.1-1.8,3.6l0,0
		c-1.5,0.5-3.1-0.3-3.6-1.8l-29.3-90.4C1431.1,382,1431.9,380.4,1433.4,379.9z"/>
	<line class="st4" x1="1407.5" y1="440" x2="1446.2" y2="415.9"/>
	<line class="st4" x1="1453.1" y1="440.4" x2="1414.4" y2="416.3"/>
</g>
<path class="st3" d="M1301.6,247.6l-0.3,0.2l-5.6,4l-2.7,3.4l-1,3l0.7,3.9l1,1.3l2.4,1.8l2.5,1.2l4,0.8l5.2-0.4l3.9-2l4.7-1.6
	l3.5-0.9l3.4,0.9l1.8,1.9l2.2,2.1l3.6,1.6l4.3,0.8l3.3,2l5.1,2.9l2.9,0.9l0.1-11l5.2-1l7.4,0.8l15.9,6l13.8,5.2l39.6,14.6
	c2.7,0.9,5.4,1.7,8.1,2.6c5,1.2,10.1,2.3,15.1,3.5c3.8,0.6,7.5,1.2,11.3,1.8c2.8,0.2,5.6,0.3,8.4,0.5l7.9-0.7l3.9-2.4l2.9-3.3
	l2.1-3.9l1.5-5.6l1.6-11.6l0.5-14l-0.1-18.3l-49.5,0.1l2.9,11.7l-0.1,9.6l-4.3,2.2l-6.9-1.4l-19.6-4.7l-35.2-6.9l-16.1-2.9
	l-11.5-1.5l-10.2,0.4l-1.8,1.3l-2.5-0.5l-3.6-0.7l-6.3-1.3l-3.7-0.9l-8.4,0.2l-4,1L1301.6,247.6z"/>
<path class="st1" d="M1328.5,244.7l1.6-21.7l2.9-24.6l5.3-24.9c0.9-4.2,1.8-8.5,2.7-12.7c1.2-1.8,2.4-3.6,3.6-5.4
	c1.6-0.7,3.1-1.3,4.7-2l7-1l11.5-1.6l18.8-1.8l7.6-1c0.4,0,0.8,0.1,1.3,0.1c0,1.2,0.1,2.5,0.1,3.7c0.1,0.7,0.3,1.3,0.4,2
	c0.5,0.4,0.9,0.8,1.4,1.2c0.3,0.2,0.8,0.4,1.3,0.6c0.9,0.4,1.8,0.5,2.4,0.5c0.7,0.1,1.6,0.3,2.5,0.3c0.8,0.1,1.6,0.1,2.3,0.1
	c0.9,0,1.8-0.1,2.8-0.1c1.1-0.1,2.2-0.2,3.3-0.3c0.6-0.1,1.4-0.3,2.3-0.6c0.7-0.3,1.3-0.6,1.7-0.9c0.2-0.1,0.5-0.4,0.8-0.8
	c0.2-0.3,0.3-0.6,0.4-1c0.1-0.3,0.1-0.7,0.1-1.3c0.1-1.4,0.1-2.8,0.2-4.1c3.1,0,6.1,0,9.2-0.1c6.2,0.4,12.4,0.8,18.6,1.2l12.9,2
	l9.6,2.4l5.3,2.4l4.3,4.7l3.1,7.4l2.7,11.7l1.8,7.2l1.8,11.1l1.4,13.5l1.6,11.5l1.9,12.5l0.2,4.8l-48.9-0.4l0.6,2v0.1l1,4.3l0.6,2.4
	l0.3,4.9l0.4,3.4l-1,3.5l-3.8,2.2l-6.6-0.6l-46.8-9.2l-29.9-5.7h-21.5L1328.5,244.7z"/>
<g>
	<g>
		<path class="st5" d="M1163.9,175.5h-50.1c-7.3,0-13.2-5.9-13.2-13.2v-5.4c0-7.3,5.9-13.2,13.2-13.2h50.1c7.3,0,13.2,5.9,13.2,13.2
			v5.4C1177.2,169.6,1171.2,175.5,1163.9,175.5z"/>
		<polygon class="st5" points="1158.4,175.5 1167.2,182.9 1167.7,171.5 1158.3,171.6 		"/>
	</g>
	<g>
		<ellipse class="st6" cx="1128.7" cy="159.9" rx="3.1" ry="3.1"/>
		<ellipse class="st6" cx="1139" cy="159.9" rx="3.1" ry="3.1"/>
		<ellipse class="st6" cx="1149" cy="159.9" rx="3.1" ry="3.1"/>
	</g>
</g>
<path class="st7" d="M1357.2,191.8l-5.4,18.6c0,0,0,0,0,0.1l-3.9,16.9v0.1l-1.7,13.1v0.1l-0.2,6.2"/>
<polyline class="st7" points="1443.8,244.9 1443.5,239.5 1441.7,228.1 1437.8,213.4 1432.4,197.2 "/>
<path class="st8" d="M1382.5,105.6c-0.3,0.3-0.6,0.7-1,1.1c-0.3,0.4-0.6,0.7-0.8,1.1c-0.2,0.3-0.4,0.7-0.6,1.2s-0.3,1-0.4,1.3
	c0,0.3,0,0.7,0.1,1.2c0.1,0.4,0.2,0.7,0.4,1c0.2,0.3,0.5,0.6,0.9,1c0.4,0.3,0.7,0.5,1,0.6"/>
<path class="st8" d="M1390.2,119.9l1.2-0.6l1.1-0.5c0.2-0.1,0.5-0.3,0.9-0.6c0.5-0.3,0.7-0.5,1-0.8c0.2-0.2,0.5-0.6,0.8-1.1"/>
<g>
	<ellipse class="st9" cx="1371.4" cy="110.2" rx="4.5" ry="2.3"/>
	<ellipse class="st9" cx="1399.1" cy="110.7" rx="4.5" ry="2.3"/>
</g>
<path class="st0" d="M1371.3,96c-1.7-0.9-3.2-2.2-3.2-2.2c-0.7-0.6-1.7-1.4-2.6-2.7c-1.4-2-1.9-3.9-2.3-5.1
	c-0.5-1.8-0.9-3.5-0.4-5.6c0.2-0.9,0.7-2.9,2.4-4.1c1.4-1,2.8-1.1,4.4-1.1c2.8-0.1,5.3,0.7,6.8,1.1c1.7,0.6,2.8,1.1,4.5,1
	c0.4,0,2.4-0.1,2.7-0.9c0.2-0.7-1.1-1.2-2-3c-0.7-1.2-0.8-2.4-0.8-2.9c-0.1-0.5-0.4-4,1.9-6.4c1.8-2,4.3-2.1,7.4-2.3
	c0.8-0.1,3.1-0.2,5.9,0.5c1.2,0.3,3.5,0.9,6.1,2.6c0.7,0.5,3.1,2.2,5.1,5.4c1.4,2.3,2.6,4.3,2.3,6.7c-0.1,0.8-0.4,1.8-0.1,2
	c0.4,0.2,1-1.1,2.5-2c1.6-0.9,3.2-1,4.2-1c1.9-0.1,3.3,0.5,3.8,0.7c1.4,0.5,2.3,1.3,4.1,2.9c1.6,1.4,2.6,2.2,3.5,3.7
	c1,1.5,1.5,2.9,1.8,4c0.3,0.8,0.8,2.6,1,6.2c0.3,4.6,0.5,6.9-0.3,9.2c-0.8,2.5-1.8,2.7-2.4,5.7c-0.3,1.3-0.6,2.8-0.3,4.7
	c0.3,1.9,0.9,2.2,1.1,4.3c0.2,1.9-0.2,3.1-0.3,3.5c-0.4,1.2-0.8,2.4-2,3s-2.6,0.2-3.5-0.3c-2.2-1.3-3.1-4.8-1.8-7.2
	c0.6-1.1,1.4-0.8,2.3-2.1c1.4-1.9,1-4.4,0.8-5.3c-0.3-1.2-0.6-2.6-1.9-3.6c-1.5-1.1-3.1-0.5-4.4-0.6c-4.1-0.3-4.9-6.3-8.2-9.1
	C1401.4,88.6,1376.5,98.9,1371.3,96z"/>
<path class="st0" d="M1346.4,84.9"/>
<path class="st0" d="M1417.7,126.6c-1.5,0.9-2.6,1.7-3.4,2.2c-1.5,1.1-1.6,1.3-2.5,1.8c-1.3,0.7-1.9,0.8-3.2,1.6
	c-0.8,0.5-1.5,1-1.9,1.3c0.4,0.4,1.1,1,2,1.6s1.4,0.8,2.9,1.7c1.2,0.7,1.3,0.9,2.3,1.5c0.8,0.5,2,1.2,3.6,1.8
	C1417.5,135.6,1417.6,131.1,1417.7,126.6z"/>
<path class="st3" d="M1392.5,152.8"/>
<g>
	<g>
		<path class="st0" d="M1182.9,215.5c5.4,19,10.9,38,16.3,57l151.7-0.1l-0.3-4.6l-57.3,0.3l-16.4-56.7l-0.9-2.6
			c-0.2-0.3-0.4-0.7-0.8-1c-0.4-0.4-0.9-0.7-1.2-0.8c-0.4-0.2-1-0.5-1.7-0.7c-0.8-0.2-1.6-0.3-2.1-0.3c-27.7,0-55.4,0-83.1,0
			c-0.4,0-1.1,0.1-1.8,0.5c-0.7,0.3-1.1,0.8-1.4,1.1c-0.5,0.6-0.8,1.1-1,1.6s-0.5,1.2-0.6,2c0,0.6,0,1.2,0,1.8
			C1182.7,213.8,1182.8,214.7,1182.9,215.5z"/>
	</g>
	<ellipse class="st10" cx="1233.8" cy="238.8" rx="6.2" ry="5.9"/>
</g>
<g>
	<path class="st11" d="M1412.8,480l50.4-201.5c0.9-3.5,4.4-5.6,7.8-4.7l0,0c3.5,0.9,5.6,4.4,4.7,7.8l-50.4,201.5
		c-0.9,3.5-4.4,5.6-7.8,4.7l0,0C1414.1,487,1412,483.5,1412.8,480z"/>
	<path class="st11" d="M1534.6,479.1l-50.4-201.5c-0.9-3.5-4.4-5.6-7.8-4.7l0,0c-3.5,0.9-5.6,4.4-4.7,7.8l50.4,201.5
		c0.9,3.5,4.4,5.6,7.8,4.7l0,0C1533.4,486.1,1535.5,482.6,1534.6,479.1z"/>
	<path class="st11" d="M1052.9,481.9l50.4-201.5c0.9-3.5,4.4-5.6,7.8-4.7l0,0c3.5,0.9,5.6,4.4,4.7,7.8L1065.4,485
		c-0.9,3.5-4.4,5.6-7.8,4.7l0,0C1054.1,488.9,1052,485.4,1052.9,481.9z"/>
	<path class="st11" d="M1174.7,481l-50.4-201.5c-0.9-3.5-4.4-5.6-7.8-4.7l0,0c-3.5,0.9-5.6,4.4-4.7,7.8l50.4,201.5
		c0.9,3.5,4.4,5.6,7.8,4.7l0,0C1173.5,488,1175.6,484.5,1174.7,481z"/>
	<path class="st12" d="M1502.5,287.2h-489.9c-4,0-7.2-3.2-7.2-7.2l0,0c0-4,3.2-7.2,7.2-7.2h489.9c4,0,7.2,3.2,7.2,7.2l0,0
		C1509.7,284,1506.5,287.2,1502.5,287.2z"/>
	<path class="st12" d="M980.2,480.3l50.4-201.5c0.9-3.5,4.4-5.6,7.8-4.7l0,0c3.5,0.9,5.6,4.4,4.7,7.8l-50.3,201.5
		c-0.9,3.5-4.4,5.6-7.8,4.7l0,0C981.5,487.2,979.4,483.7,980.2,480.3z"/>
	<path class="st12" d="M1102,479.4l-50.4-201.5c-0.9-3.5-4.4-5.6-7.8-4.7l0,0c-3.5,0.9-5.6,4.4-4.7,7.8l50.4,201.5
		c0.9,3.5,4.4,5.6,7.8,4.7l0,0C1100.8,486.4,1102.9,482.9,1102,479.4z"/>
	<path class="st12" d="M1342.7,481.2l50.4-201.5c0.9-3.5,4.4-5.6,7.8-4.7l0,0c3.5,0.9,5.6,4.4,4.7,7.8l-50.4,201.5
		c-0.9,3.5-4.4,5.6-7.8,4.7l0,0C1344,488.2,1341.8,484.7,1342.7,481.2z"/>
	<path class="st12" d="M1464.5,480.3l-50.4-201.5c-0.9-3.5-4.4-5.6-7.8-4.7l0,0c-3.5,0.9-5.6,4.4-4.7,7.8l50.4,201.5
		c0.9,3.5,4.4,5.6,7.8,4.7l0,0C1463.3,487.3,1465.4,483.8,1464.5,480.3z"/>
</g>
<g>
	<g>
		<path class="st13" d="M1223.1,105l-11.5,12.1l0.2,49.6c0,0.2,0,0.5,0.1,0.9c0.1,0.3,0.2,0.5,0.3,0.7c0.1,0.1,0.2,0.3,0.5,0.5
			c0.4,0.3,0.8,0.3,0.9,0.3c0.6,0,1.1,0,1.7,0c12.1,0,24.2-0.1,36.3-0.1c0.2-0.1,0.4-0.1,0.6-0.3c0.3-0.2,0.5-0.5,0.6-0.7
			s0.2-0.4,0.3-0.7c0.1-0.4,0.2-0.8,0.2-1.1c-0.1-19.7-0.3-39.5-0.4-59.2c-0.1-0.2-0.2-0.4-0.3-0.6c-0.2-0.3-0.4-0.5-0.6-0.7
			s-0.5-0.4-0.8-0.6s-0.6-0.3-0.9-0.4C1241.3,105,1232.2,105,1223.1,105z"/>
		<polygon class="st1" points="1211.6,117.3 1223.1,105.1 1223.4,117.3 		"/>
	</g>
	<g>
		<path class="st14" d="M1233,113.6l-11.5,12.1l0.2,49.6c0,0.2,0,0.5,0.1,0.9c0.1,0.3,0.2,0.5,0.3,0.7c0.1,0.1,0.2,0.3,0.5,0.5
			c0.4,0.3,0.8,0.3,0.9,0.3c0.6,0,1.1,0,1.7,0c12.1,0,24.2-0.1,36.3-0.1c0.2-0.1,0.4-0.1,0.6-0.3c0.3-0.2,0.5-0.5,0.6-0.7
			s0.2-0.4,0.3-0.7c0.1-0.4,0.2-0.8,0.2-1.1c-0.1-19.7-0.3-39.5-0.4-59.2c-0.1-0.2-0.2-0.4-0.3-0.6c-0.2-0.3-0.4-0.5-0.6-0.7
			s-0.5-0.4-0.8-0.6s-0.6-0.3-0.9-0.4C1251.2,113.6,1242.1,113.6,1233,113.6z"/>
		<line class="st15" x1="1225.9" y1="138.3" x2="1257.9" y2="138.2"/>
		<line class="st15" x1="1225.9" y1="144.1" x2="1257.9" y2="143.9"/>
		<line class="st15" x1="1226" y1="149.9" x2="1257.9" y2="149.8"/>
		<line class="st15" x1="1247.6" y1="122.2" x2="1258" y2="122.2"/>
		<line class="st15" x1="1247.6" y1="126.2" x2="1258" y2="126.2"/>
		<polygon class="st16" points="1221.5,125.8 1233,113.6 1233.3,125.8 		"/>
	</g>
</g>
<path class="st14" d="M1168.6,121.1h-33.3c-4.3,0-7.8-3.5-7.8-7.8V93.4c0-4.3,3.5-7.8,7.8-7.8h33.3c4.3,0,7.8,3.5,7.8,7.8v19.9
	C1176.4,117.7,1172.9,121.1,1168.6,121.1z"/>
<rect x="1135.7" y="91.1" class="st17" width="7.2" height="24.3"/>
<rect x="1144.6" y="107.7" class="st17" width="6.7" height="7.7"/>
<rect x="1153.1" y="101.6" class="st17" width="7.3" height="13.8"/>
<rect x="1161.9" y="96.4" class="st17" width="7.3" height="18.9"/>
<image style="overflow:visible;enable-background:new    ;" width="58" height="39" xlink:href="../../DrawKit_0001_Peach_Illustrations/DrawKit_0001_Peach_Illustrations/UI Elements/PNG/speech-modal-3.png"  transform="matrix(1.5922 0 0 1.5922 967.5218 -820.9405)">
</image>
<g>
	<polygon class="st0" points="917.2,-348.7 917.3,-347.2 917.7,-345.9 918.3,-344.5 934,-325 935,-325.2 936.5,-325.9 936.8,-326.5 
		936.8,-327.9 935.8,-330.3 933.3,-335 932,-338.8 932.7,-341.1 935.2,-343.9 937.2,-345.3 937.7,-345.8 928.3,-357.7 	"/>
	<polygon class="st0" points="982.9,-321.9 984.2,-321.2 985.5,-320.8 987,-320.5 1011.9,-323.1 1012.3,-324.1 1012.5,-325.7 
		1012.2,-326.3 1011,-327 1008.5,-327.5 1003.1,-328 999.3,-328.9 997.7,-330.8 996.8,-334.4 996.6,-336.8 996.5,-337.5 
		981.4,-336.1 	"/>
	<path class="st18" d="M896.8-569.9l60.1,170.2c7.6,21.5,15.2,43,22.8,64.6c0.6-0.1,1.3-0.1,1.9-0.2c5.7-0.6,11.5-1.2,17.2-1.8
		c-6.5-36.8-13-73.6-19.6-110.3l-19.6-110.2l-5-28.8l-21.9,7.3l-17.8,5.5L896.8-569.9z"/>
	<polygon class="st2" points="988.8,-601 1005.4,-522.3 1008.9,-500.8 1013.3,-475.7 1015.9,-448.8 1015.3,-438.7 1008,-423.2 
		988.1,-397 938,-345.6 937.2,-345.9 927.3,-356.7 927.9,-357.8 957.1,-398.8 981.6,-431.7 953.3,-586.1 	"/>
</g>
<g>
	<path class="st3" d="M933.1-701.3c-1.7,0.1-3.5,0.2-5.2,0.3c-1.5,0.3-3.1,0.5-4.7,0.7c-1.9-0.4-3.7-0.6-5.6-1
		c-1.1-0.9-1.5-1.7-1.6-2.2c-0.1-0.7,0.1-0.8,0.1-2c0-1-0.2-1.2-0.3-2.4c-0.1-1.1-0.1-1.9-0.1-2.1c0-1.3-0.8-5.5-3.1-15.7
		c-1-0.9-2-1.8-3-2.7l-0.8-3.2l-0.7-1.9c-1-0.7-2.1-1.4-3.2-2c-0.4-1-0.7-2-1.1-2.9c-0.1-0.9-0.1-1.7-0.1-2.6
		c0.6-0.8,1.3-1.6,1.9-2.4c0.6-0.2,1.2-0.3,1.7-0.5c0.9-1.2,1.8-2.3,2.7-3.5l2.7-3.7c1.3-1.4,2.5-2.8,3.8-4.2
		c2.6-0.6,5.2-1.3,7.7-1.9c2.1-0.3,4.2-0.5,6.4-0.8c1.6-0.3,3.1-0.7,4.7-0.9c1.2-0.1,2.3-0.3,3.5-0.5l2.9-1.1c0.5,0.6,1,1.3,1.5,1.9
		c0.4,0.3,0.9,0.6,1.3,1.1c0.8,0.8,1.4,1.7,1.7,2.4c0.3,1.1,0.6,2.1,1,3.1c0.4,1.8,0.9,3.6,1.3,5.3c-0.1,1.8-0.2,3.4-0.2,5.2
		c-0.4,1.4-0.8,2.7-1.2,4l-1.6,4l-2.7,4c-0.6,0.7-1.2,1.4-1.8,2.1c-0.5,0.4-1.1,0.9-1.7,1.4c-0.7,0.6-1.4,0.9-2,1.3
		c-0.9,0.3-1.9,0.7-2.9,1c-0.7,0.3-1.5,0.5-2.2,0.8c0.6,4.1,1.3,7.1,1.9,9.2c0.3,0.9,0.8,2.7,1.3,5.1c0.3,1.7,0.5,3.1,0.6,4.1
		C935.5-703.9,935-703.4,933.1-701.3z"/>
	<path class="st8" d="M940.5-741.3c0.2-0.1,0.5-0.3,0.7-0.7c0.3-0.4,0.5-0.7,0.6-1c0.1-0.3,0.2-0.6,0.2-0.9c0-0.4-0.1-0.8-0.1-1
		c-0.1-0.2-0.3-0.6-0.5-1c-0.2-0.4-0.4-0.6-0.7-0.9c-0.2-0.3-0.5-0.5-0.8-0.8c-0.4-0.3-0.7-0.6-1-0.8"/>
	<path class="st8" d="M929.9-737.4c0.3,0.4,0.6,0.7,0.8,0.8c0.3,0.2,0.5,0.3,1,0.5c0.4,0.2,0.7,0.3,0.8,0.4l1,0.3l1.1,0.3"/>
	<g>
		
			<ellipse transform="matrix(0.9837 -0.1796 0.1796 0.9837 149.4562 158.2753)" class="st9" cx="948.8" cy="-746.2" rx="3.8" ry="2"/>
		
			<ellipse transform="matrix(0.9837 -0.1796 0.1796 0.9837 148.2345 154.185)" class="st9" cx="925.6" cy="-741.5" rx="3.8" ry="2"/>
	</g>
	<path class="st0" d="M914.8-752.5c-2.3,2.9-2.1,8-5.5,8.9c-1.1,0.3-2.5,0-3.6,1.2c-0.9,1-1,2.3-1,3.3c0,0.8,0,3,1.5,4.3
		c1,1,1.6,0.6,2.3,1.4c1.5,1.8,1.2,4.9-0.4,6.3c-0.7,0.6-1.8,1.1-2.9,0.8c-1.1-0.3-1.6-1.3-2.1-2.2c-0.1-0.3-0.7-1.3-0.8-2.9
		c-0.2-1.8,0.3-2.1,0.3-3.8c0-1.6-0.5-2.9-1-3.9c-1-2.4-1.8-2.4-2.9-4.4c-1-1.8-1.2-3.8-1.7-7.7c-0.4-3.1-0.2-4.6-0.1-5.4
		c0.1-1,0.3-2.2,0.9-3.6c0.5-1.4,1.2-2.2,2.4-3.6c1.3-1.6,1.9-2.4,3-3.1c0.4-0.2,1.5-1,3.1-1.2c0.8-0.2,2.2-0.3,3.7,0.2
		c1.4,0.5,2.1,1.5,2.4,1.3c0.2-0.2-0.2-1-0.4-1.7c-0.6-2,0.1-3.8,0.9-6c1.2-3,2.9-4.8,3.5-5.3c1.9-1.8,3.8-2.7,4.7-3.1
		c2.2-1,4.2-1.3,4.9-1.3c2.6-0.3,4.8-0.6,6.6,0.8c2.3,1.7,2.6,4.7,2.6,5.1c0.1,0.4,0.2,1.4-0.2,2.6c-0.5,1.7-1.5,2.3-1.2,2.8
		c0.4,0.6,2.1,0.4,2.4,0.3c1.4-0.2,2.3-0.8,3.6-1.5c1.2-0.6,3.2-1.6,5.5-2c1.3-0.2,2.5-0.4,3.9,0.2c1.6,0.7,2.3,2.4,2.6,3.1
		c0.7,1.7,0.7,3.2,0.5,4.8c-0.2,1.1-0.3,2.7-1.2,4.6c-0.6,1.2-1.3,2.1-1.8,2.7c0,0-1.1,1.3-2.4,2.3
		C942.9-754.9,920.4-759.7,914.8-752.5z"/>
	<path class="st0" d="M914.8-714c1.3-0.7,2.2-1.5,2.7-2.1c0.7-0.7,0.8-0.8,1.7-1.6c1.1-1,1.5-1.2,2.2-1.9c0.7-0.7,1.2-1.3,1.4-1.7
		c-0.4-0.2-1-0.5-1.8-0.8c-1.2-0.5-1.7-0.5-2.9-0.9c-0.8-0.3-0.9-0.4-2.4-1.1c-0.7-0.3-1.8-0.8-3.2-1.3
		C913.3-721.5,914.1-717.7,914.8-714z"/>
</g>
<g>
	<path class="st1" d="M867.5-683l-0.2,9.3l1.5,15.8l3.1,22.3l3.3,14.1l4.3,15.2l1.4,3.1l0.9,0.5l2.3,0.3l1.4,0.5l4.8,14.3l6.8,18.2
		l10.9-1.7l11-2.6l14.4-4.2l21.8-7.4l33.6-15.4c-0.6-4-1.2-7.9-1.8-11.9c0.3,0,0.6-0.1,0.9-0.1c1.2,0,2.4-0.1,3.6-0.1
		c0.3,0,0.7-0.1,1.2-0.4s0.8-0.6,0.9-0.8c0.2-0.4,0.4-0.8,0.6-1.3c0.2-0.7,0.4-1.3,0.5-1.8c0.2-0.9,0.3-1.8,0.4-2.8
		c0.1-1.4,0.2-2.6,0.1-3.8c-0.1-1.7-0.2-3.4-0.4-5.1c-0.4-3.9-0.9-7.5-1.5-11c-0.6-3.3-1.2-6.5-1.9-9.8l-3.3-13.8l-7.9-25.3
		l-5.3-11.1l-4.8-7.7l-6.2-2.2l-8.6-1.4l-11-0.5c-3.4,0-6.7,0.1-10.1,0.1c0.1,0.5,0.3,1.2,0.5,2c0.5,1.8,0.6,2.2,0.6,2.9
		c0,0.5-0.1,1.3-0.7,2.3c-0.4,0.4-0.9,0.9-1.6,1.3c-1.3,0.8-2.7,1.1-3.4,1.2c-1,0.1-2.1,0.1-3.1,0.2c-1.9,0.1-3.7,0.1-5.5,0.1
		c-0.5,0-1.1,0-1.8-0.1c-0.6-0.1-1.1-0.2-1.5-0.4c-0.2-0.2-0.5-0.5-0.8-0.8c-0.3-0.5-0.6-1-0.8-2c-0.2-0.8-0.3-1.4-0.4-2.4
		c-0.1-0.7-0.2-1.7-0.3-2.9c-2.4,0.4-4.8,0.8-7.2,1.3l-13.5,3.5l-8.7,2.8l-6.2,2.5l-6.4,4.5l-3.6,4l-1.9,5.3L867.5-683z"/>
	<polyline class="st19" points="900.6,-669.5 905,-640.7 987.1,-613.3 	"/>
	<path class="st19" d="M972.3-685.3c0.3,0.8,0.6,1.5,0.9,2.3c0.3,0.7,0.5,1.4,0.8,2.1c0.3,0.9,0.5,1.8,0.8,2.7
		c0.2,0.8,0.4,1.7,0.6,2.5c0.1,0.5,0.2,1.1,0.4,1.9c0.2,1,0.3,1.5,0.5,2.1c0.3,0.9,0.3,0.9,0.6,2.1c0.3,1.1,0.3,1.1,0.6,2.2
		c0.3,1.1,0.4,1.2,0.5,1.9c0.1,0.5,0.1,0.5,0.4,1.9c0.3,1.5,0.4,1.8,0.5,2.7c0.1,0.5,0.1,0.8,0.1,1.1c0,0.3,0.1,0.7,0.1,1.2
		c0,0.3,0.1,1.4,0,3.2c0,1.2-0.1,2.3-0.2,3.3c-0.1,1-0.3,2.3-0.6,3.7"/>
	<path class="st19" d="M885-603.3c4.3,0,8.5-0.1,12.8-0.1c3.2-0.1,6.3-0.3,9.5-0.4c3.3-0.2,6.5-0.4,9.8-0.7
		c3.7-0.9,7.5-1.7,11.2-2.6l12.4-3.8l8.5-3.4l8.1-3.9c1.6-1.1,3.2-2.2,4.8-3.3"/>
	<path class="st0" d="M890.6-586.9c4.9-5.5,9.8-11,14.6-16.5c-6.8,0.2-13.5,0.4-20.3,0.6c0.4,1.1,0.9,2.2,1.3,3.3
		C887.7-595.3,889.2-591.1,890.6-586.9z"/>
	<polygon class="st3" points="963.1,-644 966.1,-643.6 968.8,-641.1 973,-636.9 975.5,-634.3 976.4,-633.8 978.3,-633.9 
		979.4,-634.7 979.8,-636.1 979.7,-638.3 978.6,-640.4 970.9,-648.2 968.2,-648 966.2,-647.4 964.8,-646.5 963.2,-645.3 
		962.8,-644.6 	"/>
</g>
<rect x="1147" y="-673.2" transform="matrix(0.1296 -0.9916 0.9916 0.1296 1584.8254 694.1848)" class="st20" width="81.6" height="235.2"/>
<rect x="1153.1" y="-997.1" transform="matrix(0.1296 -0.9916 0.9916 0.1296 1899.3851 608.903)" class="st21" width="286.8" height="439.4"/>
<rect x="1113.1" y="-877.8" transform="matrix(0.1296 -0.9916 0.9916 0.1296 1830.5131 462.356)" class="st21" width="131.1" height="132.6"/>
<path class="st22" d="M1278.1-872.1"/>
<line class="st22" x1="1496" y1="-824.8" x2="1275.7" y2="-853.6"/>
<line class="st22" x1="1494" y1="-804.8" x2="1273.7" y2="-833.6"/>
<line class="st22" x1="1491.2" y1="-785.2" x2="1270.8" y2="-814"/>
<line class="st22" x1="1489.1" y1="-765.2" x2="1268.8" y2="-794"/>
<polygon class="st5" points="1182.4,-841 1139.7,-784.6 1209.5,-775.8 "/>
<rect x="1094" y="-670.3" transform="matrix(0.1296 -0.9916 0.9916 0.1296 1558.3372 713.0146)" class="st21" width="182.5" height="278.3"/>
<line class="st22" x1="1056.9" y1="-630.4" x2="1334" y2="-595"/>
<rect x="1164.8" y="-566.7" transform="matrix(0.1296 -0.9916 0.9916 0.1296 1565.6766 679.3792)" class="st23" width="10" height="29.2"/>
<rect x="1199.8" y="-562.4" transform="matrix(0.1296 -0.9916 0.9916 0.1296 1591.8843 717.829)" class="st23" width="10" height="29.2"/>
<line class="st19" x1="1126.4" y1="-576.1" x2="1252.8" y2="-559.8"/>
<line class="st19" x1="1117.8" y1="-508.3" x2="1244.2" y2="-491.9"/>
<line class="st19" x1="1116.4" y1="-496" x2="1242.8" y2="-479.7"/>
<line class="st19" x1="1114.4" y1="-483.5" x2="1240.8" y2="-467.1"/>
<line class="st19" x1="1113.5" y1="-471" x2="1239.9" y2="-454.6"/>
<ellipse class="st24" cx="1064" cy="-633.8" rx="2.4" ry="2.4"/>
<ellipse class="st25" cx="1072.3" cy="-632.8" rx="2.4" ry="2.4"/>
<ellipse class="st23" cx="1080" cy="-631.7" rx="2.4" ry="2.4"/>
<rect x="1326.9" y="-574.9" transform="matrix(0.1296 -0.9916 0.9916 0.1296 1732.1617 971.9119)" class="st26" width="185.5" height="148.5"/>
<rect x="1391.2" y="-612.9" transform="matrix(0.1296 -0.9916 0.9916 0.1296 1790.2748 876.8129)" class="st23" width="6.8" height="63.1"/>
<ellipse transform="matrix(0.1296 -0.9916 0.9916 0.1296 1859.8043 980.2342)" class="st27" cx="1488.2" cy="-569.2" rx="5.3" ry="5.6"/>
<ellipse class="st10" cx="1484.8" cy="-569.7" rx="1.2" ry="1.2"/>
<ellipse class="st10" cx="1488" cy="-569.3" rx="1.2" ry="1.2"/>
<ellipse class="st10" cx="1491.2" cy="-568.8" rx="1.2" ry="1.2"/>
<rect x="1369.9" y="-574.5" transform="matrix(0.1296 -0.9916 0.9916 0.1296 1752.127 873.1757)" class="st28" width="7" height="26.2"/>
<rect x="1403.5" y="-571.9" transform="matrix(0.1296 -0.9916 0.9916 0.1296 1774.7328 906.7103)" class="st28" width="0.6" height="28.8"/>
<rect x="1403.4" y="-570.6" transform="matrix(0.1296 -0.9916 0.9916 0.1296 1773.3444 907.7453)" class="st28" width="0.6" height="28.8"/>
<path class="st29" d="M1387-502.2l-28.5-3.7c-3.1-0.4-5.3-3.3-4.9-6.4l4.4-33.6c0.4-3.1,3.3-5.3,6.4-4.9l28.5,3.7
	c3.1,0.4,5.3,3.3,4.9,6.4l-4.4,33.6C1393-504,1390.2-501.8,1387-502.2z"/>
<path class="st29" d="M1435.7-496l-28.5-3.7c-3.1-0.4-5.3-3.3-4.9-6.4l4.4-33.6c0.4-3.1,3.3-5.3,6.4-4.9l28.5,3.7
	c3.1,0.4,5.3,3.3,4.9,6.4l-4.4,33.6C1441.7-497.8,1438.8-495.5,1435.7-496z"/>
<path class="st29" d="M1482.6-489.8l-28.5-3.7c-3.1-0.4-5.3-3.3-4.9-6.4l4.4-33.6c0.4-3.1,3.3-5.3,6.4-4.9l28.5,3.7
	c3.1,0.4,5.3,3.3,4.9,6.4l-4.4,33.6C1488.6-491.6,1485.7-489.4,1482.6-489.8z"/>
<rect x="1360.2" y="-499.6" transform="matrix(0.1296 -0.9916 0.9916 0.1296 1669.412 928.7529)" class="st30" width="7" height="26.2"/>
<rect x="1393.8" y="-497" transform="matrix(0.1296 -0.9916 0.9916 0.1296 1692.0179 962.2876)" class="st30" width="0.6" height="28.8"/>
<rect x="1393.7" y="-495.7" transform="matrix(0.1296 -0.9916 0.9916 0.1296 1690.6295 963.3226)" class="st30" width="0.6" height="28.8"/>
<path class="st31" d="M1377.3-427.3l-28.5-3.7c-3.1-0.4-5.3-3.3-4.9-6.4l4.4-33.6c0.4-3.1,3.3-5.3,6.4-4.9l28.5,3.7
	c3.1,0.4,5.3,3.3,4.9,6.4l-4.4,33.6C1383.3-429.1,1380.5-426.9,1377.3-427.3z"/>
<path class="st31" d="M1426-421.1l-28.5-3.7c-3.1-0.4-5.3-3.3-4.9-6.4l4.4-33.6c0.4-3.1,3.3-5.3,6.4-4.9l28.5,3.7
	c3.1,0.4,5.3,3.3,4.9,6.4l-4.4,33.6C1432-422.9,1429.1-420.7,1426-421.1z"/>
<path class="st31" d="M1472.9-414.9l-28.5-3.7c-3.1-0.4-5.3-3.3-4.9-6.4l4.4-33.6c0.4-3.1,3.3-5.3,6.4-4.9l28.5,3.7
	c3.1,0.4,5.3,3.3,4.9,6.4l-4.4,33.6C1478.9-416.7,1476-414.5,1472.9-414.9z"/>
<rect x="1141" y="-511.6" transform="matrix(0.1296 -0.9916 0.9916 0.1296 1367.8605 969.4319)" class="st26" width="190.2" height="434.4"/>
<line class="st19" x1="1031.1" y1="-402" x2="1462.1" y2="-347.3"/>
<rect x="1354.2" y="-355.2" transform="matrix(0.1296 -0.9916 0.9916 0.1296 1503.6765 1112.3383)" class="st20" width="62.4" height="109.8"/>
<rect x="1344.4" y="-278.1" transform="matrix(0.1296 -0.9916 0.9916 0.1296 1417.7438 1169.9532)" class="st20" width="61.7" height="111.1"/>
<g>
	
		<rect x="1115.9" y="-420.6" transform="matrix(0.1296 -0.9916 0.9916 0.1296 1316.6227 921.366)" class="st20" width="134.5" height="262.6"/>
	<polygon class="st32" points="1166.6,-316 1161.1,-272 1201.8,-289.2 	"/>
</g>
<ellipse transform="matrix(0.1296 -0.9916 0.9916 0.1296 1311.2504 677.2856)" class="st24" cx="1041.4" cy="-408.2" rx="3.7" ry="3.7"/>
<ellipse class="st33" cx="1264.4" cy="1010.5" rx="247.7" ry="253.2"/>
<ellipse transform="matrix(0.1296 -0.9916 0.9916 0.1296 1320.9199 691.4461)" class="st25" cx="1054.3" cy="-406.7" rx="3.7" ry="3.7"/>
<ellipse transform="matrix(0.1296 -0.9916 0.9916 0.1296 1329.7379 704.9429)" class="st23" cx="1066.4" cy="-404.9" rx="3.7" ry="3.7"/>
<rect x="1098.6" y="-746.7" transform="matrix(0.1296 -0.9916 0.9916 0.1296 1694.3746 476.8743)" class="st20" width="40.5" height="40"/>
<rect x="1146.7" y="-739.9" transform="matrix(0.1296 -0.9916 0.9916 0.1296 1729.5044 530.4851)" class="st20" width="40.5" height="40"/>
<rect x="1194.1" y="-734" transform="matrix(0.1296 -0.9916 0.9916 0.1296 1764.9159 582.6238)" class="st20" width="40.5" height="40"/>
<line class="st19" x1="1263.7" y1="-764.5" x2="1390.1" y2="-748.2"/>
<line class="st19" x1="1262.6" y1="-757.4" x2="1328.8" y2="-748.8"/>
<line class="st19" x1="1261" y1="-750" x2="1327.8" y2="-741.4"/>
<line class="st19" x1="1253.9" y1="-693.1" x2="1380.3" y2="-676.7"/>
<line class="st19" x1="1252.6" y1="-685.6" x2="1379" y2="-669.2"/>
<line class="st19" x1="1252.4" y1="-679.5" x2="1378.8" y2="-663.1"/>
<rect x="1357.3" y="805.5" class="st10" width="117.4" height="204.5"/>
<rect x="1329.4" y="877" class="st23" width="49" height="51.1"/>
<ellipse class="st20" cx="1415.7" cy="863.6" rx="32.5" ry="33.4"/>
<g>
	<line class="st19" x1="1378.9" y1="928.8" x2="1499.9" y2="928.8"/>
	<line class="st19" x1="1378.2" y1="942.6" x2="1499.3" y2="942.6"/>
	<line class="st19" x1="1379.1" y1="956.3" x2="1500.2" y2="956.3"/>
	<line class="st19" x1="1378.6" y1="969.6" x2="1499.7" y2="969.6"/>
</g>
<g>
	<polyline class="st34" points="1342.1,899 1335.6,902.3 1342.3,906 	"/>
	<line class="st34" x1="1350.5" y1="893.9" x2="1354" y2="908.8"/>
	<polyline class="st34" points="1362.5,898.5 1368.9,901.8 1362.3,905.6 	"/>
</g>
<rect x="1388.5" y="-728.7" transform="matrix(0.1296 -0.9916 0.9916 0.1296 1943.7488 823.5468)" class="st20" width="104.9" height="66.7"/>
<path class="st25" d="M1943.4,44.8l5.7,4.4c1.3,1.5,2.7,3.1,4,4.6c1.1,2,2.2,4,3.2,6.1c0.6,1.3,1.2,2.8,1.7,4.4
	c0.6,1.7,0.9,3.4,1.2,4.8c0.6,2.2,1.2,4.3,1.8,6.5c0.3,2,0.7,3.9,1,5.9c0.4,2.2,0.7,4.4,1.1,6.6c0.4,3.1,1.1,5.7,1.5,7.7
	c0.4,1.8,1,3.9,1.9,6.1c0.3,0.6,1,2.4,2.3,4.5c0.9,1.5,2.2,3.4,3.9,5.5c1.4,1.4,2.8,2.7,4.2,4.1c1.8,1.8,3.4,3.2,4.7,4.2
	c1.1,0.9,2.2,1.8,3.8,2.8c1.1,0.7,2.3,1.5,4,2.3c2.5,1.1,4.5,1.6,5,1.7c2.7,0.6,4.8,0.5,6.5,0.4c1.7-0.1,4-0.3,6.7-1.1
	c1.8-0.8,3.7-1.6,5.5-2.3c0.8-0.5,2-1.2,3.2-2.3c0.5-0.5,0.9-0.9,1.5-1.5c1.3-1.4,2.3-2.8,3.2-4c0.3-0.4,1.3-1.9,2.5-4.1
	c0.5-0.9,1.4-2.6,2.4-4.9c0.6-1.5,1.3-3.3,2-5.3c0.4-1.5,0.7-3.2,0.9-5.2c0.1-1.5,0.1-2.9,0.1-4.1c0-1.1,0-2.3,0-3.6
	c-0.1-1.4-0.2-2.7-0.4-3.9c-0.9-3.3-1.7-6.7-2.6-10l-4.3-8.5l-11.5-12l-12.7-10.2l-16.2-10l-8.1-5.7l-5.1-7.6l-4.6-12l-5-9.5
	l-5.5-4.8l-6.5-2.5h-3.8L1943.4,44.8z"/>
<g>
	<polygon class="st20" points="1151.3,762.7 1313.5,764.1 1311.5,814 1149.2,812.6 	"/>
	<polygon class="st21" points="1133,858.4 1137.5,746.8 1329.5,748.5 1325,860 	"/>
	<line class="st22" x1="1136.5" y1="752.6" x2="1329.3" y2="753.7"/>
	<polygon class="st23" points="1209.3,788.7 1229.4,788.9 1229.2,795 1209,794.8 	"/>
	<polygon class="st23" points="1233.6,788.7 1253.8,788.9 1253.5,795 1233.4,794.8 	"/>
	<line class="st19" x1="1187.8" y1="780.4" x2="1275.8" y2="781"/>
	<line class="st19" x1="1186.3" y1="822.2" x2="1274.3" y2="822.9"/>
	<line class="st19" x1="1186.2" y1="829.8" x2="1274.1" y2="830.4"/>
	<line class="st19" x1="1185.6" y1="837.5" x2="1273.5" y2="838.2"/>
	<line class="st19" x1="1185.8" y1="845.2" x2="1273.7" y2="845.8"/>
	
		<ellipse transform="matrix(0.9943 -0.1063 0.1063 0.9943 -73.2607 125.5618)" class="st24" cx="1141.2" cy="750" rx="1.7" ry="1.5"/>
	<ellipse transform="matrix(0.9943 -0.1063 0.1063 0.9943 -73.2266 126.171)" class="st25" cx="1147" cy="750" rx="1.7" ry="1.5"/>
	
		<ellipse transform="matrix(0.9943 -0.1063 0.1063 0.9943 -73.2104 126.7465)" class="st23" cx="1152.4" cy="750.1" rx="1.7" ry="1.5"/>
</g>
<g>
	<g>
		<path class="st3" d="M1303.1,990c0-0.9,0.1-2.2,0.2-3.7c0.1-1.7,0.3-3,0.4-4.5c0.2-2,0.6-4.9,1.1-8.6c-0.7-0.2-1.4-0.3-2-0.5
			c-0.9-0.2-1.8-0.4-2.7-0.6c-0.6-0.3-1.2-0.5-1.9-1c-0.6-0.4-1.2-0.8-1.6-1.1c-0.6-0.6-1.2-1.1-1.8-1.7l-2.8-3.3l-1.8-3.4
			c-0.5-1.1-0.9-2.3-1.4-3.5c-0.2-1.6-0.4-3-0.6-4.6c0.2-1.6,0.5-3.2,0.7-4.9c0.3-0.9,0.4-1.8,0.6-2.9c0.2-0.7,0.7-1.5,1.3-2.3
			c0.3-0.5,0.7-0.8,1.1-1.1c0.4-0.6,0.8-1.3,1.2-1.8l2.7,0.7c1.1,0.1,2.1,0.2,3.2,0.1c1.4,0,2.8,0.3,4.3,0.4c2,0.1,3.9,0.1,5.8,0.1
			c2.3,0.3,4.7,0.7,7,1c1.3,1.1,2.5,2.3,3.8,3.4l2.7,3.1c0.9,1,1.8,1.9,2.7,2.9c0.5,0.1,1,0.2,1.6,0.3c0.6,0.7,1.3,1.3,1.9,2
			c0.1,0.8,0.2,1.5,0.1,2.3c-0.3,0.8-0.5,1.8-0.7,2.7c-0.9,0.6-1.8,1.4-2.7,2.1l-0.5,1.8l-0.4,2.9c-0.8,0.9-1.6,1.8-2.4,2.7
			c-1.1,9.3-1.5,13.1-1.4,14.3c0,0.2,0.1,0.9,0.1,1.9c0,1.1-0.1,1.3-0.1,2.2c0.1,1.1,0.3,1.1,0.3,1.8c0,0.5-0.3,1.2-1.2,2.1
			c-1.7,0.5-3.3,0.9-4.9,1.4c-1.4,0-2.9-0.1-4.3-0.2c-1.5,0.1-3.1,0.1-4.7,0.2C1304.1,990.9,1303.6,990.5,1303.1,990z"/>
		<path class="st8" d="M1296.6,951.1c-0.3,0.2-0.5,0.5-0.8,0.8c-0.2,0.3-0.5,0.5-0.6,0.8c-0.2,0.3-0.4,0.5-0.5,0.9s-0.3,0.8-0.4,0.9
			c0,0.2,0,0.5,0,0.9c0,0.3,0.1,0.5,0.3,0.8c0.1,0.3,0.3,0.5,0.6,0.8c0.2,0.3,0.5,0.5,0.7,0.6"/>
		<path class="st8" d="M1301.7,962.6l1-0.4l0.9-0.4c0.1-0.1,0.3-0.2,0.7-0.4c0.4-0.2,0.6-0.3,0.8-0.5c0.2-0.1,0.4-0.4,0.6-0.8"/>
		<g>
			
				<ellipse transform="matrix(8.063675e-02 -0.9967 0.9967 8.063675e-02 233.2956 2160.7944)" class="st9" cx="1288" cy="953.9" rx="1.8" ry="3.4"/>
			
				<ellipse transform="matrix(8.063675e-02 -0.9967 0.9967 8.063675e-02 250.6169 2183.8186)" class="st9" cx="1309.1" cy="956.1" rx="1.8" ry="3.4"/>
		</g>
		<path class="st0" d="M1288.6,943c-1.3-0.8-2.3-1.8-2.3-1.8c-0.5-0.5-1.2-1.2-1.8-2.3c-1-1.6-1.2-3-1.5-4c-0.3-1.4-0.5-2.8,0-4.3
			c0.2-0.7,0.7-2.2,2-3c1.2-0.7,2.3-0.6,3.5-0.5c2.1,0.2,4,0.9,5.1,1.3c1.2,0.5,2.1,1,3.3,1c0.3,0.1,1.8,0.1,2.1-0.5
			c0.2-0.5-0.7-0.9-1.3-2.4c-0.5-1-0.5-1.9-0.4-2.3c0-0.4,0-3.1,1.9-4.8c1.5-1.4,3.5-1.3,5.8-1.3c0.6-0.1,2.4,0,4.5,0.7
			c0.8,0.3,2.6,0.9,4.5,2.3c0.6,0.4,2.3,1.8,3.6,4.4c0.9,1.9,1.7,3.4,1.3,5.3c-0.1,0.6-0.4,1.4-0.2,1.6c0.3,0.2,0.8-0.8,2-1.4
			c1.3-0.6,2.6-0.6,3.3-0.5c1.4,0,2.5,0.7,2.9,0.8c1,0.5,1.7,1.2,3,2.5c1.2,1.1,1.9,1.8,2.5,3c0.7,1.2,0.9,2.3,1.1,3.1
			c0.2,0.7,0.5,2,0.4,4.8c-0.1,3.5-0.1,5.3-0.8,7c-0.8,1.9-1.5,2-2.2,4.2c-0.4,0.9-0.7,2.1-0.5,3.6c0.2,1.5,0.6,1.7,0.6,3.4
			c0.1,1.4-0.4,2.4-0.5,2.7c-0.4,0.8-0.7,1.8-1.7,2.2s-2,0-2.7-0.5c-1.6-1.1-2.1-3.8-0.9-5.6c0.6-0.8,1.1-0.5,1.9-1.5
			c1.2-1.3,1-3.3,1-4c-0.1-0.9-0.3-2-1.2-2.9c-1.1-1-2.3-0.6-3.3-0.7c-3.1-0.5-3.4-5.1-5.7-7.5
			C1312.1,939.3,1292.5,945.6,1288.6,943z"/>
		<path class="st0" d="M1322.3,969.3c-1.2,0.6-2.1,1.1-2.7,1.4c-1.3,0.8-1.4,0.9-2,1.2c-1,0.5-1.5,0.5-2.5,1.1
			c-0.7,0.3-1.2,0.7-1.5,0.9c0.2,0.3,0.7,0.8,1.4,1.4c0.7,0.6,1.1,0.7,2.1,1.5c0.9,0.6,1,0.7,1.7,1.3c0.5,0.5,1.4,1.1,2.6,1.6
			C1321.5,976.3,1321.9,972.8,1322.3,969.3z"/>
	</g>
	<g>
		<ellipse class="st0" cx="1312.2" cy="1160.3" rx="40.6" ry="8.5"/>
		<path class="st0" d="M1313.5,1168.6l19.7,60.8c0.3,1,1.4,1.5,2.4,1.2l0,0c1-0.3,1.5-1.4,1.2-2.4l-19.7-60.8
			c-0.3-1-1.4-1.5-2.4-1.2l0,0C1313.7,1166.5,1313.1,1167.6,1313.5,1168.6z"/>
		<path class="st0" d="M1310.9,1168.4l-19.7,60.8c-0.3,1-1.4,1.5-2.4,1.2l0,0c-1-0.3-1.5-1.4-1.2-2.4l19.7-60.8
			c0.3-1,1.4-1.5,2.4-1.2l0,0C1310.7,1166.3,1311.3,1167.4,1310.9,1168.4z"/>
		<line class="st4" x1="1301.1" y1="1190.2" x2="1327.1" y2="1206.4"/>
		<line class="st4" x1="1322.5" y1="1190.5" x2="1296.5" y2="1206.7"/>
	</g>
	<g>
		<path class="st0" d="M1136.2,1194.4c-0.1,1.1-0.1,2.1-0.2,3.1c0,0.4-0.1,1-0.3,1.7c-0.2,0.5-0.5,1-0.7,1.3
			c-0.4,0.3-0.9,0.6-1.4,0.9c-0.5,0.3-1,0.5-1.4,0.7c-1.1,0.3-2.2,0.6-3.3,0.9c-0.8,0.2-1.6,0.4-2.3,0.6c-0.5,0.1-1.2,0.2-1.9,0.5
			c-0.6,0.2-1.1,0.4-1.6,0.6c-0.2,0.4-0.5,0.8-0.7,1.2c-0.1,0.3-0.2,0.8-0.1,1.4c0.1,0.6,0.3,1.1,0.5,1.3c0.3,0.1,0.7,0.1,1,0.2
			c8.5-0.1,17-0.2,25.6-0.3c0.2-0.1,0.4-0.2,0.5-0.4c0.3-0.4,0.7-0.9,0.7-2.2c0.1-1.1-0.1-1.3-0.2-2.6c0-0.6,0-0.5,0.1-2.8
			c0.1-1.3,0-1.7,0.1-2.4c0-0.5,0.1-0.8,0-1c0-0.6,0.1-1.8,0.2-4.4C1145.8,1193.2,1141,1193.8,1136.2,1194.4z"/>
		<path class="st0" d="M1109.7,1134.3c-0.8,0.7-1.5,1.4-2.3,2.1c-0.3,0.3-0.8,0.7-1.4,1c-0.5,0.3-1,0.4-1.4,0.5
			c-0.5-0.1-1.1-0.2-1.7-0.4c-0.5-0.1-1.1-0.3-1.5-0.5c-1-0.6-2-1.1-3-1.7c-0.7-0.4-1.4-0.8-2.1-1.2c-0.4-0.3-1-0.6-1.7-0.9
			c-0.6-0.2-1.1-0.5-1.6-0.6c-0.5,0.1-0.9,0.3-1.3,0.4c-0.2,0.2-0.7,0.4-1,0.9c-0.4,0.5-0.6,1-0.6,1.3c0.2,0.2,0.4,0.5,0.5,0.8
			c6.3,5.9,12.5,11.8,18.8,17.6c0.2,0,0.4,0.1,0.7,0.1c0.5,0,1.1-0.2,2.1-1.1c0.8-0.7,0.8-1,1.7-2c0.4-0.4,0.3-0.4,2-2
			c0.9-0.9,1.2-1.2,1.7-1.7c0.3-0.4,0.6-0.6,0.7-0.7c0.5-0.4,1.3-1.3,3.2-3.1C1117.5,1140.1,1113.6,1137.2,1109.7,1134.3z"/>
		<polygon class="st18" points="1162.4,1113.4 1151.4,1195 1148.7,1195.4 1131.8,1197.3 1130,1125 1155.6,1104.8 		"/>
		<path class="st2" d="M1354,1099.1c-0.7,4-1.5,8-2.2,12l-2.6,8.3l-5.5,12l-3.4,6.1l-4.7,5.8l-4.9,5.3l-3.7,3l-4.5,2.6l-5.5,2.5
			l-4.1,1.2l-5.9,0.3l-6.6-0.5l-6.5-1.7l-7.2-2.2l-7.6-3.2l-22-11.6l-19.6-12.5l-23.2-16.3l-11.3-7.2l-3.3-1.6l-2.4-0.3l-3,0.3
			l-4.1,1.1l-4.7,1.7l-9.2,4.3l-11.9,6.6l-5.7,3.3l-9.3,6.3l-30.4,20.7l-0.9-0.3l-0.9-2l-7.9-8.2l2.2-4.1l7.8-12.6l7.2-10l6.7-9.2
			l6.8-8.8l14.9-16.3l8.7-7.9l6.2-4.3l30.3-6.2l21.9,3.2l13.4,1.8c7.3,2.9,14.7,5.7,22,8.6c9.4,4.4,19.4,8.8,29.8,13.1
			c6.5,2.7,12.9,5.2,19.2,7.5c4.8,1.3,9.5,2.6,14.3,4c5.1,1.2,10.5,2.4,16.2,3.3C1342.9,1097.9,1348.6,1098.6,1354,1099.1z"/>
	</g>
	<g>
		<g>
			<path class="st3" d="M1372.4,1036.5l4.7,28.6l1.2,14v9.8c-0.5,1.2-0.9,2.3-1.4,3.5c-0.5,0.7-1.1,1.4-1.6,2.1l-1.9,1.4l-1.9,0.9
				l-4.4,1.4l-3.9,0.7l-6,0.7c-2.2,0-4.3,0.1-6.5,0.1c-2.5-0.3-5-0.6-7.5-1c-2.6-0.4-5.3-0.8-7.9-1.2c-3.5-0.8-7.1-1.7-10.7-2.6
				c-3.8-1-7.6-2-11.3-3c-3.9-1.3-7.7-2.6-11.6-3.9l-18.1-6.7l-38.3-16.9c-1.5-0.6-2.9-1.2-4.4-1.8c3.6-11.6,7.3-23.2,10.9-34.8
				l18.6,5.4l-0.9,15.6v8.4v5.8l7.5,2.5l19.1,3l16.9,2.6l15.6,1.1c3.9,0.1,7.9,0.2,11.8,0.3c1.6-0.1,3.2-0.2,4.8-0.4
				c0.1,0,0.4-0.1,0.7-0.4c0.2-0.2,0.3-0.4,0.3-0.6c0.1-0.2,0.2-0.6,0.2-1.1c0-0.8,0-1.6-0.1-2.4c-0.1-1.6-0.4-3-0.6-4.3
				c-1.5-5.9-3.1-11.9-4.6-17.8c-0.1-0.7-0.1-1.4-0.2-2.1L1372.4,1036.5z"/>
			<path class="st19" d="M1271.2,1063.9c-1.3-0.3-2.5-0.6-3.8-1c-0.9-0.3-1.9-0.7-2.8-1c-1-0.5-2.1-1.1-3.1-1.6
				c-1.2-0.8-2.4-1.6-3.6-2.4c-0.7-0.4-1.5-0.7-2.2-1.1c-1-0.1-2.1-0.1-3.1-0.2l-2.8,0.9l-1.5,1.2l-1.7,2l-1.2,1.8
				c-0.2,0.5-0.3,1-0.5,1.5"/>
		</g>
		<g>
			<path class="st1" d="M1356,987.2c0.8,1.2,1.6,2.3,2.4,3.5c1.2,2.5,2.3,5,3.5,7.5c0.9,2.4,1.8,4.8,2.6,7.3l2.1,7l3,12.6l1.6,6.8
				l1.2,4.6l-31.3,7.2l0.5,2.6l1.8,6.8l3.2,12.5c0.4,1.4,0.8,2.9,1.1,4.3c0,1.4,0,2.8,0,4.2c-1.1,0-2.2,0-3.2,0
				c-2.2-0.2-4.5-0.4-6.7-0.5l-10.4-0.4l-12.1-1.1l-22.1-2.5l-12.8-2.8l-11.4-1.9l-0.4-8.4l1.9-23l-18.8-4.6l0.7-3.7l4.4-10.2
				l3.6-8.6l6.5-13.9l4-5.3l4.8-2.4l7.3-2.2l8-1l10.4-0.7c0.7,0,1.5,0.1,2.2,0.1c-0.2,2.6-0.3,5.1-0.5,7.7c0.4,0.5,0.8,0.9,1.2,1.4
				c0.4,0.3,0.9,0.7,1.7,1.1c0.7,0.3,1.3,0.4,3.3,0.4c2,0,3.6-0.1,4.6-0.2c1-0.1,1.9-0.1,2.4-0.2c0.6-0.1,1.3-0.3,2-0.6
				c0.3-0.1,0.6-0.3,0.9-0.5c0.3-0.5,0.7-1.1,1.1-1.9c0.2-0.6,0.4-1.2,0.4-1.6c0-1.9-0.1-3.8-0.1-5.7c2.8,0.1,5.6,0.3,8.3,0.4
				l11.1,0.7l6.6,1.1l3.9,0.8c1,0.5,2,0.9,3,1.4C1354.3,986,1355.2,986.6,1356,987.2z"/>
			<polyline class="st19" points="1341.1,1043.7 1339.7,1039.4 1338.8,1035.2 1338.2,1029.2 			"/>
			<polyline class="st19" points="1270.9,1033.2 1271.4,1029.5 1272.5,1023.1 1273.9,1016.6 1275.7,1008.2 1277.1,1002.1 
				1278.8,998.4 			"/>
		</g>
	</g>
	<g>
		<g>
			<path class="st0" d="M1159.7,1028.7c4,12.8,8,25.6,11.9,38.4l111.1-0.1l-0.2-3.1l-42,0.2l-12-38.2l-0.7-1.7
				c-0.1-0.2-0.3-0.5-0.6-0.7c-0.3-0.3-0.7-0.5-0.9-0.5c-0.3-0.1-0.7-0.3-1.2-0.5c-0.6-0.1-1.2-0.2-1.5-0.2c-20.3,0-40.6,0-60.8,0
				c-0.3,0-0.8,0.1-1.3,0.3c-0.5,0.2-0.8,0.5-1,0.7c-0.4,0.4-0.6,0.7-0.7,1.1c-0.1,0.3-0.4,0.8-0.4,1.3c0,0.4,0,0.8,0,1.2
				C1159.5,1027.5,1159.6,1028.2,1159.7,1028.7z"/>
		</g>
		<ellipse class="st10" cx="1196.9" cy="1044.4" rx="4.5" ry="4"/>
	</g>
</g>
<g>
	
		<ellipse transform="matrix(0.6483 -0.7614 0.7614 0.6483 -530.1755 1220.4152)" class="st25" cx="1056" cy="1184.1" rx="25.7" ry="86.8"/>
	
		<ellipse transform="matrix(0.949 -0.3152 0.3152 0.949 -301.319 399.1511)" class="st35" cx="1083.3" cy="1131.1" rx="31.7" ry="115.4"/>
</g>
<g>
	<path class="st36" d="M1918.6,216.9c0-0.2,0-0.3,0.1-0.5l-0.1-0.5l-0.3-0.5l-0.3-0.4l-0.5-0.4l-0.5-0.3l-0.9-0.2l-0.3,0l-0.4,0
		l-0.4,0.1l-0.4,0.2l-0.3,0.2l-0.3,0.3l-0.5,0.6l0.3-1.2l0.2-1.5l0-1.7l-0.2-1.8l-0.3-1.5l-0.5-1.9l-0.7-1.8l-0.8-1.8l-0.1-0.8
		l0.1-0.7l0.3-0.6l0.4-0.6l0.3-0.2l0.4-0.2l0.5-0.1l0.5-0.1l0.6,0.1l0.6,0.2l0.4,0.3l0.4,0.3l0.2,0.3l0.3,0.5l0.4,0.8l0.4,1l0.5,1.2
		l0.4,1.3l0.3,1.4l0.2,1.1l0.3,2.1l0.1,2.2l0,1.6l-0.1,1.7C1918.8,215.7,1918.7,216.3,1918.6,216.9z"/>
	
		<ellipse transform="matrix(0.2866 -0.9581 0.9581 0.2866 1148.5594 1965.7628)" class="st37" cx="1894.2" cy="211.7" rx="11.8" ry="11.2"/>
	<polygon class="st38" points="1901.7,193.9 1902.4,194 1902.9,193.9 1903.5,193.7 1904,193.4 1904.4,193 1904.7,192.6 
		1904.9,192.1 1905,191.6 1905,191.2 1905,190.7 1904.9,190.3 1904.7,189.9 1904.4,189.5 1904,189.1 1903.5,188.8 1900.8,187.9 
		1897.6,187.3 1894.2,187.1 1891.7,187.3 1888.6,187.8 1886.4,188.5 1883.9,189.5 1881.3,190.8 1878.6,192.7 1876.4,194.8 
		1874.4,197.1 1872.5,200.1 1871.4,202.4 1870.4,205.2 1869.8,208.5 1869.5,211.7 1869.6,214.5 1870.2,218.6 1870.9,220.5 
		1871.9,223 1872.6,224.2 1873.7,224.9 1874.8,225 1875.2,224.9 1876.1,224.5 1876.8,223.8 1877.1,223.4 1877.2,222.7 1877.2,222 
		1877.2,221.7 1876.6,220.3 1875.8,218.3 1875.1,215.6 1874.9,212.3 1875,209.2 1875.7,206.3 1877,203 1879.1,199.9 1881.7,197.2 
		1884.9,195 1888.2,193.5 1891.6,192.8 1894.8,192.5 1898,192.9 	"/>
	<path class="st39" d="M1876.8,221c-0.1-0.1-0.1-0.2-0.2-0.3c-0.1-0.1-0.2-0.2-0.2-0.2c-0.1,0-0.1-0.1-0.2-0.2
		c-0.1,0-0.1-0.1-0.2-0.1c-0.1,0-0.2-0.1-0.3-0.1c-0.1,0-0.2-0.1-0.3-0.1c-0.1,0-0.2,0-0.3-0.1c-0.1,0-0.2,0-0.3,0
		c-0.1,0-0.2,0-0.3,0c-0.1,0-0.2,0-0.3,0c-0.1,0-0.3,0.1-0.4,0.1c-0.1,0-0.2,0.1-0.3,0.1c-0.1,0-0.2,0.1-0.3,0.1
		c-0.1,0.1-0.2,0.1-0.2,0.2c-0.1,0.1-0.1,0.1-0.2,0.2c-0.1,0.1-0.2,0.2-0.2,0.3l-0.3,0.4l-0.2,0.4l-0.1,0.4l-0.1,0.5l0,0.5l0.2,0.6
		l1.5,2.4l2.1,2.5l2.5,2.3l2.1,1.5l2.7,1.6l2.1,0.8l2.5,0.8l2.9,0.7l3.3,0.2l3-0.1l3.1-0.5l3.3-1.1l2.4-1.1l2.5-1.4l2.6-2.2l2.3-2.3
		l1.7-2.2l2.1-3.6l0.7-1.8l0.8-2.6c0.1-0.2,0.1-0.5,0.2-0.8c0-0.2,0.1-0.3,0.1-0.5c-0.1-0.2-0.2-0.5-0.3-0.7
		c-0.1-0.2-0.2-0.4-0.2-0.6c-0.1-0.1-0.2-0.3-0.3-0.5c-0.1-0.2-0.3-0.3-0.4-0.3c-0.1-0.1-0.3-0.2-0.4-0.3c-0.1-0.1-0.3-0.1-0.5-0.1
		c-0.2,0-0.4-0.1-0.5-0.1c-0.1,0-0.3,0-0.4,0c-0.2,0-0.3,0-0.5,0.1c-0.2,0.1-0.3,0.1-0.5,0.2c-0.1,0.1-0.3,0.2-0.4,0.3
		c-0.1,0.1-0.2,0.2-0.3,0.3c-0.1,0.1-0.2,0.2-0.3,0.3c0,0.1-0.1,0.2-0.1,0.2c-0.1,0.5-0.3,1-0.4,1.5l-0.7,2l-1.2,2.5l-1.9,2.7
		l-2.1,2.3l-2.4,1.8l-3.1,1.7l-3.6,1.1l-3.6,0.4l-3.9-0.3l-3.5-1l-3.1-1.6l-2.6-1.8l-2.3-2.3L1876.8,221z"/>
</g>
<image style="overflow:visible;" width="4268" height="3200" xlink:href="../../DrawKit_0042_Product_Project_Managers_Illustrations/DrawKit Vector Illustration Project Manager/PNG/DrawKit Vector Illustration Project Manager (7).png"  transform="matrix(0.24 0 0 0.24 -209.3774 -117.2621)">
</image>
<path class="st0" d="M1386.1,975.5"/>
<ellipse transform="matrix(0.9736 -0.2284 0.2284 0.9736 -238.7486 372.3538)" class="st25" cx="1489.2" cy="1217.6" rx="40.5" ry="12"/>
<g>
	<path class="st3" d="M281.2,250.2c-1.5-2.8-1.6-4.4-1.5-5.4c0-0.3,0.2-0.9,0.2-1.9c0-1.2-0.2-1.5-0.1-2c0.2-1.3,2-1.9,2.7-2.3
		c1.4-0.8,2.7-3.5,1.4-12.1c-0.9-0.3-2-0.5-2.9-0.8c-1.3-0.3-2.6-0.7-3.8-0.9c-0.8-0.4-1.7-0.7-2.7-1.4c-0.8-0.6-1.6-1.1-2.3-1.6
		c-0.8-0.8-1.7-1.6-2.5-2.4l-3.9-4.7l-2.5-4.9c-0.7-1.6-1.3-3.2-2-4.9c-0.2-2.3-0.5-4.3-0.9-6.5c0.3-2.2,0.7-4.5,1-6.8
		c0.4-1.3,0.7-2.6,0.9-4c0.3-0.9,1-2.1,1.9-3.2c0.4-0.7,1-1.1,1.5-1.5c0.6-0.8,1.1-1.8,1.7-2.6l3.8,1.1c1.5,0.1,3,0.2,4.5,0.2
		c2,0.1,4,0.4,6,0.6c2.8,0.1,5.5,0.1,8.2,0.3c3.2,0.5,6.6,1.1,10,1.5c1.8,1.6,3.5,3.3,5.3,4.9l3.8,4.4c1.3,1.4,2.5,2.7,3.8,4.1
		c0.7,0.2,1.4,0.3,2.2,0.4c0.9,0.9,1.8,1.9,2.7,2.8c0.1,1.1,0.2,2.1,0.2,3.3c-0.4,1.2-0.7,2.5-1.1,3.8c-1.3,0.9-2.6,1.9-3.8,2.9
		l-0.7,2.5c0,1-0.2,2.2-0.5,3.4c-0.1,0.2-0.1,0.5-0.2,0.7c-0.1,0.1-0.2,0.4-0.4,0.6c-0.4,0.5-0.8,0.8-0.9,0.9c-0.4,0.3-1,1-2.2,2.3
		c-3,16.3-1.8,20.8-0.1,21.8c0.3,0.2,1.4,0.6,1.9,1.7c0.8,1.9-0.9,4.3-1.3,4.9c-1,1.4-1.9,1.5-4,3c-1,0.7-2.5,1.9-4.2,3.6
		c-0.9,0.8-1.9,1.6-3,2.3c-1,0.7-2,1.4-3,1.9c-1,0.2-3.3,0.5-6-0.4c-2.2-0.8-3.7-2.1-4.4-2.8c-0.4,0.1-1.9,0.4-2.9-0.3
		C280,255.4,279.6,252.7,281.2,250.2z"/>
	<path class="st8" d="M272.5,195.1c-0.4,0.3-0.7,0.7-1.2,1.1c-0.3,0.4-0.7,0.7-0.9,1.1c-0.3,0.4-0.6,0.7-0.8,1.2
		c-0.2,0.5-0.4,1.1-0.5,1.3c0,0.3-0.1,0.8,0,1.3c0,0.4,0.2,0.7,0.4,1.1c0.2,0.4,0.4,0.7,0.9,1.2c0.3,0.5,0.7,0.7,1,0.8"/>
	<path class="st8" d="M279.5,211.4l1.4-0.5l1.2-0.5c0.1-0.1,0.5-0.3,1-0.6c0.6-0.3,0.9-0.5,1.2-0.7c0.2-0.1,0.6-0.6,0.9-1.1"/>
	<g>
		
			<ellipse transform="matrix(8.935997e-02 -0.996 0.996 8.935997e-02 38.8066 440.4358)" class="st9" cx="260.3" cy="199" rx="2.5" ry="4.8"/>
		
			<ellipse transform="matrix(8.935997e-02 -0.996 0.996 8.935997e-02 62.7538 473.1529)" class="st9" cx="290.1" cy="202.3" rx="2.5" ry="4.8"/>
	</g>
	<path class="st0" d="M261.3,183.6c-1.8-1.1-3.3-2.6-3.3-2.6c-0.7-0.7-1.7-1.8-2.6-3.2c-1.4-2.3-1.7-4.3-2-5.7
		c-0.4-2-0.6-3.9,0.1-6.1c0.3-0.9,1-3.1,2.9-4.2c1.7-0.9,3.2-0.8,4.9-0.7c3,0.2,5.6,1.3,7.2,1.9c1.7,0.7,2.9,1.4,4.7,1.5
		c0.4,0.1,2.6,0.1,3-0.7c0.3-0.7-1-1.3-1.8-3.4c-0.6-1.5-0.6-2.7-0.6-3.3c0-0.5,0-4.3,2.7-6.7c2.1-2,4.9-1.9,8.2-1.8
		c0.9-0.1,3.4,0.1,6.3,1.1c1.2,0.4,3.7,1.3,6.3,3.4c0.8,0.6,3.2,2.6,5,6.3c1.3,2.7,2.4,4.9,1.8,7.5c-0.2,0.9-0.6,2-0.3,2.2
		c0.4,0.2,1.2-1.1,2.9-1.9c1.8-0.8,3.6-0.8,4.7-0.7c2,0.1,3.5,1,4.1,1.2c1.5,0.8,2.3,1.7,4.1,3.6c1.7,1.6,2.7,2.6,3.4,4.3
		c0.9,1.7,1.3,3.2,1.6,4.4c0.2,1,0.6,2.9,0.5,6.8c-0.2,5-0.2,7.5-1.3,9.9c-1.2,2.7-2.2,2.7-3.2,5.9c-0.5,1.3-1,3-0.8,5
		c0.2,2.1,0.9,2.5,0.8,4.8c0.1,2-0.6,3.4-0.7,3.8c-0.5,1.2-1,2.5-2.4,3c-1.4,0.5-2.8,0-3.8-0.7c-2.2-1.6-2.9-5.5-1.2-7.9
		c0.8-1.1,1.6-0.7,2.7-2c1.7-1.8,1.5-4.6,1.4-5.6c-0.1-1.3-0.4-2.9-1.6-4.1c-1.5-1.4-3.3-0.8-4.7-1.1c-4.4-0.7-4.7-7.2-8-10.6
		C294.6,178.6,266.7,187.3,261.3,183.6z"/>
	<path class="st0" d="M308.1,221.6c-1.7,0.8-3,1.6-3.9,2c-1.8,1.1-1.9,1.2-2.9,1.7c-1.5,0.6-2.1,0.7-3.6,1.5c-1,0.5-1.7,0.9-2.2,1.2
		c0.3,0.5,1,1.2,2,2c1,0.8,1.5,1,3,2.1c1.2,0.9,1.4,1,2.3,1.8c0.7,0.7,1.9,1.6,3.7,2.3C307,231.5,307.6,226.6,308.1,221.6z"/>
</g>
<ellipse transform="matrix(0.7614 -0.6483 0.6483 0.7614 -405.9725 1254.6288)" class="st25" cx="1501.3" cy="1178.8" rx="76.4" ry="22.6"/>
<ellipse transform="matrix(0.3152 -0.949 0.949 0.3152 -54.5088 2185.3159)" class="st35" cx="1487.1" cy="1130.4" rx="115.4" ry="31.7"/>
<polygon class="st25" points="1719.1,1.5 1711.7,5.4 1702.3,12 1695.4,20.1 1691.5,26.9 1687.4,36.1 1686.2,43.3 1685.5,51.8 
	1687,60.2 1689.6,66 1694.3,72.3 1700.5,76.6 1711.5,81.3 1721.5,82.5 1735.2,81.9 1744.2,78.8 1753,73.5 1759.4,67.4 1768,57.2 
	1774.9,47.1 1780.9,30.6 1783.5,18.5 1789,-1.3 1726.3,-2.6 "/>
<g>
	<rect x="1069.3" y="879" class="st10" width="81.8" height="147.5"/>
	
		<rect x="1077" y="894.2" transform="matrix(1.547571e-02 -0.9999 0.9999 1.547571e-02 165.325 2024.9924)" class="st21" width="68" height="68.7"/>
	<polygon class="st5" points="1111.2,913.1 1092.5,944.7 1129,945.1 	"/>
	
		<rect x="1074.9" y="970.1" transform="matrix(1.547571e-02 -0.9999 0.9999 1.547571e-02 88.2307 2050.5256)" class="st20" width="21" height="20.7"/>
	
		<rect x="1100" y="970.7" transform="matrix(1.547571e-02 -0.9999 0.9999 1.547571e-02 112.3669 2076.3406)" class="st20" width="21" height="20.7"/>
	
		<rect x="1124.8" y="971" transform="matrix(1.547571e-02 -0.9999 0.9999 1.547571e-02 136.5175 2101.3293)" class="st20" width="21" height="20.7"/>
	<g>
		<line class="st19" x1="1078.2" y1="995.9" x2="1145" y2="996.1"/>
		<line class="st19" x1="1077.6" y1="1003.5" x2="1144.9" y2="1003.5"/>
	</g>
</g>
<g>
	<polygon class="st3" points="206.8,246.5 207.2,242.7 207,240.2 206.8,238.9 205.8,237.1 205.2,236.4 203.5,234.8 202,233.8 
		200,232.1 198.2,230.7 196.7,228.9 194.5,226 193.1,223.8 191.8,219.5 191.3,214.6 191.5,212 192.4,210.3 193.6,210.2 194.4,210.8 
		195.2,212.9 197.6,219 197.9,219.5 198.1,218.8 197.6,217.3 197,214.8 196.9,212.2 196.9,207.6 197.5,204.9 198.5,203.2 
		200.1,202.7 201,203 201.8,203.5 201.7,205.6 202,207.7 202.1,210.2 202.8,212.6 203.8,214.7 204.9,216.8 206.3,218.4 207.5,219.7 
		208.1,219.9 208.5,219.8 208.6,218.2 208.7,216.2 209.7,213.8 211.1,211.6 212.3,210.4 213.9,209.2 215.4,208.5 216.7,208.1 
		217.7,208.1 218.3,208.6 218.6,209 218.8,209.9 218.8,210.7 218.5,211.4 218.1,212 216.9,213.2 215.9,214.6 214.8,216.4 
		214.7,218.5 214.8,220 215.4,221 216.1,221.9 217.2,222.7 218.5,223.4 219.7,223.8 221.3,223.6 222.4,223 223.6,221.9 224.4,220.7 
		224.8,218.9 224.5,217.1 224,215.7 223.4,214.5 222.8,213.8 222,212.5 221.5,212 220.4,210.2 220.1,209.5 220.2,208.5 220.5,207.9 
		221.5,207.6 223.1,207.7 224.4,208.1 227.6,210.5 229,212.4 230.6,215.6 231.4,219.4 231.6,221.8 231.5,226.6 231,230.6 
		230.3,233.6 229,237.6 227.9,240.3 227,243.1 226.5,244.8 226.3,248.1 226.4,249.5 226.3,250 226.4,251.3 221.1,251.4 212.8,250.5 
		208,248.4 	"/>
	<polygon class="st3" points="367.5,250.3 367.4,246 367.7,231.6 367.8,228.5 368.5,224.7 369.6,221.1 371.2,217.8 372.5,215.9 
		374.6,213.5 378.2,210.4 380.4,208.8 382.5,207.5 385,206.5 386.6,206.4 387.8,206.5 388.7,207.1 388.8,207.8 388.8,208.6 
		388.3,209.4 387.3,210.3 385.2,212 382.8,214.3 381.4,216.3 380.4,218.8 380.2,220.7 380.5,221.6 381.1,222.6 381.8,223.5 
		382.7,224.1 383.7,224.6 385,224.8 386.5,224.8 388.1,224.3 389.2,223.1 390.1,222.1 390.9,221.1 391.4,219.9 391.7,218.4 
		391.8,216.5 391.3,214.7 390.7,213.2 389.9,211.7 389.7,210.5 389.8,209.8 390.7,209.1 392.1,209 393.1,209.3 394.4,210.3 
		395.6,211.7 396.6,213.6 397.3,215.1 397.6,216.7 397.7,217.7 397.7,219.2 397.8,220.5 398.4,220.6 399.2,220 400.2,218.9 
		401.4,216.9 402,215.2 402.4,212.9 402.5,209.7 402.4,205.6 403.2,205.4 404.3,205.5 405.4,206.4 406.4,207.8 407.1,209.4 
		407.4,211 407.4,213.4 407.1,216.8 406.6,219 406.4,220.7 406.4,221.4 407.2,221.5 409.2,220 414.6,216 415.2,216 415.7,216.1 
		415.9,216.6 416,217.4 415.9,218.4 415.4,219.7 414.4,221.7 413.1,223.2 410.6,226.6 407.7,230.1 406.5,231.5 405.1,232.8 
		403.5,234.2 401.5,235.2 399.4,236.1 397,236.6 394.3,237.2 391.6,237.9 389.8,238.7 389.1,239.2 388,240.4 387.3,242 386.6,244 
		386.6,246.1 386.6,247.9 386.7,250.8 386.7,253.5 368.3,254.7 	"/>
	<g>
		<path class="st1" d="M237.7,361.4l1.7-0.3l2.7-3.3l1.3-3.9l1.2-10.5l1.5-8.1l1.2-7.4v-17.5l-0.8-3.3l-0.6-3.7l-3.9,9.2l-4.5,4.4
			l-14.4,13.4l-8.9,5.5l-9.1,2.5l-5,0.2l-3.9-1.3l-3-2.7l-2.9-3.5l-2.4-7.7l-0.9-8.5l1.6-11l3.3-14.4l4-12.8l5.1-13.6l5.3-16.1
			l0.1-0.7l1.1,0.9l3.1,1.8l4.7,1.7l3.1,0.4l3.8,0.1l4.2-0.8l-0.3,8.2l-2.3,19.5v0.7l9.3-15.2l3.6-4.2l3.2-3.5l4.5-4.5l4.3-3.8
			l4.9-3.2l4.8-1.7l6.8-1.6l5.5-1.1l4.2-0.6l3.4-0.6h3l-0.3,3.9v3.3l0.6,3.5l0.6,2.5l1.4,2.9l2.4,2.6l3,1.1l3.3-0.1l3.5-1.4l6-4.6
			l4.5-5.1c1.2-1.7,2.3-3.6,3.3-5.7c0.2-0.4,0.3-0.7,0.5-1.1c0.3-0.3,0.6-0.5,0.9-0.8c0.9,0,1.8-0.1,2.7-0.1
			c1.4,0.3,2.7,0.6,4.1,0.9l11.4,4.2l6,2.9l7.2,4.3l5.5,5.3l3,4l6.5,8.6l3.8,6.3l2.9,5l1.6,2.7l0.6,0.3l0.7-34.7l1.4,1.4l2.4,1
			l2.4,0.4l2.6,0.2l2.4-0.3l3.1-0.6l3.2-1l1.6-1.4l1.1-1.3l0.4-0.1l0.5,4.5l1.1,9.2l3.3,22l3.9,20.6l1.4,9.1l0.5,8.3l-0.2,6.6
			l-0.4,4.3l-1.3,4.5l-1.2,2.4l-1.4,2l-1.5,1.2l-3.2,1.6l-4.4,0.6l-5.3,0.1l-5.6-1.9l-7.1-4l-6-4.9l-6.8-7.3l-8.3-10.3l-4.6-6.7
			l-6.6-11.7l-2.2-5.5l-0.9,11l-0.7,9.1l-0.9,7.4l-0.1,7.8v5.8l0.7,6.5l0.9,4.4l2,6.7l1.4,2.5l-0.1,1.1l-0.7,1.6l-2.9,1.4l-5.6,1.8
			l-4.9,1.4l-3.6,1.1l-4,1.6l-2.5,1.2l-6.8,0.8l-9.5,2.2l-5.8,1l-5-0.6l-11.2-0.1h-5.2l-10.1-0.5l-5.6-0.3l-5.3-0.7l-6.9-1.7
			l-4.3-1.9l-0.9-1.9l1.3-0.9l1.9-0.2L237.7,361.4z"/>
		<polyline class="st40" points="223.8,279.7 223.7,282.7 223.4,286.9 223,292.6 222.6,297.4 222,301.9 221.2,306.4 220.3,310 
			219.7,312.1 		"/>
		<polyline class="st40" points="366.2,284.6 366,287.6 366,291.8 366.1,297.5 366.1,302.3 366.4,306.9 366.8,311.4 367.5,315 
			367.9,317.2 		"/>
		<polyline class="st40" points="190.8,331.6 190.5,329.1 190.6,327.1 191.5,324.9 192.8,323.1 194.5,322 196.8,321.1 199.2,320.7 
			201.4,320.9 203.5,321.5 205.2,322.3 207.1,323.5 208.6,324.8 210.1,326.4 211.6,328.7 212.5,330.9 212.9,332.9 212.7,334.4 
			212.2,335.7 211.4,336.6 210.6,337.4 		"/>
		<polyline class="st40" points="375.4,344.7 375.1,342.8 375.1,340.7 375.7,338.6 377.2,336.1 379.6,333.8 382.2,332.3 
			384.8,331.3 387.3,330.7 390,330.6 392.4,330.9 394.8,331.7 396.4,332.9 397.1,334.1 397.5,335.4 		"/>
	</g>
</g>
<g>
	<polyline class="st3" points="286.2,406.1 286.2,411.2 285.6,412.7 282.8,414.9 278.5,418.8 277.1,420.8 277.4,425.6 277.3,432.4 
		277.6,435 279.6,434.3 285,430.6 290.1,428.2 295,427.4 301.8,426.2 303.3,416.5 300.1,407.4 296,404 293,403.7 285.8,405.7 
		286.4,406.3 	"/>
	<path class="st2" d="M237.6,361.4l-5.3,0.8L223,363l-13.9,0.7l-11.5,0.1l-6.6,0.9l-7.8,1.9l-6,2.5l-5.7,3.8l-3.7,3.8l-2.6,4.3
		l-0.8,5l0.1,6.2l1,4.7l1.7,3.3l3.4,4l3.8,3.1l6.1,3.2l6.5,2.2l8.5,1.8l10.6,1.3l8.6,0.6l11.5,0.7l12.4,0.4l3.1,0.2l4.5-2.1l5.5-1.8
		l5.8-1l3.7-0.7l5.2-2.8l7.2-4.8l2.3-0.6l3.3,0.9l3.3,1.1l3.7,0.2l4.4-0.6l1.9-0.7l1-0.5h0.3l0.4,0.4l1,1.1l1.6,2.4l1.2,2.2l1.1,2.4
		l0.8,2.9l0.6,2.7l0.4,2.5l0.2,5.5v0.6l-1.6,0.1l-4,0.6l0.2,0.5l1.2,0.6l1.4,0.9l1.1,0.2l1.5-0.5l18.9-0.9l22.9-1.1l27-1.8l13.4-1.3
		l10.9-2.1l7-2.4l6.4-2.9l5-3.3l3.1-2.8l3-4.7l1.1-3.8l0.3-3.9l-0.6-5.2l-1-3.6l-1.6-3.3l-3.1-4.3l-5.3-3.7l-5.5-2.8l-4.2-1.5
		l-11.2-2.9l-16-2.7l-12-1.1l-14.9-0.1l-2.5-1.1l-2-1.3l-1.8-1.1l-2.5-2.7l-1.9-4.5l-1-2l-0.8,0.7l-2.4,1.6l-6,2.7l-7.8,3.3
		l-6.1,1.6l-8.9,2l-8.1,1.4c-1.5-0.3-3.1-0.6-4.6-0.8c-2.7,0.2-5.4,0.4-8.1,0.6l-6.5-0.3l-6.2,0.7l-7.5-0.8l-9.6-2.5l-5.5-0.9
		L237.6,361.4z"/>
	<path class="st40" d="M206.5,368.2h6.3l6.7,0.5l6.3,0.6l5.3,0.8l11.3,2.4l9.4,2.7l7.8,2.7l11.3,4.3l16,7l12.6,6.3
		c0.8,0.4,1.6,0.9,2.4,1.3"/>
	<polyline class="st40" points="383.5,374.9 377.2,374.9 370.5,375.4 364.2,375.9 358.9,376.8 347.5,379.2 338.1,381.9 330.3,384.6 
		319,388.8 303,395.8 290.4,402.1 286.5,404.3 	"/>
	<path class="st40" d="M169.2,376.4c0.2-0.1,0.4-0.1,0.7-0.2c0.4-0.1,0.8-0.2,1.2-0.2c0.4,0,0.7,0,1,0c0.5,0,0.8,0,1.1,0.1
		c0.3,0.1,0.6,0.2,0.8,0.3c0.4,0.2,0.7,0.3,1,0.5c0.2,0.2,0.5,0.3,0.8,0.6c0.3,0.3,0.5,0.5,0.7,0.8c0.3,0.5,0.7,1,1,1.6
		c0.2,0.5,0.4,1.1,0.6,1.6l0.6,2.4l0.4,3.4c0,0.7,0.1,1.4,0.1,2.2c0,0.6,0,1.3,0,1.9c0,0.5-0.1,0.9-0.1,1.4
		c-0.1,0.5-0.1,1.1-0.2,1.6c-0.1,0.4-0.2,0.7-0.3,1.1c-0.1,0.4-0.2,0.8-0.4,1.1c-0.1,0.3-0.2,0.7-0.4,1c-0.2,0.4-0.4,0.8-0.6,1.2
		c-0.2,0.3-0.4,0.6-0.7,0.9c-0.2,0.3-0.5,0.6-0.7,0.8c-0.2,0.3-0.5,0.5-0.9,0.8c-0.3,0.2-0.6,0.4-0.8,0.5c-0.5,0.3-0.9,0.4-1,0.4
		c-0.3,0.1-0.7,0.2-1.2,0.2c-0.4,0-0.7,0-0.9,0c-0.2,0-0.3-0.1-0.8-0.2c-0.3-0.1-0.6-0.2-0.7-0.2"/>
	<path class="st40" d="M414.5,384.6c-0.6-0.2-1.1-0.2-1.4-0.2c-0.3,0-0.6,0-1.1,0c-0.6,0-0.9,0.1-1.3,0.2c-0.4,0.1-0.7,0.2-0.9,0.3
		c-0.4,0.2-0.8,0.3-1,0.5c-0.3,0.2-0.5,0.3-0.8,0.6c-0.3,0.3-0.6,0.5-0.8,0.8c-0.4,0.5-0.7,1-1.1,1.6c-0.2,0.5-0.5,1.1-0.7,1.6
		l-0.6,2.4l-0.4,3.4c0,0.7-0.1,1.4-0.1,2.2c0,0.6,0,1.3,0,1.9c0,0.5,0.1,0.9,0.1,1.4c0.1,0.5,0.1,1.1,0.2,1.6
		c0.1,0.4,0.2,0.7,0.3,1.1c0.1,0.4,0.3,0.8,0.4,1.1c0.1,0.3,0.3,0.7,0.4,1c0.2,0.4,0.4,0.8,0.7,1.2c0.2,0.3,0.5,0.6,0.7,0.9
		c0.3,0.3,0.5,0.6,0.8,0.8c0.3,0.3,0.6,0.5,1,0.8c0.3,0.2,0.6,0.4,0.9,0.5c0.5,0.2,0.9,0.4,1.1,0.4c0.4,0.1,1.1,0.3,2,0.3
		c0.8-0.2,1.5-0.4,2.3-0.5"/>
	<path class="st0" d="M272.8,404.4c-1,0.7-2,1.4-3,2.2c-1.9,1.3-3.8,2.5-5.7,3.8l-3,1.4l-4.2,1l-4.4,0.7l-5,1.4l-4.6,1.9l-2.1,1.6
		l-2.4,2.5l-2.4,3.5l-1.1,3.8l-0.6,3.3l-0.1,4.3l0.7,2.9l1.6,3.7l1.6,2l2.9,2.4l2.7,1.7l2.9,0.7l3.8,0.4l3.8-0.6l4.2-1.9l6-3.4
		c4.5-2.9,9.1-5.8,13.6-8.7c0.1-1.7,0.2-3.4,0.2-5.1c-0.2-2-0.3-4-0.5-6l0.2-3.8l2.7-2.6l2-1.8l3.2-3.2l0.1-3.8l-0.1-3.2l-6-0.7
		c-1.5-0.4-3-0.7-4.5-1.1C274.8,403.9,273.8,404.1,272.8,404.4z"/>
</g>
<g>
	<g>
		<path class="st0" d="M593.1,278.4c-0.1-0.7-0.1-1.3-0.2-2c-0.2-0.9-0.6-1.6-0.9-2.2c-0.3-0.5-0.7-1.1-1.3-1.7
			c-0.4-0.3-0.9-0.8-1.7-1.1c-0.8-0.4-1.6-0.4-2.1-0.4c-31,2.5-62,5-93,7.5c-0.6,0-1.4,0.2-2.3,0.5c-0.8,0.3-1.4,0.7-1.8,0.9
			c-0.3,0.1-0.9,0.5-1.3,1c-0.4,0.4-0.6,0.8-0.8,1.2l-0.8,3l-13.2,65l-64.2,4.8l0.1,5.2l169.9-13.6c4.3-21.8,8.8-43.5,13.1-65.3
			C592.7,280.3,592.7,279.3,593.1,278.4z"/>
	</g>
	
		<ellipse transform="matrix(0.9968 -8.049785e-02 8.049785e-02 0.9968 -23.3621 44.2981)" class="st10" cx="537.7" cy="311.9" rx="7" ry="6.6"/>
</g>
</svg>
