<?xml version="1.0" encoding="utf-8"?>
<!-- Generator: Adobe Illustrator 24.2.1, SVG Export Plug-In . SVG Version: 6.00 Build 0)  -->
<svg version="1.1" id="Capa_1" xmlns="http://www.w3.org/2000/svg" xmlns:xlink="http://www.w3.org/1999/xlink" x="0px" y="0px"
	 viewBox="0 0 595.3 519.5" style="enable-background:new 0 0 595.3 519.5;" xml:space="preserve">
<style type="text/css">
	.st0{fill:#1D1D1B;}
	.st1{fill:#5C998E;}
	.st2{fill:#3C3C3B;}
	.st3{fill:#D8B49D;}
	.st4{fill:none;stroke:#1D1D1B;stroke-width:3;stroke-miterlimit:10;}
	.st5{fill:#007E71;}
	.st6{fill:#FEFDF4;}
	.st7{fill:#14150E;stroke:#000000;stroke-width:1.5;stroke-miterlimit:10;}
	.st8{fill:none;stroke:#1D1D1B;stroke-miterlimit:10;}
	.st9{fill:#FA9E9F;}
	.st10{fill:#FFFFFF;}
	.st11{fill:#B0B0B0;}
	.st12{fill:#E9E9E9;}
	.st13{fill:#F5EABB;}
	.st14{fill:#EDEDED;}
	.st15{fill:none;stroke:#9F9F9F;stroke-width:2;stroke-miterlimit:10;}
	.st16{fill:#9F9F9F;}
	.st17{fill:#5BA696;}
	.st18{fill:#292927;}
	.st19{fill:none;stroke:#000000;stroke-miterlimit:10;}
	.st20{fill:#F2F2F2;}
	.st21{fill:none;stroke:#000000;stroke-width:2.0003;stroke-miterlimit:10.0009;}
	.st22{fill:none;stroke:#000000;stroke-width:2;stroke-miterlimit:10;}
	.st23{fill:#A5D6CD;}
	.st24{fill:#6D4494;}
	.st25{fill:#73E5E2;}
	.st26{fill:none;stroke:#000000;stroke-width:1;stroke-miterlimit:10.0009;}
	.st27{fill:#D8D8D8;}
	.st28{fill:#8B9FC1;}
	.st29{fill:#B1BCE1;}
	.st30{fill:#E0C68F;}
	.st31{fill:#FADB93;}
	.st32{fill:#B79EFB;}
	.st33{opacity:0.4;fill:#C4C7C1;enable-background:new    ;}
	.st34{fill:none;stroke:#FFFFFF;stroke-width:3;stroke-miterlimit:10;}
	.st35{fill:none;stroke:#000000;stroke-width:2.0001;stroke-miterlimit:10.0003;}
	.st36{fill:#50B89D;}
	.st37{fill:#E5E5E5;}
	.st38{fill:#375A79;}
	.st39{fill:#2A4D9C;}
	.st40{fill:#009DC8;}
	.st41{fill:#4B668C;}
	.st42{fill:none;stroke:#000000;stroke-width:2.0001;stroke-miterlimit:10.0007;}
	.st43{fill:none;stroke:#1D1D1B;stroke-width:2;stroke-miterlimit:10;}
	.st44{opacity:0.7;fill:none;stroke:#95CBA1;stroke-width:2;stroke-miterlimit:10;enable-background:new    ;}
	.st45{fill:none;stroke:#95CBA1;stroke-width:2;stroke-miterlimit:10;}
	.st46{fill:#63737A;}
	.st47{fill:#22272E;}
	.st48{fill:#AA8FB4;}
	.st49{fill:#51877D;}
	.st50{fill:#505EA8;}
	.st51{fill:#DDCA70;}
	.st52{fill:none;stroke:#1F1416;stroke-width:1.5;stroke-miterlimit:10;}
	.st53{fill:#A8A8A7;}
	.st54{fill:none;stroke:#777776;stroke-width:1.5;stroke-miterlimit:10;}
	.st55{fill:none;stroke:#727271;stroke-width:1.5;stroke-miterlimit:10;}
</style>
<path class="st0" d="M1233.4,463.5c-0.1,1.5-0.3,3.1-0.4,4.6c0,0.6-0.1,1.5-0.5,2.5c-0.3,0.8-0.8,1.5-1.1,1.9
	c-0.6,0.4-1.3,0.9-2.1,1.3c-0.8,0.4-1.5,0.7-2.1,0.9c-1.6,0.4-3.3,0.8-4.9,1.2c-1.2,0.3-2.4,0.6-3.5,0.8c-0.8,0.2-1.8,0.4-2.8,0.7
	c-0.9,0.3-1.7,0.6-2.4,0.9c-0.3,0.6-0.7,1.2-1,1.8c-0.1,0.4-0.3,1.1-0.2,2s0.5,1.6,0.7,2c0.5,0.1,1,0.2,1.5,0.3
	c12.7,0,25.3,0,38,0.1c0.3-0.2,0.5-0.4,0.8-0.6c0.5-0.5,1-1.4,1.2-3.3c0.1-1.6-0.2-1.9-0.3-3.8c0-0.8,0-0.7,0.2-4.2
	c0.1-2.6,0.1-2.7,0.2-5.1c0.1-1.6,0.2-2.9,0.2-3.7C1247.7,463.8,1240.5,463.6,1233.4,463.5z"/>
<path class="st0" d="M1193.6,441.1c-0.5,1.5-1,2.9-1.5,4.4c-0.2,0.6-0.5,1.4-1.1,2.3c-0.5,0.7-1.1,1.2-1.5,1.6
	c-0.7,0.3-1.5,0.5-2.4,0.7c-0.8,0.2-1.6,0.3-2.3,0.4c-1.7,0-3.4,0-5.1,0c-1.2,0-2.4,0-3.6,0c-0.8-0.1-1.8-0.1-2.9,0
	c-0.9,0.1-1.8,0.2-2.5,0.3c-0.5,0.5-1,1-1.4,1.5c-0.2,0.4-0.6,1-0.7,1.9s0,1.7,0.2,2.1c0.4,0.2,0.9,0.4,1.3,0.7
	c12.3,3.1,24.5,6.3,36.8,9.4c0.3-0.1,0.6-0.2,0.9-0.4c0.6-0.4,1.3-1.1,1.9-2.9c0.5-1.5,0.3-1.9,0.7-3.8c0.2-0.8,0.2-0.7,1.2-4
	c0.6-1.8,0.7-2.4,1-3.4c0.2-0.7,0.4-1.2,0.4-1.4c0.3-0.9,0.8-2.6,1.9-6.2C1207.8,443.1,1200.7,442.1,1193.6,441.1z"/>
<polygon class="st1" points="1346.1,263.9 1346.3,276.8 1387.9,274.8 1386.7,272.2 1354.3,262.3 "/>
<polygon class="st2" points="1190.3,444 1216.2,444.8 1243.2,386.8 1276.6,283 1261.6,283.4 1240,284.7 1234.4,287.2 1228.4,298.1 
	1219.9,326.4 1191.1,442.6 "/>
<polygon class="st2" points="1255.1,465.6 1312,346.6 1319.3,349.8 1343.3,353.9 1379.9,358.1 1403.9,360.2 1421.6,360.7 
	1435.2,360.7 1445.1,358.1 1452.9,354.5 1458.1,350.3 1464.4,343.5 1468,336.2 1470.5,328.3 1471.7,317.4 1470.6,296.8 
	1463.9,296.9 1452.7,295.2 1437,292 1407.9,281.9 1388.1,274.3 1339.2,276.4 1293,279.5 1276.8,281.9 1270.9,285.4 1265.5,294.6 
	1257.4,315.3 1251,340.4 1245.7,367 1241.2,393.2 1235.5,433.1 1232.6,458.4 1231.8,465.4 "/>
<path class="st3" d="M1395.2,155.5c0.1-7.3,0.2-14.7,0.4-22c-0.9-0.1-1.8-0.2-2.7-0.4c-1.2-0.2-2.4-0.4-3.5-0.6
	c-0.8-0.3-1.7-0.6-2.6-1.1c-0.8-0.4-1.6-0.8-2.3-1.2c-0.8-0.7-1.7-1.4-2.5-2.1l-4-4l-2.8-4.4c-0.7-1.5-1.5-2.9-2.2-4.4
	c-0.4-2-0.8-3.9-1.3-5.9c0.1-2.1,0.3-4.2,0.4-6.4c0.2-1.3,0.4-2.5,0.5-3.8c0.2-0.8,0.6-2,1.4-3.1c0.4-0.6,0.9-1.1,1.3-1.5
	c0.4-0.8,0.8-1.7,1.3-2.5l3.6,0.7c1.4-0.1,2.7-0.1,4.1-0.2c1.9,0,3.7,0.1,5.6,0.1c2.5-0.1,5-0.3,7.5-0.4c3.1,0.2,6.2,0.4,9.3,0.6
	c1.7,1.3,3.4,2.7,5.2,4l3.9,3.7c1.3,1.2,2.6,2.3,3.9,3.5c0.7,0.1,1.4,0.1,2.1,0.2c0.9,0.8,1.8,1.6,2.7,2.4c0.1,1,0.3,2,0.4,3
	c-0.2,1.2-0.4,2.4-0.6,3.6c-1.1,1-2.2,2-3.2,3l-0.4,2.3l-0.2,3.8l-2.9,3.7l-0.4,23.8c-0.1,1.8-0.2,3.6-0.3,5.4
	c-2.1,0.8-4.1,1.5-6.2,2.3c-1.8,0.1-3.7,0.2-5.5,0.2c-2,0.2-4.1,0.5-6.1,0.7C1397.7,157.6,1396.5,156.6,1395.2,155.5z"/>
<g>
	<ellipse class="st0" cx="1429.7" cy="371.4" rx="60.4" ry="12.6"/>
	<path class="st0" d="M1426,380.2L1426,380.2c-1.5-0.5-3.1,0.3-3.6,1.8l-29.3,90.4c-0.5,1.5,0.3,3.1,1.8,3.6l0,0
		c1.5,0.5,3.1-0.3,3.6-1.8l29.3-90.4C1428.3,382.3,1427.5,380.7,1426,380.2z"/>
	<path class="st0" d="M1433.4,379.9L1433.4,379.9c1.5-0.5,3.1,0.3,3.6,1.8l29.3,90.4c0.5,1.5-0.3,3.1-1.8,3.6l0,0
		c-1.5,0.5-3.1-0.3-3.6-1.8l-29.3-90.4C1431.1,382,1431.9,380.4,1433.4,379.9z"/>
	<line class="st4" x1="1407.5" y1="440" x2="1446.2" y2="415.9"/>
	<line class="st4" x1="1453.1" y1="440.4" x2="1414.4" y2="416.3"/>
</g>
<path class="st3" d="M1301.6,247.6l-0.3,0.2l-5.6,4l-2.7,3.4l-1,3l0.7,3.9l1,1.3l2.4,1.8l2.5,1.2l4,0.8l5.2-0.4l3.9-2l4.7-1.6
	l3.5-0.9l3.4,0.9l1.8,1.9l2.2,2.1l3.6,1.6l4.3,0.8l3.3,2l5.1,2.9l2.9,0.9l0.1-11l5.2-1l7.4,0.8l15.9,6l13.8,5.2l39.6,14.6
	c2.7,0.9,5.4,1.7,8.1,2.6c5,1.2,10.1,2.3,15.1,3.5c3.8,0.6,7.5,1.2,11.3,1.8c2.8,0.2,5.6,0.3,8.4,0.5l7.9-0.7l3.9-2.4l2.9-3.3
	l2.1-3.9l1.5-5.6l1.6-11.6l0.5-14l-0.1-18.3l-49.5,0.1l2.9,11.7l-0.1,9.6l-4.3,2.2l-6.9-1.4l-19.6-4.7l-35.2-6.9l-16.1-2.9
	l-11.5-1.5l-10.2,0.4l-1.8,1.3l-2.5-0.5l-3.6-0.7l-6.3-1.3l-3.7-0.9l-8.4,0.2l-4,1L1301.6,247.6z"/>
<path class="st1" d="M1328.5,244.7l1.6-21.7l2.9-24.6l5.3-24.9c0.9-4.2,1.8-8.5,2.7-12.7c1.2-1.8,2.4-3.6,3.6-5.4
	c1.6-0.7,3.1-1.3,4.7-2l7-1l11.5-1.6l18.8-1.8l7.6-1c0.4,0,0.8,0.1,1.3,0.1c0,1.2,0.1,2.5,0.1,3.7c0.1,0.7,0.3,1.3,0.4,2
	c0.5,0.4,0.9,0.8,1.4,1.2c0.3,0.2,0.8,0.4,1.3,0.6c0.9,0.4,1.8,0.5,2.4,0.5c0.7,0.1,1.6,0.3,2.5,0.3c0.8,0.1,1.6,0.1,2.3,0.1
	c0.9,0,1.8-0.1,2.8-0.1c1.1-0.1,2.2-0.2,3.3-0.3c0.6-0.1,1.4-0.3,2.3-0.6c0.7-0.3,1.3-0.6,1.7-0.9c0.2-0.1,0.5-0.4,0.8-0.8
	c0.2-0.3,0.3-0.6,0.4-1c0.1-0.3,0.1-0.7,0.1-1.3c0.1-1.4,0.1-2.8,0.2-4.1c3.1,0,6.1,0,9.2-0.1c6.2,0.4,12.4,0.8,18.6,1.2l12.9,2
	l9.6,2.4l5.3,2.4l4.3,4.7l3.1,7.4l2.7,11.7l1.8,7.2l1.8,11.1l1.4,13.5l1.6,11.5l1.9,12.5l0.2,4.8l-48.9-0.4l0.6,2v0.1l1,4.3l0.6,2.4
	l0.3,4.9l0.4,3.4l-1,3.5l-3.8,2.2l-6.6-0.6l-46.8-9.2l-29.9-5.7h-21.5L1328.5,244.7z"/>
<g>
	<g>
		<path class="st5" d="M1163.9,175.5h-50.1c-7.3,0-13.2-5.9-13.2-13.2v-5.4c0-7.3,5.9-13.2,13.2-13.2h50.1c7.3,0,13.2,5.9,13.2,13.2
			v5.4C1177.2,169.6,1171.2,175.5,1163.9,175.5z"/>
		<polygon class="st5" points="1158.4,175.5 1167.2,182.9 1167.7,171.5 1158.3,171.6 		"/>
	</g>
	<g>
		<ellipse class="st6" cx="1128.7" cy="159.9" rx="3.1" ry="3.1"/>
		<ellipse class="st6" cx="1139" cy="159.9" rx="3.1" ry="3.1"/>
		<ellipse class="st6" cx="1149" cy="159.9" rx="3.1" ry="3.1"/>
	</g>
</g>
<path class="st7" d="M1357.2,191.8l-5.4,18.6c0,0,0,0,0,0.1l-3.9,16.9v0.1l-1.7,13.1v0.1l-0.2,6.2"/>
<polyline class="st7" points="1443.8,244.9 1443.5,239.5 1441.7,228.1 1437.8,213.4 1432.4,197.2 "/>
<path class="st8" d="M1382.5,105.6c-0.3,0.3-0.6,0.7-1,1.1c-0.3,0.4-0.6,0.7-0.8,1.1c-0.2,0.3-0.4,0.7-0.6,1.2s-0.3,1-0.4,1.3
	c0,0.3,0,0.7,0.1,1.2c0.1,0.4,0.2,0.7,0.4,1c0.2,0.3,0.5,0.6,0.9,1c0.4,0.3,0.7,0.5,1,0.6"/>
<path class="st8" d="M1390.2,119.9l1.2-0.6l1.1-0.5c0.2-0.1,0.5-0.3,0.9-0.6c0.5-0.3,0.7-0.5,1-0.8c0.2-0.2,0.5-0.6,0.8-1.1"/>
<g>
	<ellipse class="st9" cx="1371.4" cy="110.2" rx="4.5" ry="2.3"/>
	<ellipse class="st9" cx="1399.1" cy="110.7" rx="4.5" ry="2.3"/>
</g>
<path class="st0" d="M1371.3,96c-1.7-0.9-3.2-2.2-3.2-2.2c-0.7-0.6-1.7-1.4-2.6-2.7c-1.4-2-1.9-3.9-2.3-5.1
	c-0.5-1.8-0.9-3.5-0.4-5.6c0.2-0.9,0.7-2.9,2.4-4.1c1.4-1,2.8-1.1,4.4-1.1c2.8-0.1,5.3,0.7,6.8,1.1c1.7,0.6,2.8,1.1,4.5,1
	c0.4,0,2.4-0.1,2.7-0.9c0.2-0.7-1.1-1.2-2-3c-0.7-1.2-0.8-2.4-0.8-2.9c-0.1-0.5-0.4-4,1.9-6.4c1.8-2,4.3-2.1,7.4-2.3
	c0.8-0.1,3.1-0.2,5.9,0.5c1.2,0.3,3.5,0.9,6.1,2.6c0.7,0.5,3.1,2.2,5.1,5.4c1.4,2.3,2.6,4.3,2.3,6.7c-0.1,0.8-0.4,1.8-0.1,2
	c0.4,0.2,1-1.1,2.5-2c1.6-0.9,3.2-1,4.2-1c1.9-0.1,3.3,0.5,3.8,0.7c1.4,0.5,2.3,1.3,4.1,2.9c1.6,1.4,2.6,2.2,3.5,3.7
	c1,1.5,1.5,2.9,1.8,4c0.3,0.8,0.8,2.6,1,6.2c0.3,4.6,0.5,6.9-0.3,9.2c-0.8,2.5-1.8,2.7-2.4,5.7c-0.3,1.3-0.6,2.8-0.3,4.7
	c0.3,1.9,0.9,2.2,1.1,4.3c0.2,1.9-0.2,3.1-0.3,3.5c-0.4,1.2-0.8,2.4-2,3s-2.6,0.2-3.5-0.3c-2.2-1.3-3.1-4.8-1.8-7.2
	c0.6-1.1,1.4-0.8,2.3-2.1c1.4-1.9,1-4.4,0.8-5.3c-0.3-1.2-0.6-2.6-1.9-3.6c-1.5-1.1-3.1-0.5-4.4-0.6c-4.1-0.3-4.9-6.3-8.2-9.1
	C1401.4,88.6,1376.5,98.9,1371.3,96z"/>
<path class="st0" d="M1346.4,84.9"/>
<path class="st0" d="M1417.7,126.6c-1.5,0.9-2.6,1.7-3.4,2.2c-1.5,1.1-1.6,1.3-2.5,1.8c-1.3,0.7-1.9,0.8-3.2,1.6
	c-0.8,0.5-1.5,1-1.9,1.3c0.4,0.4,1.1,1,2,1.6s1.4,0.8,2.9,1.7c1.2,0.7,1.3,0.9,2.3,1.5c0.8,0.5,2,1.2,3.6,1.8
	C1417.5,135.6,1417.6,131.1,1417.7,126.6z"/>
<path class="st3" d="M1392.5,152.8"/>
<g>
	<g>
		<path class="st0" d="M1182.9,215.5c5.4,19,10.9,38,16.3,57l151.7-0.1l-0.3-4.6l-57.3,0.3l-16.4-56.7l-0.9-2.6
			c-0.2-0.3-0.4-0.7-0.8-1c-0.4-0.4-0.9-0.7-1.2-0.8c-0.4-0.2-1-0.5-1.7-0.7c-0.8-0.2-1.6-0.3-2.1-0.3c-27.7,0-55.4,0-83.1,0
			c-0.4,0-1.1,0.1-1.8,0.5c-0.7,0.3-1.1,0.8-1.4,1.1c-0.5,0.6-0.8,1.1-1,1.6s-0.5,1.2-0.6,2c0,0.6,0,1.2,0,1.8
			C1182.7,213.8,1182.8,214.7,1182.9,215.5z"/>
	</g>
	<ellipse class="st10" cx="1233.8" cy="238.8" rx="6.2" ry="5.9"/>
</g>
<g>
	<path class="st11" d="M1412.8,480l50.4-201.5c0.9-3.5,4.4-5.6,7.8-4.7l0,0c3.5,0.9,5.6,4.4,4.7,7.8l-50.4,201.5
		c-0.9,3.5-4.4,5.6-7.8,4.7l0,0C1414.1,487,1412,483.5,1412.8,480z"/>
	<path class="st11" d="M1534.6,479.1l-50.4-201.5c-0.9-3.5-4.4-5.6-7.8-4.7l0,0c-3.5,0.9-5.6,4.4-4.7,7.8l50.4,201.5
		c0.9,3.5,4.4,5.6,7.8,4.7l0,0C1533.4,486.1,1535.5,482.6,1534.6,479.1z"/>
	<path class="st11" d="M1052.9,481.9l50.4-201.5c0.9-3.5,4.4-5.6,7.8-4.7l0,0c3.5,0.9,5.6,4.4,4.7,7.8L1065.4,485
		c-0.9,3.5-4.4,5.6-7.8,4.7l0,0C1054.1,488.9,1052,485.4,1052.9,481.9z"/>
	<path class="st11" d="M1174.7,481l-50.4-201.5c-0.9-3.5-4.4-5.6-7.8-4.7l0,0c-3.5,0.9-5.6,4.4-4.7,7.8l50.4,201.5
		c0.9,3.5,4.4,5.6,7.8,4.7l0,0C1173.5,488,1175.6,484.5,1174.7,481z"/>
	<path class="st12" d="M1502.5,287.2h-489.9c-4,0-7.2-3.2-7.2-7.2l0,0c0-4,3.2-7.2,7.2-7.2h489.9c4,0,7.2,3.2,7.2,7.2l0,0
		C1509.7,284,1506.5,287.2,1502.5,287.2z"/>
	<path class="st12" d="M980.2,480.3l50.4-201.5c0.9-3.5,4.4-5.6,7.8-4.7l0,0c3.5,0.9,5.6,4.4,4.7,7.8l-50.3,201.5
		c-0.9,3.5-4.4,5.6-7.8,4.7l0,0C981.5,487.2,979.4,483.7,980.2,480.3z"/>
	<path class="st12" d="M1102,479.4l-50.4-201.5c-0.9-3.5-4.4-5.6-7.8-4.7l0,0c-3.5,0.9-5.6,4.4-4.7,7.8l50.4,201.5
		c0.9,3.5,4.4,5.6,7.8,4.7l0,0C1100.8,486.4,1102.9,482.9,1102,479.4z"/>
	<path class="st12" d="M1342.7,481.2l50.4-201.5c0.9-3.5,4.4-5.6,7.8-4.7l0,0c3.5,0.9,5.6,4.4,4.7,7.8l-50.4,201.5
		c-0.9,3.5-4.4,5.6-7.8,4.7l0,0C1344,488.2,1341.8,484.7,1342.7,481.2z"/>
	<path class="st12" d="M1464.5,480.3l-50.4-201.5c-0.9-3.5-4.4-5.6-7.8-4.7l0,0c-3.5,0.9-5.6,4.4-4.7,7.8l50.4,201.5
		c0.9,3.5,4.4,5.6,7.8,4.7l0,0C1463.3,487.3,1465.4,483.8,1464.5,480.3z"/>
</g>
<g>
	<g>
		<path class="st13" d="M1223.1,105l-11.5,12.1l0.2,49.6c0,0.2,0,0.5,0.1,0.9c0.1,0.3,0.2,0.5,0.3,0.7c0.1,0.1,0.2,0.3,0.5,0.5
			c0.4,0.3,0.8,0.3,0.9,0.3c0.6,0,1.1,0,1.7,0c12.1,0,24.2-0.1,36.3-0.1c0.2-0.1,0.4-0.1,0.6-0.3c0.3-0.2,0.5-0.5,0.6-0.7
			s0.2-0.4,0.3-0.7c0.1-0.4,0.2-0.8,0.2-1.1c-0.1-19.7-0.3-39.5-0.4-59.2c-0.1-0.2-0.2-0.4-0.3-0.6c-0.2-0.3-0.4-0.5-0.6-0.7
			s-0.5-0.4-0.8-0.6s-0.6-0.3-0.9-0.4C1241.3,105,1232.2,105,1223.1,105z"/>
		<polygon class="st1" points="1211.6,117.3 1223.1,105.1 1223.4,117.3 		"/>
	</g>
	<g>
		<path class="st14" d="M1233,113.6l-11.5,12.1l0.2,49.6c0,0.2,0,0.5,0.1,0.9c0.1,0.3,0.2,0.5,0.3,0.7c0.1,0.1,0.2,0.3,0.5,0.5
			c0.4,0.3,0.8,0.3,0.9,0.3c0.6,0,1.1,0,1.7,0c12.1,0,24.2-0.1,36.3-0.1c0.2-0.1,0.4-0.1,0.6-0.3c0.3-0.2,0.5-0.5,0.6-0.7
			s0.2-0.4,0.3-0.7c0.1-0.4,0.2-0.8,0.2-1.1c-0.1-19.7-0.3-39.5-0.4-59.2c-0.1-0.2-0.2-0.4-0.3-0.6c-0.2-0.3-0.4-0.5-0.6-0.7
			s-0.5-0.4-0.8-0.6s-0.6-0.3-0.9-0.4C1251.2,113.6,1242.1,113.6,1233,113.6z"/>
		<line class="st15" x1="1225.9" y1="138.3" x2="1257.9" y2="138.2"/>
		<line class="st15" x1="1225.9" y1="144.1" x2="1257.9" y2="143.9"/>
		<line class="st15" x1="1226" y1="149.9" x2="1257.9" y2="149.8"/>
		<line class="st15" x1="1247.6" y1="122.2" x2="1258" y2="122.2"/>
		<line class="st15" x1="1247.6" y1="126.2" x2="1258" y2="126.2"/>
		<polygon class="st16" points="1221.5,125.8 1233,113.6 1233.3,125.8 		"/>
	</g>
</g>
<path class="st14" d="M1168.6,121.1h-33.3c-4.3,0-7.8-3.5-7.8-7.8V93.4c0-4.3,3.5-7.8,7.8-7.8h33.3c4.3,0,7.8,3.5,7.8,7.8v19.9
	C1176.4,117.7,1172.9,121.1,1168.6,121.1z"/>
<rect x="1135.7" y="91.1" class="st17" width="7.2" height="24.3"/>
<rect x="1144.6" y="107.7" class="st17" width="6.7" height="7.7"/>
<rect x="1153.1" y="101.6" class="st17" width="7.3" height="13.8"/>
<rect x="1161.9" y="96.4" class="st17" width="7.3" height="18.9"/>
<image style="overflow:visible;enable-background:new    ;" width="58" height="39" xlink:href="../../DrawKit_0001_Peach_Illustrations/DrawKit_0001_Peach_Illustrations/UI Elements/PNG/speech-modal-3.png"  transform="matrix(1.5922 0 0 1.5922 967.5218 -820.9405)">
</image>
<g>
	<polygon class="st0" points="917.2,-348.7 917.3,-347.2 917.7,-345.9 918.3,-344.5 934,-325 935,-325.2 936.5,-325.9 936.8,-326.5 
		936.8,-327.9 935.8,-330.3 933.3,-335 932,-338.8 932.7,-341.1 935.2,-343.9 937.2,-345.3 937.7,-345.8 928.3,-357.7 	"/>
	<polygon class="st0" points="982.9,-321.9 984.2,-321.2 985.5,-320.8 987,-320.5 1011.9,-323.1 1012.3,-324.1 1012.5,-325.7 
		1012.2,-326.3 1011,-327 1008.5,-327.5 1003.1,-328 999.3,-328.9 997.7,-330.8 996.8,-334.4 996.6,-336.8 996.5,-337.5 
		981.4,-336.1 	"/>
	<path class="st18" d="M896.8-569.9l60.1,170.2c7.6,21.5,15.2,43,22.8,64.6c0.6-0.1,1.3-0.1,1.9-0.2c5.7-0.6,11.5-1.2,17.2-1.8
		c-6.5-36.8-13-73.6-19.6-110.3l-19.6-110.2l-5-28.8l-21.9,7.3l-17.8,5.5L896.8-569.9z"/>
	<polygon class="st2" points="988.8,-601 1005.4,-522.3 1008.9,-500.8 1013.3,-475.7 1015.9,-448.8 1015.3,-438.7 1008,-423.2 
		988.1,-397 938,-345.6 937.2,-345.9 927.3,-356.7 927.9,-357.8 957.1,-398.8 981.6,-431.7 953.3,-586.1 	"/>
</g>
<g>
	<path class="st3" d="M933.1-701.3c-1.7,0.1-3.5,0.2-5.2,0.3c-1.5,0.3-3.1,0.5-4.7,0.7c-1.9-0.4-3.7-0.6-5.6-1
		c-1.1-0.9-1.5-1.7-1.6-2.2c-0.1-0.7,0.1-0.8,0.1-2c0-1-0.2-1.2-0.3-2.4c-0.1-1.1-0.1-1.9-0.1-2.1c0-1.3-0.8-5.5-3.1-15.7
		c-1-0.9-2-1.8-3-2.7l-0.8-3.2l-0.7-1.9c-1-0.7-2.1-1.4-3.2-2c-0.4-1-0.7-2-1.1-2.9c-0.1-0.9-0.1-1.7-0.1-2.6
		c0.6-0.8,1.3-1.6,1.9-2.4c0.6-0.2,1.2-0.3,1.7-0.5c0.9-1.2,1.8-2.3,2.7-3.5l2.7-3.7c1.3-1.4,2.5-2.8,3.8-4.2
		c2.6-0.6,5.2-1.3,7.7-1.9c2.1-0.3,4.2-0.5,6.4-0.8c1.6-0.3,3.1-0.7,4.7-0.9c1.2-0.1,2.3-0.3,3.5-0.5l2.9-1.1c0.5,0.6,1,1.3,1.5,1.9
		c0.4,0.3,0.9,0.6,1.3,1.1c0.8,0.8,1.4,1.7,1.7,2.4c0.3,1.1,0.6,2.1,1,3.1c0.4,1.8,0.9,3.6,1.3,5.3c-0.1,1.8-0.2,3.4-0.2,5.2
		c-0.4,1.4-0.8,2.7-1.2,4l-1.6,4l-2.7,4c-0.6,0.7-1.2,1.4-1.8,2.1c-0.5,0.4-1.1,0.9-1.7,1.4c-0.7,0.6-1.4,0.9-2,1.3
		c-0.9,0.3-1.9,0.7-2.9,1c-0.7,0.3-1.5,0.5-2.2,0.8c0.6,4.1,1.3,7.1,1.9,9.2c0.3,0.9,0.8,2.7,1.3,5.1c0.3,1.7,0.5,3.1,0.6,4.1
		C935.5-703.9,935-703.4,933.1-701.3z"/>
	<path class="st8" d="M940.5-741.3c0.2-0.1,0.5-0.3,0.7-0.7c0.3-0.4,0.5-0.7,0.6-1s0.2-0.6,0.2-0.9c0-0.4-0.1-0.8-0.1-1
		c-0.1-0.2-0.3-0.6-0.5-1s-0.4-0.6-0.7-0.9c-0.2-0.3-0.5-0.5-0.8-0.8c-0.4-0.3-0.7-0.6-1-0.8"/>
	<path class="st8" d="M929.9-737.4c0.3,0.4,0.6,0.7,0.8,0.8c0.3,0.2,0.5,0.3,1,0.5c0.4,0.2,0.7,0.3,0.8,0.4l1,0.3l1.1,0.3"/>
	<g>
		
			<ellipse transform="matrix(0.9837 -0.1796 0.1796 0.9837 149.4455 158.2705)" class="st9" cx="948.8" cy="-746.2" rx="3.8" ry="2"/>
		
			<ellipse transform="matrix(0.9837 -0.1796 0.1796 0.9837 148.2242 154.1802)" class="st9" cx="925.6" cy="-741.5" rx="3.8" ry="2"/>
	</g>
	<path class="st0" d="M914.8-752.5c-2.3,2.9-2.1,8-5.5,8.9c-1.1,0.3-2.5,0-3.6,1.2c-0.9,1-1,2.3-1,3.3c0,0.8,0,3,1.5,4.3
		c1,1,1.6,0.6,2.3,1.4c1.5,1.8,1.2,4.9-0.4,6.3c-0.7,0.6-1.8,1.1-2.9,0.8c-1.1-0.3-1.6-1.3-2.1-2.2c-0.1-0.3-0.7-1.3-0.8-2.9
		c-0.2-1.8,0.3-2.1,0.3-3.8c0-1.6-0.5-2.9-1-3.9c-1-2.4-1.8-2.4-2.9-4.4c-1-1.8-1.2-3.8-1.7-7.7c-0.4-3.1-0.2-4.6-0.1-5.4
		c0.1-1,0.3-2.2,0.9-3.6c0.5-1.4,1.2-2.2,2.4-3.6c1.3-1.6,1.9-2.4,3-3.1c0.4-0.2,1.5-1,3.1-1.2c0.8-0.2,2.2-0.3,3.7,0.2
		c1.4,0.5,2.1,1.5,2.4,1.3c0.2-0.2-0.2-1-0.4-1.7c-0.6-2,0.1-3.8,0.9-6c1.2-3,2.9-4.8,3.5-5.3c1.9-1.8,3.8-2.7,4.7-3.1
		c2.2-1,4.2-1.3,4.9-1.3c2.6-0.3,4.8-0.6,6.6,0.8c2.3,1.7,2.6,4.7,2.6,5.1c0.1,0.4,0.2,1.4-0.2,2.6c-0.5,1.7-1.5,2.3-1.2,2.8
		c0.4,0.6,2.1,0.4,2.4,0.3c1.4-0.2,2.3-0.8,3.6-1.5c1.2-0.6,3.2-1.6,5.5-2c1.3-0.2,2.5-0.4,3.9,0.2c1.6,0.7,2.3,2.4,2.6,3.1
		c0.7,1.7,0.7,3.2,0.5,4.8c-0.2,1.1-0.3,2.7-1.2,4.6c-0.6,1.2-1.3,2.1-1.8,2.7c0,0-1.1,1.3-2.4,2.3
		C942.9-754.9,920.4-759.7,914.8-752.5z"/>
	<path class="st0" d="M914.8-714c1.3-0.7,2.2-1.5,2.7-2.1c0.7-0.7,0.8-0.8,1.7-1.6c1.1-1,1.5-1.2,2.2-1.9s1.2-1.3,1.4-1.7
		c-0.4-0.2-1-0.5-1.8-0.8c-1.2-0.5-1.7-0.5-2.9-0.9c-0.8-0.3-0.9-0.4-2.4-1.1c-0.7-0.3-1.8-0.8-3.2-1.3
		C913.3-721.5,914.1-717.7,914.8-714z"/>
</g>
<g>
	<path class="st1" d="M867.5-683l-0.2,9.3l1.5,15.8l3.1,22.3l3.3,14.1l4.3,15.2l1.4,3.1l0.9,0.5l2.3,0.3l1.4,0.5l4.8,14.3l6.8,18.2
		l10.9-1.7l11-2.6l14.4-4.2l21.8-7.4l33.6-15.4c-0.6-4-1.2-7.9-1.8-11.9c0.3,0,0.6-0.1,0.9-0.1c1.2,0,2.4-0.1,3.6-0.1
		c0.3,0,0.7-0.1,1.2-0.4s0.8-0.6,0.9-0.8c0.2-0.4,0.4-0.8,0.6-1.3c0.2-0.7,0.4-1.3,0.5-1.8c0.2-0.9,0.3-1.8,0.4-2.8
		c0.1-1.4,0.2-2.6,0.1-3.8c-0.1-1.7-0.2-3.4-0.4-5.1c-0.4-3.9-0.9-7.5-1.5-11c-0.6-3.3-1.2-6.5-1.9-9.8l-3.3-13.8l-7.9-25.3
		l-5.3-11.1l-4.8-7.7l-6.2-2.2l-8.6-1.4l-11-0.5c-3.4,0-6.7,0.1-10.1,0.1c0.1,0.5,0.3,1.2,0.5,2c0.5,1.8,0.6,2.2,0.6,2.9
		c0,0.5-0.1,1.3-0.7,2.3c-0.4,0.4-0.9,0.9-1.6,1.3c-1.3,0.8-2.7,1.1-3.4,1.2c-1,0.1-2.1,0.1-3.1,0.2c-1.9,0.1-3.7,0.1-5.5,0.1
		c-0.5,0-1.1,0-1.8-0.1c-0.6-0.1-1.1-0.2-1.5-0.4c-0.2-0.2-0.5-0.5-0.8-0.8c-0.3-0.5-0.6-1-0.8-2c-0.2-0.8-0.3-1.4-0.4-2.4
		c-0.1-0.7-0.2-1.7-0.3-2.9c-2.4,0.4-4.8,0.8-7.2,1.3l-13.5,3.5l-8.7,2.8l-6.2,2.5l-6.4,4.5l-3.6,4l-1.9,5.3L867.5-683z"/>
	<polyline class="st19" points="900.6,-669.5 905,-640.7 987.1,-613.3 	"/>
	<path class="st19" d="M972.3-685.3c0.3,0.8,0.6,1.5,0.9,2.3c0.3,0.7,0.5,1.4,0.8,2.1c0.3,0.9,0.5,1.8,0.8,2.7
		c0.2,0.8,0.4,1.7,0.6,2.5c0.1,0.5,0.2,1.1,0.4,1.9c0.2,1,0.3,1.5,0.5,2.1c0.3,0.9,0.3,0.9,0.6,2.1c0.3,1.1,0.3,1.1,0.6,2.2
		c0.3,1.1,0.4,1.2,0.5,1.9c0.1,0.5,0.1,0.5,0.4,1.9c0.3,1.5,0.4,1.8,0.5,2.7c0.1,0.5,0.1,0.8,0.1,1.1s0.1,0.7,0.1,1.2
		c0,0.3,0.1,1.4,0,3.2c0,1.2-0.1,2.3-0.2,3.3c-0.1,1-0.3,2.3-0.6,3.7"/>
	<path class="st19" d="M885-603.3c4.3,0,8.5-0.1,12.8-0.1c3.2-0.1,6.3-0.3,9.5-0.4c3.3-0.2,6.5-0.4,9.8-0.7
		c3.7-0.9,7.5-1.7,11.2-2.6l12.4-3.8l8.5-3.4l8.1-3.9c1.6-1.1,3.2-2.2,4.8-3.3"/>
	<path class="st0" d="M890.6-586.9c4.9-5.5,9.8-11,14.6-16.5c-6.8,0.2-13.5,0.4-20.3,0.6c0.4,1.1,0.9,2.2,1.3,3.3
		C887.7-595.3,889.2-591.1,890.6-586.9z"/>
	<polygon class="st3" points="963.1,-644 966.1,-643.6 968.8,-641.1 973,-636.9 975.5,-634.3 976.4,-633.8 978.3,-633.9 
		979.4,-634.7 979.8,-636.1 979.7,-638.3 978.6,-640.4 970.9,-648.2 968.2,-648 966.2,-647.4 964.8,-646.5 963.2,-645.3 
		962.8,-644.6 	"/>
</g>
<rect x="1147.1" y="-673.3" transform="matrix(0.1296 -0.9916 0.9916 0.1296 1584.8784 694.2011)" class="st20" width="81.6" height="235.2"/>
<rect x="1153.1" y="-997.2" transform="matrix(0.1296 -0.9916 0.9916 0.1296 1899.3677 608.8295)" class="st21" width="286.8" height="439.4"/>
<rect x="1113" y="-877.9" transform="matrix(0.1296 -0.9916 0.9916 0.1296 1830.5238 462.1808)" class="st21" width="131.1" height="132.6"/>
<path class="st22" d="M1278.1-872.1"/>
<line class="st22" x1="1496" y1="-824.8" x2="1275.7" y2="-853.6"/>
<line class="st22" x1="1494" y1="-804.8" x2="1273.7" y2="-833.6"/>
<line class="st22" x1="1491.2" y1="-785.2" x2="1270.8" y2="-814"/>
<line class="st22" x1="1489.1" y1="-765.2" x2="1268.8" y2="-794"/>
<polygon class="st5" points="1182.4,-841 1139.7,-784.6 1209.5,-775.8 "/>
<rect x="1094" y="-670.3" transform="matrix(0.1296 -0.9916 0.9916 0.1296 1558.288 712.896)" class="st21" width="182.5" height="278.3"/>
<line class="st22" x1="1056.9" y1="-630.4" x2="1334" y2="-595"/>
<rect x="1164.9" y="-566.8" transform="matrix(0.1296 -0.9916 0.9916 0.1296 1565.7482 679.3816)" class="st23" width="10" height="29.2"/>
<rect x="1199.9" y="-562.5" transform="matrix(0.1296 -0.9916 0.9916 0.1296 1591.9465 717.8412)" class="st23" width="10" height="29.2"/>
<line class="st19" x1="1126.4" y1="-576.1" x2="1252.8" y2="-559.8"/>
<line class="st19" x1="1117.8" y1="-508.3" x2="1244.2" y2="-491.9"/>
<line class="st19" x1="1116.4" y1="-496" x2="1242.8" y2="-479.7"/>
<line class="st19" x1="1114.4" y1="-483.5" x2="1240.8" y2="-467.1"/>
<line class="st19" x1="1113.5" y1="-471" x2="1239.9" y2="-454.6"/>
<ellipse class="st24" cx="1064" cy="-633.8" rx="2.4" ry="2.4"/>
<ellipse class="st25" cx="1072.3" cy="-632.8" rx="2.4" ry="2.4"/>
<ellipse class="st23" cx="1080" cy="-631.7" rx="2.4" ry="2.4"/>
<rect x="1327" y="-575" transform="matrix(0.1296 -0.9916 0.9916 0.1296 1732.316 971.8871)" class="st26" width="185.5" height="148.5"/>
<rect x="1391.1" y="-613" transform="matrix(0.1296 -0.9916 0.9916 0.1296 1790.2914 876.6635)" class="st23" width="6.8" height="63.1"/>
<ellipse transform="matrix(0.1296 -0.9916 0.9916 0.1296 1859.9303 980.1896)" class="st27" cx="1488.3" cy="-569.3" rx="5.3" ry="5.6"/>
<ellipse class="st10" cx="1484.8" cy="-569.7" rx="1.2" ry="1.2"/>
<ellipse class="st10" cx="1488" cy="-569.3" rx="1.2" ry="1.2"/>
<ellipse class="st10" cx="1491.2" cy="-568.8" rx="1.2" ry="1.2"/>
<rect x="1370" y="-574.6" transform="matrix(0.1296 -0.9916 0.9916 0.1296 1752.1854 873.1902)" class="st28" width="7" height="26.2"/>
<rect x="1403.5" y="-572" transform="matrix(0.1296 -0.9916 0.9916 0.1296 1774.7112 906.6414)" class="st28" width="0.6" height="28.8"/>
<rect x="1403.5" y="-570.7" transform="matrix(0.1296 -0.9916 0.9916 0.1296 1773.407 907.7617)" class="st28" width="0.6" height="28.8"/>
<path class="st29" d="M1387-502.2l-28.5-3.7c-3.1-0.4-5.3-3.3-4.9-6.4l4.4-33.6c0.4-3.1,3.3-5.3,6.4-4.9l28.5,3.7
	c3.1,0.4,5.3,3.3,4.9,6.4l-4.4,33.6C1393-504,1390.2-501.8,1387-502.2z"/>
<path class="st29" d="M1435.7-496l-28.5-3.7c-3.1-0.4-5.3-3.3-4.9-6.4l4.4-33.6c0.4-3.1,3.3-5.3,6.4-4.9l28.5,3.7
	c3.1,0.4,5.3,3.3,4.9,6.4l-4.4,33.6C1441.7-497.8,1438.8-495.5,1435.7-496z"/>
<path class="st29" d="M1482.6-489.8l-28.5-3.7c-3.1-0.4-5.3-3.3-4.9-6.4l4.4-33.6c0.4-3.1,3.3-5.3,6.4-4.9l28.5,3.7
	c3.1,0.4,5.3,3.3,4.9,6.4l-4.4,33.6C1488.6-491.6,1485.7-489.4,1482.6-489.8z"/>
<rect x="1360.3" y="-499.7" transform="matrix(0.1296 -0.9916 0.9916 0.1296 1669.4708 928.7654)" class="st30" width="7" height="26.2"/>
<rect x="1393.9" y="-497" transform="matrix(0.1296 -0.9916 0.9916 0.1296 1692.0704 962.3265)" class="st30" width="0.6" height="28.8"/>
<rect x="1393.8" y="-495.8" transform="matrix(0.1296 -0.9916 0.9916 0.1296 1690.6923 963.3372)" class="st30" width="0.6" height="28.8"/>
<path class="st31" d="M1377.3-427.3l-28.5-3.7c-3.1-0.4-5.3-3.3-4.9-6.4l4.4-33.6c0.4-3.1,3.3-5.3,6.4-4.9l28.5,3.7
	c3.1,0.4,5.3,3.3,4.9,6.4l-4.4,33.6C1383.3-429.1,1380.5-426.9,1377.3-427.3z"/>
<path class="st31" d="M1426-421.1l-28.5-3.7c-3.1-0.4-5.3-3.3-4.9-6.4l4.4-33.6c0.4-3.1,3.3-5.3,6.4-4.9l28.5,3.7
	c3.1,0.4,5.3,3.3,4.9,6.4l-4.4,33.6C1432-422.9,1429.1-420.7,1426-421.1z"/>
<path class="st31" d="M1472.9-414.9l-28.5-3.7c-3.1-0.4-5.3-3.3-4.9-6.4l4.4-33.6c0.4-3.1,3.3-5.3,6.4-4.9l28.5,3.7
	c3.1,0.4,5.3,3.3,4.9,6.4l-4.4,33.6C1478.9-416.7,1476-414.5,1472.9-414.9z"/>
<rect x="1141.1" y="-511.7" transform="matrix(0.1296 -0.9916 0.9916 0.1296 1367.9221 969.4518)" class="st26" width="190.2" height="434.4"/>
<line class="st19" x1="1031.1" y1="-402" x2="1462.1" y2="-347.3"/>
<rect x="1354.3" y="-355.2" transform="matrix(0.1296 -0.9916 0.9916 0.1296 1503.7329 1112.3802)" class="st20" width="62.4" height="109.8"/>
<rect x="1344.5" y="-278.1" transform="matrix(0.1296 -0.9916 0.9916 0.1296 1417.7952 1169.9893)" class="st20" width="61.7" height="111.1"/>
<g>
	
		<rect x="1115.9" y="-420.6" transform="matrix(0.1296 -0.9916 0.9916 0.1296 1316.6864 921.3019)" class="st20" width="134.5" height="262.6"/>
	<polygon class="st32" points="1166.6,-316 1161.1,-272 1201.8,-289.2 	"/>
</g>
<ellipse transform="matrix(0.1296 -0.9916 0.9916 0.1296 1311.261 677.2615)" class="st24" cx="1041.4" cy="-408.3" rx="3.7" ry="3.7"/>
<ellipse class="st33" cx="1264.4" cy="1010.5" rx="247.7" ry="253.2"/>
<ellipse transform="matrix(0.1296 -0.9916 0.9916 0.1296 1320.9827 691.3305)" class="st25" cx="1054.3" cy="-406.8" rx="3.7" ry="3.7"/>
<ellipse transform="matrix(0.1296 -0.9916 0.9916 0.1296 1329.7585 704.9234)" class="st23" cx="1066.4" cy="-405" rx="3.7" ry="3.7"/>
<rect x="1098.5" y="-746.8" transform="matrix(0.1296 -0.9916 0.9916 0.1296 1694.3784 476.6971)" class="st20" width="40.5" height="40"/>
<rect x="1146.6" y="-740" transform="matrix(0.1296 -0.9916 0.9916 0.1296 1729.5093 530.3212)" class="st20" width="40.5" height="40"/>
<rect x="1194" y="-734.1" transform="matrix(0.1296 -0.9916 0.9916 0.1296 1764.9144 582.4642)" class="st20" width="40.5" height="40"/>
<line class="st19" x1="1263.7" y1="-764.5" x2="1390.1" y2="-748.2"/>
<line class="st19" x1="1262.6" y1="-757.4" x2="1328.8" y2="-748.8"/>
<line class="st19" x1="1261" y1="-750" x2="1327.8" y2="-741.4"/>
<line class="st19" x1="1253.9" y1="-693.1" x2="1380.3" y2="-676.7"/>
<line class="st19" x1="1252.6" y1="-685.6" x2="1379" y2="-669.2"/>
<line class="st19" x1="1252.4" y1="-679.5" x2="1378.8" y2="-663.1"/>
<rect x="1357.3" y="805.5" class="st10" width="117.4" height="204.5"/>
<rect x="1329.4" y="877" class="st23" width="49" height="51.1"/>
<ellipse class="st20" cx="1415.7" cy="863.6" rx="32.5" ry="33.4"/>
<g>
	<line class="st19" x1="1378.9" y1="928.8" x2="1499.9" y2="928.8"/>
	<line class="st19" x1="1378.2" y1="942.6" x2="1499.3" y2="942.6"/>
	<line class="st19" x1="1379.1" y1="956.3" x2="1500.2" y2="956.3"/>
	<line class="st19" x1="1378.6" y1="969.6" x2="1499.7" y2="969.6"/>
</g>
<g>
	<polyline class="st34" points="1342.1,899 1335.6,902.3 1342.3,906 	"/>
	<line class="st34" x1="1350.5" y1="893.9" x2="1354" y2="908.8"/>
	<polyline class="st34" points="1362.5,898.5 1368.9,901.8 1362.3,905.6 	"/>
</g>
<rect x="1388.5" y="-728.8" transform="matrix(0.1296 -0.9916 0.9916 0.1296 1943.7639 823.471)" class="st20" width="104.9" height="66.7"/>
<path class="st25" d="M1943.4,44.8l5.7,4.4c1.3,1.5,2.7,3.1,4,4.6c1.1,2,2.2,4,3.2,6.1c0.6,1.3,1.2,2.8,1.7,4.4
	c0.6,1.7,0.9,3.4,1.2,4.8c0.6,2.2,1.2,4.3,1.8,6.5c0.3,2,0.7,3.9,1,5.9c0.4,2.2,0.7,4.4,1.1,6.6c0.4,3.1,1.1,5.7,1.5,7.7
	c0.4,1.8,1,3.9,1.9,6.1c0.3,0.6,1,2.4,2.3,4.5c0.9,1.5,2.2,3.4,3.9,5.5c1.4,1.4,2.8,2.7,4.2,4.1c1.8,1.8,3.4,3.2,4.7,4.2
	c1.1,0.9,2.2,1.8,3.8,2.8c1.1,0.7,2.3,1.5,4,2.3c2.5,1.1,4.5,1.6,5,1.7c2.7,0.6,4.8,0.5,6.5,0.4s4-0.3,6.7-1.1
	c1.8-0.8,3.7-1.6,5.5-2.3c0.8-0.5,2-1.2,3.2-2.3c0.5-0.5,0.9-0.9,1.5-1.5c1.3-1.4,2.3-2.8,3.2-4c0.3-0.4,1.3-1.9,2.5-4.1
	c0.5-0.9,1.4-2.6,2.4-4.9c0.6-1.5,1.3-3.3,2-5.3c0.4-1.5,0.7-3.2,0.9-5.2c0.1-1.5,0.1-2.9,0.1-4.1c0-1.1,0-2.3,0-3.6
	c-0.1-1.4-0.2-2.7-0.4-3.9c-0.9-3.3-1.7-6.7-2.6-10l-4.3-8.5l-11.5-12l-12.7-10.2l-16.2-10l-8.1-5.7l-5.1-7.6l-4.6-12l-5-9.5
	l-5.5-4.8l-6.5-2.5h-3.8L1943.4,44.8z"/>
<g>
	<polygon class="st20" points="1151.3,762.7 1313.5,764.1 1311.5,814 1149.2,812.6 	"/>
	<polygon class="st35" points="1133,858.4 1137.5,746.8 1329.5,748.5 1325,860 	"/>
	<line class="st22" x1="1136.5" y1="752.6" x2="1329.3" y2="753.7"/>
	<polygon class="st23" points="1209.3,788.7 1229.4,788.9 1229.2,795 1209,794.8 	"/>
	<polygon class="st23" points="1233.6,788.7 1253.8,788.9 1253.5,795 1233.4,794.8 	"/>
	<line class="st19" x1="1187.8" y1="780.4" x2="1275.8" y2="781"/>
	<line class="st19" x1="1186.3" y1="822.2" x2="1274.3" y2="822.9"/>
	<line class="st19" x1="1186.2" y1="829.8" x2="1274.1" y2="830.4"/>
	<line class="st19" x1="1185.6" y1="837.5" x2="1273.5" y2="838.2"/>
	<line class="st19" x1="1185.8" y1="845.2" x2="1273.7" y2="845.8"/>
	
		<ellipse transform="matrix(0.9943 -0.1063 0.1063 0.9943 -73.2588 125.5591)" class="st24" cx="1141.2" cy="750" rx="1.7" ry="1.5"/>
	<ellipse transform="matrix(0.9943 -0.1063 0.1063 0.9943 -73.226 126.1757)" class="st25" cx="1147" cy="750" rx="1.7" ry="1.5"/>
	
		<ellipse transform="matrix(0.9943 -0.1063 0.1063 0.9943 -73.206 126.7503)" class="st23" cx="1152.4" cy="750.1" rx="1.7" ry="1.5"/>
</g>
<g>
	<g>
		<path class="st3" d="M1303.1,990c0-0.9,0.1-2.2,0.2-3.7c0.1-1.7,0.3-3,0.4-4.5c0.2-2,0.6-4.9,1.1-8.6c-0.7-0.2-1.4-0.3-2-0.5
			c-0.9-0.2-1.8-0.4-2.7-0.6c-0.6-0.3-1.2-0.5-1.9-1c-0.6-0.4-1.2-0.8-1.6-1.1c-0.6-0.6-1.2-1.1-1.8-1.7l-2.8-3.3l-1.8-3.4
			c-0.5-1.1-0.9-2.3-1.4-3.5c-0.2-1.6-0.4-3-0.6-4.6c0.2-1.6,0.5-3.2,0.7-4.9c0.3-0.9,0.4-1.8,0.6-2.9c0.2-0.7,0.7-1.5,1.3-2.3
			c0.3-0.5,0.7-0.8,1.1-1.1c0.4-0.6,0.8-1.3,1.2-1.8l2.7,0.7c1.1,0.1,2.1,0.2,3.2,0.1c1.4,0,2.8,0.3,4.3,0.4c2,0.1,3.9,0.1,5.8,0.1
			c2.3,0.3,4.7,0.7,7,1c1.3,1.1,2.5,2.3,3.8,3.4l2.7,3.1c0.9,1,1.8,1.9,2.7,2.9c0.5,0.1,1,0.2,1.6,0.3c0.6,0.7,1.3,1.3,1.9,2
			c0.1,0.8,0.2,1.5,0.1,2.3c-0.3,0.8-0.5,1.8-0.7,2.7c-0.9,0.6-1.8,1.4-2.7,2.1l-0.5,1.8l-0.4,2.9c-0.8,0.9-1.6,1.8-2.4,2.7
			c-1.1,9.3-1.5,13.1-1.4,14.3c0,0.2,0.1,0.9,0.1,1.9c0,1.1-0.1,1.3-0.1,2.2c0.1,1.1,0.3,1.1,0.3,1.8c0,0.5-0.3,1.2-1.2,2.1
			c-1.7,0.5-3.3,0.9-4.9,1.4c-1.4,0-2.9-0.1-4.3-0.2c-1.5,0.1-3.1,0.1-4.7,0.2C1304.1,990.9,1303.6,990.5,1303.1,990z"/>
		<path class="st8" d="M1296.6,951.1c-0.3,0.2-0.5,0.5-0.8,0.8c-0.2,0.3-0.5,0.5-0.6,0.8c-0.2,0.3-0.4,0.5-0.5,0.9s-0.3,0.8-0.4,0.9
			c0,0.2,0,0.5,0,0.9c0,0.3,0.1,0.5,0.3,0.8c0.1,0.3,0.3,0.5,0.6,0.8c0.2,0.3,0.5,0.5,0.7,0.6"/>
		<path class="st8" d="M1301.7,962.6l1-0.4l0.9-0.4c0.1-0.1,0.3-0.2,0.7-0.4c0.4-0.2,0.6-0.3,0.8-0.5c0.2-0.1,0.4-0.4,0.6-0.8"/>
		<g>
			
				<ellipse transform="matrix(8.064373e-02 -0.9967 0.9967 8.064373e-02 233.1171 2160.8008)" class="st9" cx="1287.9" cy="954" rx="1.8" ry="3.4"/>
			
				<ellipse transform="matrix(8.064373e-02 -0.9967 0.9967 8.064373e-02 250.3803 2183.8811)" class="st9" cx="1309" cy="956.2" rx="1.8" ry="3.4"/>
		</g>
		<path class="st0" d="M1288.6,943c-1.3-0.8-2.3-1.8-2.3-1.8c-0.5-0.5-1.2-1.2-1.8-2.3c-1-1.6-1.2-3-1.5-4c-0.3-1.4-0.5-2.8,0-4.3
			c0.2-0.7,0.7-2.2,2-3c1.2-0.7,2.3-0.6,3.5-0.5c2.1,0.2,4,0.9,5.1,1.3c1.2,0.5,2.1,1,3.3,1c0.3,0.1,1.8,0.1,2.1-0.5
			c0.2-0.5-0.7-0.9-1.3-2.4c-0.5-1-0.5-1.9-0.4-2.3c0-0.4,0-3.1,1.9-4.8c1.5-1.4,3.5-1.3,5.8-1.3c0.6-0.1,2.4,0,4.5,0.7
			c0.8,0.3,2.6,0.9,4.5,2.3c0.6,0.4,2.3,1.8,3.6,4.4c0.9,1.9,1.7,3.4,1.3,5.3c-0.1,0.6-0.4,1.4-0.2,1.6c0.3,0.2,0.8-0.8,2-1.4
			c1.3-0.6,2.6-0.6,3.3-0.5c1.4,0,2.5,0.7,2.9,0.8c1,0.5,1.7,1.2,3,2.5c1.2,1.1,1.9,1.8,2.5,3c0.7,1.2,0.9,2.3,1.1,3.1
			c0.2,0.7,0.5,2,0.4,4.8c-0.1,3.5-0.1,5.3-0.8,7c-0.8,1.9-1.5,2-2.2,4.2c-0.4,0.9-0.7,2.1-0.5,3.6s0.6,1.7,0.6,3.4
			c0.1,1.4-0.4,2.4-0.5,2.7c-0.4,0.8-0.7,1.8-1.7,2.2s-2,0-2.7-0.5c-1.6-1.1-2.1-3.8-0.9-5.6c0.6-0.8,1.1-0.5,1.9-1.5
			c1.2-1.3,1-3.3,1-4c-0.1-0.9-0.3-2-1.2-2.9c-1.1-1-2.3-0.6-3.3-0.7c-3.1-0.5-3.4-5.1-5.7-7.5
			C1312.1,939.3,1292.5,945.6,1288.6,943z"/>
		<path class="st0" d="M1322.3,969.3c-1.2,0.6-2.1,1.1-2.7,1.4c-1.3,0.8-1.4,0.9-2,1.2c-1,0.5-1.5,0.5-2.5,1.1
			c-0.7,0.3-1.2,0.7-1.5,0.9c0.2,0.3,0.7,0.8,1.4,1.4c0.7,0.6,1.1,0.7,2.1,1.5c0.9,0.6,1,0.7,1.7,1.3c0.5,0.5,1.4,1.1,2.6,1.6
			C1321.5,976.3,1321.9,972.8,1322.3,969.3z"/>
	</g>
	<g>
		<ellipse class="st0" cx="1312.2" cy="1160.3" rx="40.6" ry="8.5"/>
		<path class="st0" d="M1313.5,1168.6l19.7,60.8c0.3,1,1.4,1.5,2.4,1.2l0,0c1-0.3,1.5-1.4,1.2-2.4l-19.7-60.8
			c-0.3-1-1.4-1.5-2.4-1.2l0,0C1313.7,1166.5,1313.1,1167.6,1313.5,1168.6z"/>
		<path class="st0" d="M1310.9,1168.4l-19.7,60.8c-0.3,1-1.4,1.5-2.4,1.2l0,0c-1-0.3-1.5-1.4-1.2-2.4l19.7-60.8
			c0.3-1,1.4-1.5,2.4-1.2l0,0C1310.7,1166.3,1311.3,1167.4,1310.9,1168.4z"/>
		<line class="st4" x1="1301.1" y1="1190.2" x2="1327.1" y2="1206.4"/>
		<line class="st4" x1="1322.5" y1="1190.5" x2="1296.5" y2="1206.7"/>
	</g>
	<g>
		<path class="st0" d="M1136.2,1194.4c-0.1,1.1-0.1,2.1-0.2,3.1c0,0.4-0.1,1-0.3,1.7c-0.2,0.5-0.5,1-0.7,1.3
			c-0.4,0.3-0.9,0.6-1.4,0.9s-1,0.5-1.4,0.7c-1.1,0.3-2.2,0.6-3.3,0.9c-0.8,0.2-1.6,0.4-2.3,0.6c-0.5,0.1-1.2,0.2-1.9,0.5
			c-0.6,0.2-1.1,0.4-1.6,0.6c-0.2,0.4-0.5,0.8-0.7,1.2c-0.1,0.3-0.2,0.8-0.1,1.4s0.3,1.1,0.5,1.3c0.3,0.1,0.7,0.1,1,0.2
			c8.5-0.1,17-0.2,25.6-0.3c0.2-0.1,0.4-0.2,0.5-0.4c0.3-0.4,0.7-0.9,0.7-2.2c0.1-1.1-0.1-1.3-0.2-2.6c0-0.6,0-0.5,0.1-2.8
			c0.1-1.3,0-1.7,0.1-2.4c0-0.5,0.1-0.8,0-1c0-0.6,0.1-1.8,0.2-4.4C1145.8,1193.2,1141,1193.8,1136.2,1194.4z"/>
		<path class="st0" d="M1109.7,1134.3c-0.8,0.7-1.5,1.4-2.3,2.1c-0.3,0.3-0.8,0.7-1.4,1c-0.5,0.3-1,0.4-1.4,0.5
			c-0.5-0.1-1.1-0.2-1.7-0.4c-0.5-0.1-1.1-0.3-1.5-0.5c-1-0.6-2-1.1-3-1.7c-0.7-0.4-1.4-0.8-2.1-1.2c-0.4-0.3-1-0.6-1.7-0.9
			c-0.6-0.2-1.1-0.5-1.6-0.6c-0.5,0.1-0.9,0.3-1.3,0.4c-0.2,0.2-0.7,0.4-1,0.9c-0.4,0.5-0.6,1-0.6,1.3c0.2,0.2,0.4,0.5,0.5,0.8
			c6.3,5.9,12.5,11.8,18.8,17.6c0.2,0,0.4,0.1,0.7,0.1c0.5,0,1.1-0.2,2.1-1.1c0.8-0.7,0.8-1,1.7-2c0.4-0.4,0.3-0.4,2-2
			c0.9-0.9,1.2-1.2,1.7-1.7c0.3-0.4,0.6-0.6,0.7-0.7c0.5-0.4,1.3-1.3,3.2-3.1C1117.5,1140.1,1113.6,1137.2,1109.7,1134.3z"/>
		<polygon class="st18" points="1162.4,1113.4 1151.4,1195 1148.7,1195.4 1131.8,1197.3 1130,1125 1155.6,1104.8 		"/>
		<path class="st2" d="M1354,1099.1c-0.7,4-1.5,8-2.2,12l-2.6,8.3l-5.5,12l-3.4,6.1l-4.7,5.8l-4.9,5.3l-3.7,3l-4.5,2.6l-5.5,2.5
			l-4.1,1.2l-5.9,0.3l-6.6-0.5l-6.5-1.7l-7.2-2.2l-7.6-3.2l-22-11.6l-19.6-12.5l-23.2-16.3l-11.3-7.2l-3.3-1.6l-2.4-0.3l-3,0.3
			l-4.1,1.1l-4.7,1.7l-9.2,4.3l-11.9,6.6l-5.7,3.3l-9.3,6.3l-30.4,20.7l-0.9-0.3l-0.9-2l-7.9-8.2l2.2-4.1l7.8-12.6l7.2-10l6.7-9.2
			l6.8-8.8l14.9-16.3l8.7-7.9l6.2-4.3l30.3-6.2l21.9,3.2l13.4,1.8c7.3,2.9,14.7,5.7,22,8.6c9.4,4.4,19.4,8.8,29.8,13.1
			c6.5,2.7,12.9,5.2,19.2,7.5c4.8,1.3,9.5,2.6,14.3,4c5.1,1.2,10.5,2.4,16.2,3.3C1342.9,1097.9,1348.6,1098.6,1354,1099.1z"/>
	</g>
	<g>
		<g>
			<path class="st3" d="M1372.4,1036.5l4.7,28.6l1.2,14v9.8c-0.5,1.2-0.9,2.3-1.4,3.5c-0.5,0.7-1.1,1.4-1.6,2.1l-1.9,1.4l-1.9,0.9
				l-4.4,1.4l-3.9,0.7l-6,0.7c-2.2,0-4.3,0.1-6.5,0.1c-2.5-0.3-5-0.6-7.5-1c-2.6-0.4-5.3-0.8-7.9-1.2c-3.5-0.8-7.1-1.7-10.7-2.6
				c-3.8-1-7.6-2-11.3-3c-3.9-1.3-7.7-2.6-11.6-3.9l-18.1-6.7l-38.3-16.9c-1.5-0.6-2.9-1.2-4.4-1.8c3.6-11.6,7.3-23.2,10.9-34.8
				l18.6,5.4l-0.9,15.6v8.4v5.8l7.5,2.5l19.1,3l16.9,2.6l15.6,1.1c3.9,0.1,7.9,0.2,11.8,0.3c1.6-0.1,3.2-0.2,4.8-0.4
				c0.1,0,0.4-0.1,0.7-0.4c0.2-0.2,0.3-0.4,0.3-0.6c0.1-0.2,0.2-0.6,0.2-1.1c0-0.8,0-1.6-0.1-2.4c-0.1-1.6-0.4-3-0.6-4.3
				c-1.5-5.9-3.1-11.9-4.6-17.8c-0.1-0.7-0.1-1.4-0.2-2.1L1372.4,1036.5z"/>
			<path class="st19" d="M1271.2,1063.9c-1.3-0.3-2.5-0.6-3.8-1c-0.9-0.3-1.9-0.7-2.8-1c-1-0.5-2.1-1.1-3.1-1.6
				c-1.2-0.8-2.4-1.6-3.6-2.4c-0.7-0.4-1.5-0.7-2.2-1.1c-1-0.1-2.1-0.1-3.1-0.2l-2.8,0.9l-1.5,1.2l-1.7,2l-1.2,1.8
				c-0.2,0.5-0.3,1-0.5,1.5"/>
		</g>
		<g>
			<path class="st1" d="M1356,987.2c0.8,1.2,1.6,2.3,2.4,3.5c1.2,2.5,2.3,5,3.5,7.5c0.9,2.4,1.8,4.8,2.6,7.3l2.1,7l3,12.6l1.6,6.8
				l1.2,4.6l-31.3,7.2l0.5,2.6l1.8,6.8l3.2,12.5c0.4,1.4,0.8,2.9,1.1,4.3c0,1.4,0,2.8,0,4.2c-1.1,0-2.2,0-3.2,0
				c-2.2-0.2-4.5-0.4-6.7-0.5l-10.4-0.4l-12.1-1.1l-22.1-2.5l-12.8-2.8l-11.4-1.9l-0.4-8.4l1.9-23l-18.8-4.6l0.7-3.7l4.4-10.2
				l3.6-8.6l6.5-13.9l4-5.3l4.8-2.4l7.3-2.2l8-1l10.4-0.7c0.7,0,1.5,0.1,2.2,0.1c-0.2,2.6-0.3,5.1-0.5,7.7c0.4,0.5,0.8,0.9,1.2,1.4
				c0.4,0.3,0.9,0.7,1.7,1.1c0.7,0.3,1.3,0.4,3.3,0.4s3.6-0.1,4.6-0.2c1-0.1,1.9-0.1,2.4-0.2c0.6-0.1,1.3-0.3,2-0.6
				c0.3-0.1,0.6-0.3,0.9-0.5c0.3-0.5,0.7-1.1,1.1-1.9c0.2-0.6,0.4-1.2,0.4-1.6c0-1.9-0.1-3.8-0.1-5.7c2.8,0.1,5.6,0.3,8.3,0.4
				l11.1,0.7l6.6,1.1l3.9,0.8c1,0.5,2,0.9,3,1.4C1354.3,986,1355.2,986.6,1356,987.2z"/>
			<polyline class="st19" points="1341.1,1043.7 1339.7,1039.4 1338.8,1035.2 1338.2,1029.2 			"/>
			<polyline class="st19" points="1270.9,1033.2 1271.4,1029.5 1272.5,1023.1 1273.9,1016.6 1275.7,1008.2 1277.1,1002.1 
				1278.8,998.4 			"/>
		</g>
	</g>
	<g>
		<g>
			<path class="st0" d="M1159.7,1028.7c4,12.8,8,25.6,11.9,38.4l111.1-0.1l-0.2-3.1l-42,0.2l-12-38.2l-0.7-1.7
				c-0.1-0.2-0.3-0.5-0.6-0.7c-0.3-0.3-0.7-0.5-0.9-0.5c-0.3-0.1-0.7-0.3-1.2-0.5c-0.6-0.1-1.2-0.2-1.5-0.2c-20.3,0-40.6,0-60.8,0
				c-0.3,0-0.8,0.1-1.3,0.3s-0.8,0.5-1,0.7c-0.4,0.4-0.6,0.7-0.7,1.1c-0.1,0.3-0.4,0.8-0.4,1.3c0,0.4,0,0.8,0,1.2
				C1159.5,1027.5,1159.6,1028.2,1159.7,1028.7z"/>
		</g>
		<ellipse class="st10" cx="1196.9" cy="1044.4" rx="4.5" ry="4"/>
	</g>
</g>
<g>
	
		<ellipse transform="matrix(0.6483 -0.7614 0.7614 0.6483 -530.0945 1220.4529)" class="st25" cx="1056" cy="1184" rx="25.7" ry="86.8"/>
	
		<ellipse transform="matrix(0.949 -0.3152 0.3152 0.949 -301.2997 399.1111)" class="st36" cx="1083.3" cy="1131.1" rx="31.7" ry="115.4"/>
</g>
<path class="st37" d="M13.7,285.2L2.4,98.7C0,58.2,19.5,23,44.7,22.3c168.5-4.6,337-9.3,505.5-13.9c26.5-0.7,47.2,36.3,44.1,78.6
	l-26.4,354.2c-3.4,45.9-28,80.1-56.7,78.9C363,514,214.7,507.9,66.5,501.8c-22.7-0.9-41.5-29-43.7-65.5L13.7,285.2"/>
<g>
	<path class="st38" d="M1918.6,216.9c0-0.2,0-0.3,0.1-0.5l-0.1-0.5l-0.3-0.5l-0.3-0.4l-0.5-0.4l-0.5-0.3l-0.9-0.2h-0.3h-0.4
		l-0.4,0.1l-0.4,0.2l-0.3,0.2l-0.3,0.3l-0.5,0.6l0.3-1.2l0.2-1.5v-1.7l-0.2-1.8l-0.3-1.5l-0.5-1.9l-0.7-1.8l-0.8-1.8l-0.1-0.8
		l0.1-0.7l0.3-0.6l0.4-0.6l0.3-0.2l0.4-0.2l0.5-0.1l0.5-0.1l0.6,0.1l0.6,0.2l0.4,0.3l0.4,0.3l0.2,0.3l0.3,0.5l0.4,0.8l0.4,1l0.5,1.2
		l0.4,1.3l0.3,1.4l0.2,1.1l0.3,2.1l0.1,2.2v1.6l-0.1,1.7C1918.8,215.7,1918.7,216.3,1918.6,216.9z"/>
	
		<ellipse transform="matrix(0.2866 -0.9581 0.9581 0.2866 1148.8099 1965.7288)" class="st39" cx="1894.3" cy="211.5" rx="11.8" ry="11.2"/>
	<polygon class="st40" points="1901.7,193.9 1902.4,194 1902.9,193.9 1903.5,193.7 1904,193.4 1904.4,193 1904.7,192.6 
		1904.9,192.1 1905,191.6 1905,191.2 1905,190.7 1904.9,190.3 1904.7,189.9 1904.4,189.5 1904,189.1 1903.5,188.8 1900.8,187.9 
		1897.6,187.3 1894.2,187.1 1891.7,187.3 1888.6,187.8 1886.4,188.5 1883.9,189.5 1881.3,190.8 1878.6,192.7 1876.4,194.8 
		1874.4,197.1 1872.5,200.1 1871.4,202.4 1870.4,205.2 1869.8,208.5 1869.5,211.7 1869.6,214.5 1870.2,218.6 1870.9,220.5 
		1871.9,223 1872.6,224.2 1873.7,224.9 1874.8,225 1875.2,224.9 1876.1,224.5 1876.8,223.8 1877.1,223.4 1877.2,222.7 1877.2,222 
		1877.2,221.7 1876.6,220.3 1875.8,218.3 1875.1,215.6 1874.9,212.3 1875,209.2 1875.7,206.3 1877,203 1879.1,199.9 1881.7,197.2 
		1884.9,195 1888.2,193.5 1891.6,192.8 1894.8,192.5 1898,192.9 	"/>
	<path class="st41" d="M1876.8,221c-0.1-0.1-0.1-0.2-0.2-0.3s-0.2-0.2-0.2-0.2c-0.1,0-0.1-0.1-0.2-0.2c-0.1,0-0.1-0.1-0.2-0.1
		s-0.2-0.1-0.3-0.1c-0.1,0-0.2-0.1-0.3-0.1c-0.1,0-0.2,0-0.3-0.1c-0.1,0-0.2,0-0.3,0c-0.1,0-0.2,0-0.3,0c-0.1,0-0.2,0-0.3,0
		c-0.1,0-0.3,0.1-0.4,0.1s-0.2,0.1-0.3,0.1c-0.1,0-0.2,0.1-0.3,0.1c-0.1,0.1-0.2,0.1-0.2,0.2c-0.1,0.1-0.1,0.1-0.2,0.2
		c-0.1,0.1-0.2,0.2-0.2,0.3l-0.3,0.4l-0.2,0.4l-0.1,0.4l-0.1,0.5v0.5l0.2,0.6l1.5,2.4l2.1,2.5l2.5,2.3l2.1,1.5l2.7,1.6l2.1,0.8
		l2.5,0.8l2.9,0.7l3.3,0.2l3-0.1l3.1-0.5l3.3-1.1l2.4-1.1l2.5-1.4l2.6-2.2l2.3-2.3l1.7-2.2l2.1-3.6l0.7-1.8l0.8-2.6
		c0.1-0.2,0.1-0.5,0.2-0.8c0-0.2,0.1-0.3,0.1-0.5c-0.1-0.2-0.2-0.5-0.3-0.7c-0.1-0.2-0.2-0.4-0.2-0.6c-0.1-0.1-0.2-0.3-0.3-0.5
		c-0.1-0.2-0.3-0.3-0.4-0.3c-0.1-0.1-0.3-0.2-0.4-0.3s-0.3-0.1-0.5-0.1s-0.4-0.1-0.5-0.1s-0.3,0-0.4,0c-0.2,0-0.3,0-0.5,0.1
		s-0.3,0.1-0.5,0.2c-0.1,0.1-0.3,0.2-0.4,0.3s-0.2,0.2-0.3,0.3c-0.1,0.1-0.2,0.2-0.3,0.3c0,0.1-0.1,0.2-0.1,0.2
		c-0.1,0.5-0.3,1-0.4,1.5l-0.7,2l-1.2,2.5l-1.9,2.7l-2.1,2.3l-2.4,1.8l-3.1,1.7l-3.6,1.1l-3.6,0.4l-3.9-0.3l-3.5-1l-3.1-1.6
		l-2.6-1.8l-2.3-2.3L1876.8,221z"/>
</g>
<image style="overflow:visible;enable-background:new    ;" width="4268" height="3200" xlink:href="../../DrawKit_0042_Product_Project_Managers_Illustrations/DrawKit Vector Illustration Project Manager/PNG/DrawKit Vector Illustration Project Manager (7).png"  transform="matrix(0.24 0 0 0.24 -344.2904 -1259.2621)">
</image>
<path class="st0" d="M1386.1,975.5"/>
<ellipse transform="matrix(0.9736 -0.2284 0.2284 0.9736 -238.7592 372.3224)" class="st25" cx="1489.3" cy="1217.7" rx="40.5" ry="12"/>
<ellipse transform="matrix(0.7614 -0.6483 0.6483 0.7614 -406.0473 1254.6111)" class="st25" cx="1501.3" cy="1178.9" rx="76.4" ry="22.6"/>
<ellipse transform="matrix(0.3152 -0.949 0.949 0.3152 -54.4755 2185.2529)" class="st36" cx="1487" cy="1130.4" rx="115.4" ry="31.7"/>
<polygon class="st25" points="1719.1,1.5 1711.7,5.4 1702.3,12 1695.4,20.1 1691.5,26.9 1687.4,36.1 1686.2,43.3 1685.5,51.8 
	1687,60.2 1689.6,66 1694.3,72.3 1700.5,76.6 1711.5,81.3 1721.5,82.5 1735.2,81.9 1744.2,78.8 1753,73.5 1759.4,67.4 1768,57.2 
	1774.9,47.1 1780.9,30.6 1783.5,18.5 1789,-1.3 1726.3,-2.6 "/>
<g>
	<rect x="1069.3" y="879" class="st10" width="81.8" height="147.5"/>
	
		<rect x="1077" y="894.1" transform="matrix(1.547509e-02 -0.9999 0.9999 1.547509e-02 165.4627 2024.8971)" class="st42" width="68" height="68.7"/>
	<polygon class="st5" points="1111.2,913.1 1092.5,944.7 1129,945.1 	"/>
	
		<rect x="1074.9" y="970" transform="matrix(1.547509e-02 -0.9999 0.9999 1.547509e-02 88.3958 2050.5076)" class="st20" width="21" height="20.7"/>
	
		<rect x="1100" y="970.8" transform="matrix(1.547509e-02 -0.9999 0.9999 1.547509e-02 112.3545 2076.3411)" class="st20" width="21" height="20.7"/>
	
		<rect x="1124.9" y="971" transform="matrix(1.547509e-02 -0.9999 0.9999 1.547509e-02 136.5785 2101.4021)" class="st20" width="21" height="20.7"/>
	<g>
		<line class="st19" x1="1078.2" y1="995.9" x2="1145" y2="996.1"/>
		<line class="st19" x1="1077.6" y1="1003.5" x2="1144.9" y2="1003.5"/>
	</g>
</g>
<g>
	<g>
		<path class="st3" d="M305.6,322.4c-1,0.7-2.5,0.4-2.9,0.3c-0.7,0.7-2.2,2-4.4,2.8c-2.7,0.9-5,0.6-6,0.4c-1-0.5-2-1.2-3-1.9
			c-1.1-0.7-2.1-1.5-3-2.3c-1.7-1.7-3.2-2.9-4.2-3.6c-2.1-1.5-3-1.6-4-3c-1.3-1.8,0-3.2-1.3-4.9c0,0-1-1.3-0.8-2
			c0.1-0.5,0.3-0.9,0.3-0.9s0-0.2,0.1-0.3c0.5-1,2.7-1.8,2.7-1.8c1-0.4,1.6-4.1-0.6-18.5c-1.2-1.3-1.8-2-2.2-2.3
			c-0.1-0.1-0.5-0.4-0.9-0.9c-0.2-0.2-0.3-0.5-0.4-0.6c-0.1-0.2-0.1-0.5-0.2-0.7c-0.3-1.2-0.5-2.4-0.5-3.4l-0.7-2.5
			c-1.2-1-2.5-2-3.8-2.9c-0.4-1.3-0.7-2.6-1.1-3.8c0-1.2,0.1-2.2,0.2-3.3c0.9-0.9,1.8-1.9,2.7-2.8c0.8-0.1,1.5-0.2,2.2-0.4
			c1.3-1.4,2.5-2.7,3.8-4.1l3.8-4.4c1.8-1.6,3.5-3.3,5.3-4.9c3.4-0.4,6.8-1,10-1.5c2.7-0.2,5.4-0.2,8.2-0.3c2-0.2,4-0.5,6-0.6
			c1.5,0,3-0.1,4.5-0.2l3.8-1.1c0.6,0.8,1.1,1.8,1.7,2.6c0.5,0.4,1.1,0.8,1.5,1.5c0.9,1.1,1.6,2.3,1.9,3.2c0.2,1.4,0.5,2.7,0.9,4
			c0.3,2.3,0.7,4.6,1,6.8c-0.4,2.2-0.7,4.2-0.9,6.5c-0.7,1.7-1.3,3.3-2,4.9l-2.5,4.9l-3.9,4.7c-0.8,0.8-1.7,1.6-2.5,2.4
			c-0.7,0.5-1.5,1-2.3,1.6c-1,0.7-1.9,1-2.7,1.4c-1.2,0.2-2.5,0.6-3.8,0.9c-0.9,0.3-2,0.5-2.9,0.8c-1.3,8.6,0,11.3,1.4,12.1
			c0.7,0.4,2.5,1,2.7,2.3c0.1,0.5-0.1,0.8-0.1,2c0,1,0.2,1.6,0.2,1.9c0.1,1,0,2.6-1.5,5.4C307,318.4,306.6,321.1,305.6,322.4z"/>
		<path class="st8" d="M315.2,269.9c0.3-0.1,0.7-0.3,1-0.8c0.5-0.5,0.7-0.8,0.9-1.2c0.2-0.4,0.4-0.7,0.4-1.1c0.1-0.5,0-1,0-1.3
			c-0.1-0.2-0.3-0.8-0.5-1.3c-0.2-0.5-0.5-0.8-0.8-1.2c-0.2-0.4-0.6-0.7-0.9-1.1c-0.5-0.4-0.8-0.8-1.2-1.1"/>
		<path class="st8" d="M301.4,273.7c0.3,0.5,0.7,1,0.9,1.1c0.3,0.2,0.6,0.4,1.2,0.7c0.5,0.3,0.9,0.5,1,0.6l1.2,0.5l1.4,0.5"/>
		<g>
			
				<ellipse transform="matrix(0.996 -8.935986e-02 8.935986e-02 0.996 -22.3498 30.2155)" class="st9" cx="326.3" cy="264.7" rx="4.8" ry="2.5"/>
			
				<ellipse transform="matrix(0.996 -8.935986e-02 8.935986e-02 0.996 -22.7664 27.56)" class="st9" cx="296.4" cy="268" rx="4.8" ry="2.5"/>
		</g>
		<path class="st0" d="M284.3,252.9c-3.3,3.4-3.6,9.9-8,10.6c-1.4,0.3-3.2-0.3-4.7,1.1c-1.2,1.2-1.5,2.8-1.6,4.1
			c-0.1,1-0.3,3.8,1.4,5.6c1.1,1.3,1.9,0.9,2.7,2c1.7,2.4,1,6.3-1.2,7.9c-1,0.7-2.4,1.2-3.8,0.7s-1.9-1.8-2.4-3
			c-0.1-0.4-0.8-1.8-0.7-3.8c-0.1-2.3,0.6-2.7,0.8-4.8c0.2-2-0.3-3.7-0.8-5c-1-3.2-2-3.2-3.2-5.9c-1.1-2.4-1.1-4.9-1.3-9.9
			c-0.1-3.9,0.3-5.8,0.5-6.8c0.3-1.2,0.7-2.7,1.6-4.4c0.7-1.7,1.7-2.7,3.4-4.3c1.8-1.9,2.6-2.8,4.1-3.6c0.6-0.2,2.1-1.1,4.1-1.2
			c1.1-0.1,2.9-0.1,4.7,0.7c1.7,0.8,2.5,2.1,2.9,1.9c0.3-0.2-0.1-1.3-0.3-2.2c-0.6-2.6,0.5-4.8,1.8-7.5c1.8-3.7,4.2-5.7,5-6.3
			c2.6-2.1,5.1-3,6.3-3.4c2.9-1,5.4-1.2,6.3-1.1c3.3-0.1,6.1-0.2,8.2,1.8c2.7,2.4,2.7,6.2,2.7,6.7c0,0.6,0,1.8-0.6,3.3
			c-0.8,2.1-2.1,2.7-1.8,3.4c0.4,0.8,2.6,0.8,3,0.7c1.8-0.1,3-0.8,4.7-1.5c1.6-0.6,4.2-1.7,7.2-1.9c1.7-0.1,3.2-0.2,4.9,0.7
			c1.9,1.1,2.6,3.3,2.9,4.2c0.7,2.2,0.5,4.1,0.1,6.1c-0.3,1.4-0.6,3.4-2,5.7c-0.9,1.4-1.9,2.5-2.6,3.2c0,0-1.5,1.5-3.3,2.6
			C319.9,253,292,244.3,284.3,252.9z"/>
		<path class="st0" d="M280.1,301.9c1.8-0.7,3-1.6,3.7-2.3c0.9-0.8,1.1-0.9,2.3-1.8c1.5-1.1,2-1.3,3-2.1s1.7-1.5,2-2
			c-0.5-0.3-1.2-0.7-2.2-1.2c-1.5-0.8-2.1-0.9-3.6-1.5c-1-0.5-1.1-0.6-2.9-1.7c-0.9-0.4-2.2-1.2-3.9-2
			C279,292.3,279.6,297.2,280.1,301.9z"/>
	</g>
	<g>
		<polyline class="st3" points="300.2,472 300.8,471.4 293.6,469.4 290.6,469.7 286.5,473.1 283.3,482.2 284.8,491.9 291.6,493.1 
			296.5,493.9 301.6,496.3 307,500 309,500.7 309.3,498.1 309.2,491.3 309.5,486.5 308.1,484.5 303.8,480.6 301,478.4 300.4,476.9 
			300.4,471.8 		"/>
		<path class="st2" d="M341.8,429.4l-5.5,0.9l-9.6,2.5l-7.5,0.8c-2.1-0.1-4.3-0.1-6.4-0.1c-2.1-0.1-4.2-0.2-6.3-0.3
			c-2.4-0.1-4.9-0.1-7.3-0.2c-1.5,0-3.2,0-4.9-0.1c-1.2-0.1-2.4-0.2-3.5-0.3c-1.9-0.3-3.9-0.6-5.9-0.9c-2.6-0.5-5.3-1.1-8-1.6
			l-6.1-1.6l-7.8-3.3l-6-2.7l-2.4-1.6l-0.8-0.7l-1,2l-1.9,4.5l-2.5,2.7l-1.8,1.1l-2,1.3l-2.5,1.1l-14.9,0.1l-12,1.1l-16,2.7
			l-11.2,2.9l-4.2,1.5l-5.5,2.8l-5.3,3.7l-3.1,4.3l-1.6,3.3l-1,3.6l-0.6,5.2l0.3,3.9l1.1,3.8l3,4.7l3.1,2.8l5,3.3l6.4,2.9l7,2.4
			l10.9,2.1l13.4,1.3l27,1.8l22.9,1.1l18.9,0.9l1.5,0.5l1.1-0.2l1.4-0.9l1.2-0.6l0.2-0.5l-4-0.6l-1.6-0.1v-0.6l0.2-5.5l0.4-2.5
			l0.6-2.7l0.8-2.9l1.1-2.4l1.2-2.2l1.6-2.4l1-1.1l0.4-0.4h0.3l1,0.5l1.9,0.7l4.4,0.6l3.7-0.2l3.3-1.1l3.3-0.9l2.3,0.6l7.2,4.8
			l5.2,2.8l3.7,0.7l5.8,1l5.5,1.8l4.5,2.1l3.1-0.2l12.4-0.4l11.5-0.7l8.6-0.6l10.6-1.3l8.5-1.8l6.5-2.2l6.1-3.2l3.8-3.1l3.4-4
			l1.7-3.3l1-4.7l0.1-6.2l-0.8-5l-2.6-4.3l-3.7-3.8l-5.7-3.8l-6-2.5l-7.8-1.9l-6.6-0.9l-11.5-0.1l-13.9-0.7l-9.3-0.8l-5.3-0.8
			L341.8,429.4z"/>
		<path class="st43" d="M284.7,462.5c0.8-0.4,1.6-0.9,2.4-1.3l12.6-6.3l16-7l11.3-4.3l7.8-2.7l9.4-2.7l11.3-2.4l5.3-0.8l6.3-0.6
			l6.7-0.5h6.3"/>
		<polyline class="st43" points="300.1,470 296.2,467.8 283.6,461.5 267.6,454.5 256.3,450.3 248.5,447.6 239.1,444.9 227.7,442.5 
			222.4,441.6 216.1,441.1 209.4,440.6 203.1,440.6 		"/>
		<path class="st43" d="M417.1,467.7c-0.1,0-0.4,0.1-0.7,0.2c-0.5,0.1-0.6,0.2-0.8,0.2c-0.2,0-0.5,0-0.9,0c-0.5,0-0.9-0.1-1.2-0.2
			c-0.1,0-0.5-0.1-1-0.4c-0.2-0.1-0.5-0.3-0.8-0.5c-0.4-0.3-0.7-0.5-0.9-0.8c-0.2-0.2-0.5-0.5-0.7-0.8c-0.3-0.3-0.5-0.6-0.7-0.9
			c-0.2-0.4-0.4-0.8-0.6-1.2c-0.2-0.3-0.3-0.7-0.4-1c-0.2-0.3-0.3-0.7-0.4-1.1s-0.2-0.7-0.3-1.1c-0.1-0.5-0.1-1.1-0.2-1.6
			c0-0.5-0.1-0.9-0.1-1.4c0-0.6,0-1.3,0-1.9c0-0.8,0.1-1.5,0.1-2.2l0.4-3.4l0.6-2.4c0.2-0.5,0.4-1.1,0.6-1.6c0.3-0.6,0.7-1.1,1-1.6
			c0.2-0.3,0.4-0.5,0.7-0.8c0.3-0.3,0.6-0.4,0.8-0.6c0.3-0.2,0.6-0.3,1-0.5c0.2-0.1,0.5-0.2,0.8-0.3c0.3-0.1,0.6-0.1,1.1-0.1
			c0.3,0,0.6,0,1,0s0.8,0.1,1.2,0.2c0.3,0.1,0.5,0.1,0.7,0.2"/>
		<path class="st43" d="M171.4,476.2c0.8,0.1,1.5,0.3,2.3,0.5c0.9,0,1.6-0.2,2-0.3c0.2,0,0.6-0.2,1.1-0.4c0.3-0.1,0.6-0.3,0.9-0.5
			c0.4-0.3,0.7-0.5,1-0.8c0.3-0.2,0.5-0.5,0.8-0.8c0.2-0.3,0.5-0.6,0.7-0.9c0.3-0.4,0.5-0.8,0.7-1.2c0.1-0.3,0.3-0.7,0.4-1
			c0.1-0.3,0.3-0.7,0.4-1.1c0.1-0.4,0.2-0.7,0.3-1.1c0.1-0.5,0.1-1.1,0.2-1.6c0-0.5,0.1-0.9,0.1-1.4c0-0.6,0-1.3,0-1.9
			c0-0.8-0.1-1.5-0.1-2.2l-0.4-3.4l-0.6-2.4c-0.2-0.5-0.5-1.1-0.7-1.6c-0.4-0.6-0.7-1.1-1.1-1.6c-0.2-0.3-0.5-0.5-0.8-0.8
			c-0.3-0.3-0.5-0.4-0.8-0.6c-0.2-0.2-0.6-0.3-1-0.5c-0.2-0.1-0.5-0.2-0.9-0.3s-0.7-0.2-1.3-0.2c-0.5,0-0.8,0-1.1,0s-0.8,0-1.4,0.2"
			/>
		<path class="st0" d="M311.3,469.4c-1.5,0.4-3,0.7-4.5,1.1l-6,0.7l-0.1,3.2l0.1,3.8l3.2,3.2l2,1.8l2.7,2.6l0.2,3.8
			c-0.2,2-0.3,4-0.5,6c0,1.7,0.1,3.4,0.2,5.1c4.5,2.9,9.1,5.8,13.6,8.7l6,3.4l4.2,1.9l3.8,0.6l3.8-0.4l2.9-0.7l2.7-1.7l2.9-2.4
			l1.6-2l1.6-3.7l0.7-2.9l-0.1-4.3l-0.6-3.3l-1.1-3.8l-2.4-3.5l-2.4-2.5l-2.1-1.6l-4.6-1.9l-5-1.4l-4.4-0.7l-4.2-1l-3-1.4
			c-1.9-1.3-3.8-2.5-5.7-3.8c-1-0.8-2-1.5-3-2.2C312.8,469.8,311.8,469.6,311.3,469.4z"/>
	</g>
	<g>
		<polygon class="st3" points="378.6,314.1 373.8,316.2 365.5,317.1 360.2,317 360.3,315.7 360.2,315.2 360.3,313.8 360.1,310.5 
			359.6,308.8 358.7,306 357.6,303.3 356.3,299.3 355.6,296.3 355.1,292.3 355,287.5 355.2,285.1 356,281.3 357.6,278.1 359,276.2 
			362.2,273.8 363.5,273.4 365.1,273.3 366.1,273.6 366.4,274.2 366.5,275.2 366.2,275.9 365.1,277.7 364.6,278.2 363.8,279.5 
			363.2,280.2 362.6,281.4 362.1,282.8 361.8,284.6 362.2,286.4 363,287.6 364.2,288.7 365.3,289.3 366.9,289.5 368.1,289.1 
			369.4,288.4 370.5,287.6 371.2,286.7 371.8,285.7 371.9,284.2 371.8,282.1 370.7,280.3 369.7,278.9 368.5,277.7 368.1,277.1 
			367.8,276.4 367.8,275.6 368,274.7 368.3,274.3 368.9,273.8 369.9,273.8 371.2,274.2 372.7,274.9 374.3,276.1 375.5,277.3 
			376.9,279.5 377.9,281.9 378,283.9 378.1,285.5 378.5,285.6 379.1,285.4 380.3,284.1 381.7,282.5 382.8,280.4 383.8,278.3 
			384.5,275.9 384.6,273.4 384.9,271.3 384.8,269.2 385.6,268.7 386.5,268.4 388.1,268.9 389.1,270.6 389.7,273.3 389.7,277.9 
			389.6,280.5 389,283 388.5,284.5 388.7,285.2 389,284.7 391.4,278.6 392.2,276.5 393,275.9 394.2,276 395.1,277.7 395.3,280.3 
			394.8,285.2 393.5,289.5 392.1,291.7 389.9,294.6 388.4,296.4 386.6,297.8 384.6,299.5 383.1,300.5 381.4,302.1 380.8,302.8 
			379.8,304.6 379.6,305.9 379.4,308.4 379.8,312.2 		"/>
		<polygon class="st3" points="218.3,320.4 199.9,319.2 199.9,316.5 200,313.6 200,311.8 200,309.7 199.3,307.7 198.6,306.1 
			197.5,304.9 196.8,304.4 195,303.6 192.3,302.9 189.6,302.3 187.2,301.8 185.1,300.9 183.1,299.9 181.5,298.5 180.1,297.2 
			178.9,295.8 176,292.3 173.5,288.9 172.2,287.4 171.2,285.4 170.7,284.1 170.6,283.1 170.7,282.3 170.9,281.8 171.4,281.7 
			172,281.7 177.4,285.7 179.4,287.2 180.2,287.1 180.2,286.4 180,284.7 179.5,282.5 179.2,279.1 179.2,276.7 179.5,275.1 
			180.2,273.5 181.2,272.1 182.3,271.2 183.4,271.1 184.2,271.3 184.1,275.4 184.2,278.6 184.6,280.9 185.2,282.6 186.4,284.6 
			187.4,285.7 188.2,286.3 188.8,286.2 188.9,284.9 188.9,283.4 189,282.4 189.3,280.8 190,279.3 191,277.4 192.2,276 193.5,275 
			194.5,274.7 195.9,274.8 196.8,275.5 196.9,276.2 196.7,277.4 195.9,278.9 195.3,280.4 194.8,282.2 194.9,284.1 195.2,285.6 
			195.7,286.8 196.5,287.8 197.4,288.8 198.5,290 200.1,290.5 201.6,290.5 202.9,290.3 203.9,289.8 204.8,289.2 205.5,288.3 
			206.1,287.3 206.4,286.4 206.2,284.5 205.2,282 203.8,280 201.4,277.7 199.3,276 198.3,275.1 197.8,274.3 197.8,273.5 
			197.9,272.8 198.8,272.2 200,272.1 201.6,272.2 204.1,273.2 206.2,274.5 208.4,276.1 212,279.2 214.1,281.6 215.4,283.5 
			217,286.8 218.1,290.4 218.8,294.2 218.9,297.3 219.2,311.7 219.1,316 		"/>
		<g>
			<path class="st1" d="M351.4,428.7c0,0.8-1.4,1.9-3.4,1.9l-6.9,1.7l-5.3,0.7l-5.6,0.3l-10.1,0.5c-0.8,0.1-3.4,0.2-6.2,0.2
				c-1.6,0-3.2,0-4.6,0c-1.3,0-2.5-0.1-3.2-0.1c-0.9,0-1.7-0.1-2.5-0.1c-1.1,0-2.3,0-3.4,0c-1,0-2.1,0-3.1,0
				c-1.6-0.2-3.3-0.4-5.1-0.7c-1.3-0.2-2.6-0.4-3.8-0.6c-1.5-0.2-2.9-0.5-4.3-0.8c-1.1-0.1-2.7-0.4-4.6-0.8s-3.3-0.8-5.6-1.5
				c-2.1-0.6-3.6-1.1-4.9-1.5c-2.6-0.8-2.2-0.6-7.2-2.4c-1.9-0.6-3.8-1.3-5.7-2c-0.9-0.4-1.7-0.8-2.6-1.2c-0.2-0.1-0.5-0.4-0.7-0.8
				c-0.2-0.3-0.3-0.6-0.3-0.8c0-0.1-0.1-0.4-0.1-0.7c0-0.3,0-0.5,0.1-0.7c0.1-0.5,0.3-0.9,0.5-1.1c0.1-0.2,0.3-0.3,0.4-0.6
				c0.2-0.3,0.3-0.6,0.3-0.8c0.7-2.2,1.3-4.4,2-6.6l0.9-4.4l0.7-6.5v-5.8l-0.1-7.8l-0.9-7.4l-0.7-9.1l-0.9-11l-2.2,5.5l-6.6,11.7
				l-4.6,6.7l-8.3,10.3l-6.8,7.3l-6,4.9l-7.1,4l-5.6,1.9l-5.3-0.1l-4.4-0.6l-3.2-1.6l-1.5-1.2l-1.4-2l-1.2-2.4l-1.3-4.5l-0.4-4.3
				l-0.2-6.6l0.5-8.3l1.4-9.1l3.9-20.6l3.3-22l1.1-9.2l0.5-4.5l0.4,0.1l1.1,1.3l1.6,1.4l3.2,1l3.1,0.6l2.4,0.3l2.6-0.2l2.4-0.4
				l2.4-1l1.4-1.4l0.7,34.7l0.6-0.3l1.6-2.7l2.9-5l3.8-6.3l6.5-8.6l3-4l5.5-5.3l7.2-4.3l6-2.9l11.4-4.2c0.7-0.2,1.4-0.4,2.1-0.5
				c0.6-0.1,1.3-0.3,2-0.4c0.4,0,1.2,0.1,2,0.3c0.4,0.1,0.7,0.2,0.9,0.3c0.2,0.1,0.5,0.2,0.6,0.3c0,0.2,0.2,0.4,0.3,0.6
				c0.1,0.3,0.2,0.5,0.2,0.5c0.1,0.3,1,1.8,3.3,5.7l4.5,5.1l6,4.6l3.5,1.4l3.3,0.1l3-1.1l2.4-2.6l1.4-2.9l0.6-2.5l0.6-3.5v-3.3
				l-0.3-3.9h3l3.4,0.6l4.2,0.6l5.5,1.1l6.8,1.6l4.8,1.7l4.9,3.2l4.3,3.8l4.5,4.5l3.2,3.5l3.6,4.2l9.3,15.2v-0.7l-2.3-19.5l-0.3-8.2
				l4.2,0.8l3.8-0.1l3.1-0.4l4.7-1.7l3.1-1.8l1.1-0.9l0.1,0.7l5.3,16.1l5.1,13.6l4,12.8l3.3,14.4l1.6,11l-0.9,8.5l-2.4,7.7l-2.9,3.5
				l-3,2.7l-3.9,1.3l-5-0.2l-9.1-2.5l-8.9-5.5l-14.4-13.4c-1.5-1.7-2.9-3.5-4.4-5.2c-0.6-1-1.3-2.1-1.9-3.4
				c-0.9-1.7-1.6-3.4-2.1-4.9l-0.6,3.7c-0.2,1.2-0.5,2.5-0.7,3.7c0,5.7-0.1,11.4-0.1,17.1l1.2,7.4l1.5,8.1l1.2,10.5l1.3,3.9
				c1,1.1,2.1,2.3,3.1,3.4C349.6,426.9,351.1,428,351.4,428.7z"/>
			<polyline class="st43" points="366.9,377.8 366.3,375.7 365.4,372.1 364.6,367.6 364,363.1 363.6,358.3 363.2,352.6 362.9,348.4 
				362.8,345.4 			"/>
			<polyline class="st43" points="218.7,382.9 219.1,380.7 219.8,377.1 220.2,372.6 220.5,368 220.5,363.2 220.6,357.5 220.6,353.3 
				220.4,350.3 			"/>
			<polyline class="st43" points="376,403.1 375.2,402.3 374.4,401.4 373.9,400.1 373.7,398.6 374.1,396.6 375,394.4 376.5,392.1 
				378,390.5 379.5,389.2 381.4,388 383.1,387.2 385.2,386.6 387.4,386.4 389.8,386.8 392.1,387.7 393.8,388.8 395.1,390.6 
				396,392.8 396.1,394.8 395.8,397.3 			"/>
			<polyline class="st43" points="189.1,401.1 189.5,399.8 190.2,398.6 191.8,397.4 194.2,396.6 196.6,396.3 199.3,396.4 201.8,397 
				204.4,398 207,399.5 209.4,401.8 210.9,404.3 211.5,406.4 211.5,408.5 211.2,410.4 			"/>
		</g>
	</g>
</g>
<g>
	<g>
		<path class="st0" d="M576.2,142.7c-0.1-0.7-0.1-1.3-0.2-2c-0.2-0.9-0.6-1.6-0.9-2.2c-0.3-0.5-0.7-1.1-1.3-1.7
			c-0.4-0.3-0.9-0.8-1.7-1.1c-0.8-0.4-1.6-0.4-2.1-0.4c-31,2.5-62,5-93,7.5c-0.6,0-1.4,0.2-2.3,0.5c-0.8,0.3-1.4,0.7-1.8,0.9
			c-0.3,0.1-0.9,0.5-1.3,1c-0.4,0.4-0.6,0.8-0.8,1.2l-0.8,3l-13.2,65l-64.2,4.8l0.1,5.2l169.9-13.6c4.3-21.8,8.8-43.5,13.1-65.3
			C575.8,144.6,575.8,143.6,576.2,142.7z"/>
	</g>
	
		<ellipse transform="matrix(0.9968 -8.049063e-02 8.049063e-02 0.9968 -12.4932 42.4933)" class="st10" cx="520.8" cy="176.2" rx="7" ry="6.6"/>
</g>
<path class="st44" d="M-14.5,271.6"/>
<g>
	<path class="st44" d="M9.3,205.3H151c9.5,0,17.2,7.7,17.2,17.2v184.8c0,2.7-0.6,5.2-1.7,7.5"/>
	<path class="st44" d="M166.4,414.9c-2.8,5.7-8.7,9.7-15.5,9.7l-128,0.1"/>
	<g>
		<path class="st44" d="M138.8,301.7H51.4c-3.4,0-6.1-2.7-6.1-6.1v-24c0-3.4,2.7-6.1,6.1-6.1h87.4c3.4,0,6.1,2.7,6.1,6.1v24
			C145,299,142.2,301.7,138.8,301.7z"/>
		<line class="st45" x1="83.4" y1="273.8" x2="105.3" y2="273.8"/>
	</g>
	<g>
		<path class="st44" d="M138.6,255.3H51.2c-3.4,0-6.1-2.7-6.1-6.1v-24c0-3.4,2.7-6.1,6.1-6.1h87.4c3.4,0,6.1,2.7,6.1,6.1v24
			C144.7,252.5,142,255.3,138.6,255.3z"/>
		<line class="st45" x1="83.1" y1="227.4" x2="105" y2="227.4"/>
	</g>
	<path class="st44" d="M10.1,219.5"/>
	<path class="st44" d="M10.1,219.5h13.7c3.4,0,6.1,2.7,6.1,6.1v24c0,3.4-2.7,6.1-6.1,6.1H12.2"/>
	<path class="st44" d="M10.9,265.5"/>
	<path class="st44" d="M15.3,301.7h8c3.4,0,6.1-2.7,6.1-6.1v-24c0-3.4-2.7-6.1-6.1-6.1L13,265.6"/>
</g>
<path class="st44" d="M-3.8,221.2c0.4,0,0.9,0,1.3,0"/>
<g>
	<polygon class="st46" points="19.7,154.3 33.8,279.8 34.6,281.8 35.8,282.5 37.5,283.7 39.1,284.1 41.7,284.3 44,283.9 159,253.2 
		160.6,251.8 161.4,249.9 161.8,247.6 161.2,242.3 151.4,182.1 146.3,157.2 24.2,148.9 21.1,149.3 19.3,151.4 	"/>
	<g>
		<polygon class="st47" points="24.5,153.7 38.6,280.1 39.4,282.1 40.5,282.8 42.3,284 43.9,284.4 46.4,284.6 48.8,284.2 
			163.8,253.3 165.4,251.9 166.2,250 166.5,247.6 166,242.3 156.2,181.7 151.1,156.6 29,148.2 25.9,148.6 24.1,150.8 		"/>
		<path class="st1" d="M57.2,263.3l-1.9,0.2c-1.1,0.1-2.1-0.7-2.2-1.8l-3.3-26.6c-0.1-1.1,0.7-2.1,1.8-2.2l1.9-0.2
			c1.1-0.1,2.1,0.7,2.2,1.8l3.3,26.6C59,262.1,58.3,263.2,57.2,263.3z"/>
		<path class="st1" d="M73,259.6l-1,0.1c-1.1,0.1-2.1-0.7-2.2-1.8l-5.2-42.7c-0.1-1.1,0.7-2.1,1.8-2.2l1-0.1
			c1.1-0.1,2.1,0.7,2.2,1.8l5.2,42.7C74.9,258.4,74.1,259.4,73,259.6z"/>
		<path class="st1" d="M87.9,256.4l-0.8,0.1c-1.1,0.1-2.1-0.7-2.2-1.8L83,239.9c-0.1-1.1,0.7-2.1,1.8-2.2l0.8-0.1
			c1.1-0.1,2.1,0.7,2.2,1.8l1.8,14.9C89.8,255.2,89,256.3,87.9,256.4z"/>
		<path class="st48" d="M101.9,253.4l-0.8,0.1c-1.1,0.1-2.1-0.7-2.2-1.8l-0.9-7.4c-0.1-1.1,0.7-2.1,1.8-2.2l0.8-0.1
			c1.1-0.1,2.1,0.7,2.2,1.8l0.9,7.4C103.7,252.2,103,253.3,101.9,253.4z"/>
		<path class="st46" d="M98.6,183.3l-54.9,0.8c-0.4,0-0.7-0.3-0.7-0.7v-0.3c0-0.4,0.3-0.7,0.7-0.7l54.9-0.8c0.4,0,0.7,0.3,0.7,0.7
			v0.3C99.3,182.9,99,183.3,98.6,183.3z"/>
		<path class="st46" d="M80.1,194l-34.9,1.1c-0.4,0-0.7-0.3-0.8-0.7v-0.3c0-0.4,0.3-0.7,0.7-0.8l34.9-1.1c0.4,0,0.7,0.3,0.8,0.7v0.3
			C80.8,193.6,80.5,194,80.1,194z"/>
		<path class="st49" d="M71,172.5H43.5c-1,0-1.7-0.8-1.7-1.7v-2.3c0-1,0.8-1.7,1.7-1.7H71c1,0,1.7,0.8,1.7,1.7v2.3
			C72.7,171.7,71.9,172.5,71,172.5z"/>
		<polygon class="st49" points="134.9,221.8 143.5,240.9 144.8,239.7 146,237.9 147.4,235.3 148.4,232.4 149.1,229.6 149.5,225.9 
			149.4,221.3 148.9,217.6 148,214.7 146.8,211.3 145,207.9 143.4,205.8 142.1,204.5 		"/>
		<polygon class="st50" points="120.4,210 134.9,221.8 142.1,204.5 141.4,203.7 140.3,202.6 138.5,201.5 137.5,201 136.4,200.5 
			135.1,200.1 133.3,199.9 130.9,199.9 128.3,200.5 125.9,201.9 124.4,203.1 122.5,205.7 121.3,207.8 120.6,209.1 		"/>
		<polygon class="st51" points="143.5,240.9 142,242.3 140.3,243.3 138.1,243.9 137.1,244 135.3,244.1 133.7,243.8 132,243.4 
			130.4,242.7 129.1,241.9 127.3,240.5 125.6,238.7 124,236.5 122.2,233.7 121.1,230.9 119.9,227.6 119.3,223.6 118.9,219.2 
			119.2,215.1 119.9,211.2 120.4,210 134.9,221.8 		"/>
	</g>
</g>
<image style="overflow:visible;enable-background:new    ;" width="4268" height="3201" xlink:href="../../DrawKit_0042_Product_Project_Managers_Illustrations/DrawKit Vector Illustration Project Manager/PNG/DrawKit Vector Illustration Project Manager (4).png"  transform="matrix(0.24 0 0 0.24 -210.2905 -690.2734)">
</image>
<g>
	<path class="st47" d="M373.5,150.1H216.6c-4.4,0-8-3.6-8-8V42.3c0-4.4,3.6-8,8-8h156.9c4.4,0,8,3.6,8,8v99.8
		C381.6,146.5,378,150.1,373.5,150.1z"/>
	<path class="st49" d="M259.8,51.5h-37.1c-0.9,0-1.6-0.7-1.6-1.6v-3c0-0.9,0.7-1.6,1.6-1.6h37.1c0.9,0,1.6,0.7,1.6,1.6v3
		C261.4,50.7,260.7,51.5,259.8,51.5z"/>
	<path class="st1" d="M264,110.2h-38.3c-2.4,0-4.3-1.9-4.3-4.3v-35c0-2.4,1.9-4.3,4.3-4.3H264c2.4,0,4.3,1.9,4.3,4.3v35
		C268.3,108.3,266.4,110.2,264,110.2z"/>
	<path class="st51" d="M317.8,95.5h-40.7c-1.7,0-3.2-1.4-3.2-3.2V69.7c0-1.7,1.4-3.2,3.2-3.2h40.7c1.7,0,3.2,1.4,3.2,3.2v22.6
		C321,94,319.6,95.5,317.8,95.5z"/>
	<path class="st48" d="M370.7,95.4H330c-1.7,0-3.2-1.4-3.2-3.2V69.7c0-1.7,1.4-3.2,3.2-3.2h40.7c1.7,0,3.2,1.4,3.2,3.2v22.6
		C373.8,94,372.4,95.4,370.7,95.4z"/>
	<path class="st50" d="M317.6,144.4H277c-1.7,0-3.2-1.4-3.2-3.2v-35.5c0-1.7,1.4-3.2,3.2-3.2h40.7c1.7,0,3.2,1.4,3.2,3.2v35.5
		C320.8,143,319.4,144.4,317.6,144.4z"/>
	<path class="st1" d="M371.1,138.3h-40.7c-1.7,0-3.2-1.4-3.2-3.2v-29.4c0-1.7,1.4-3.2,3.2-3.2h40.7c1.7,0,3.2,1.4,3.2,3.2v29.4
		C374.3,136.9,372.9,138.3,371.1,138.3z"/>
	<path class="st51" d="M236.9,83.6h-8c-0.8,0-1.5-0.7-1.5-1.5v-7.6c0-0.8,0.7-1.5,1.5-1.5h8c0.8,0,1.5,0.7,1.5,1.5v7.6
		C238.3,82.9,237.7,83.6,236.9,83.6z"/>
	<path class="st51" d="M236.8,101.8h-8c-0.8,0-1.5-0.7-1.5-1.5v-7.6c0-0.8,0.7-1.5,1.5-1.5h8c0.8,0,1.5,0.7,1.5,1.5v7.6
		C238.3,101.1,237.6,101.8,236.8,101.8z"/>
	<line class="st52" x1="242.1" y1="74.7" x2="265" y2="74.7"/>
	<line class="st52" x1="242.1" y1="78.7" x2="265" y2="78.7"/>
	<line class="st52" x1="242" y1="93.7" x2="264.8" y2="93.7"/>
	<line class="st52" x1="242" y1="97.7" x2="264.9" y2="97.7"/>
	<line class="st52" x1="279.1" y1="72.8" x2="316.3" y2="72.8"/>
	<line class="st52" x1="279.1" y1="79.6" x2="316.4" y2="79.6"/>
	<line class="st52" x1="279.2" y1="76.3" x2="316.5" y2="76.3"/>
	<line class="st52" x1="282.8" y1="86.9" x2="312" y2="86.9"/>
	<path class="st47" d="M340.2,80.8h-8c-0.8,0-1.5-0.7-1.5-1.5v-7.6c0-0.8,0.7-1.5,1.5-1.5h8c0.8,0,1.5,0.7,1.5,1.5v7.6
		C341.7,80.1,341,80.8,340.2,80.8z"/>
	<line class="st52" x1="344.7" y1="72.4" x2="368" y2="72.4"/>
	<line class="st52" x1="344.7" y1="79.3" x2="368" y2="79.3"/>
	<line class="st52" x1="344.7" y1="76" x2="368.1" y2="76"/>
	<line class="st52" x1="331" y1="88.2" x2="369" y2="88.2"/>
	<path class="st1" d="M313.6,124.3H282c-1.9,0-3.5-1.6-3.5-3.5v-9.9c0-1.9,1.6-3.5,3.5-3.5h31.6c1.9,0,3.5,1.6,3.5,3.5v9.9
		C317.1,122.7,315.6,124.3,313.6,124.3z"/>
	<ellipse class="st47" cx="284.7" cy="134.1" rx="5.7" ry="5.5"/>
	<line class="st52" x1="295.2" y1="133.2" x2="316.2" y2="133.2"/>
	<ellipse class="st51" cx="336" cy="109.8" rx="4.3" ry="4.2"/>
	<ellipse class="st51" cx="336" cy="120" rx="4.3" ry="4.2"/>
	<ellipse class="st51" cx="335.9" cy="130.2" rx="4.3" ry="4.2"/>
	<line class="st52" x1="341.9" y1="108.9" x2="371.1" y2="108.9"/>
	<line class="st52" x1="342.1" y1="119.9" x2="371.3" y2="119.9"/>
	<line class="st52" x1="342.1" y1="130.6" x2="371.3" y2="130.6"/>
	<ellipse class="st53" cx="351" cy="47.2" rx="2.8" ry="2.9"/>
	<ellipse class="st53" cx="358.3" cy="47.2" rx="2.8" ry="2.9"/>
	<ellipse class="st53" cx="365.6" cy="47.2" rx="2.8" ry="2.9"/>
	<path class="st54" d="M263.1,140.3h-37c-2.7,0-5-2.2-5-5V119c0-2.7,2.2-5,5-5h37c2.7,0,5,2.2,5,5v16.3
		C268.1,138.1,265.9,140.3,263.1,140.3z"/>
	<line class="st55" x1="243.3" y1="119.6" x2="243.2" y2="134.3"/>
	<line class="st55" x1="250.6" y1="126.8" x2="235.8" y2="126.8"/>
</g>
</svg>
