<?xml version="1.0" encoding="utf-8"?>
<!-- Generator: Adobe Illustrator 24.2.1, SVG Export Plug-In . SVG Version: 6.00 Build 0)  -->
<svg version="1.1" id="Capa_1" xmlns="http://www.w3.org/2000/svg" xmlns:xlink="http://www.w3.org/1999/xlink" x="0px" y="0px"
	 viewBox="0 0 595.3 519.5" style="enable-background:new 0 0 595.3 519.5;" xml:space="preserve">
<style type="text/css">
	.st0{fill:#1D1D1B;}
	.st1{fill:#5C998E;}
	.st2{fill:#3C3C3B;}
	.st3{fill:#D8B49D;}
	.st4{fill:#1D1D1B;stroke:#1D1D1B;stroke-width:3;stroke-miterlimit:10;}
	.st5{fill:#007E71;}
	.st6{fill:#FEFDF4;}
	.st7{fill:#14150E;stroke:#000000;stroke-width:1.5;stroke-miterlimit:10;}
	.st8{fill:none;stroke:#1D1D1B;stroke-miterlimit:10;}
	.st9{fill:#FA9E9F;enable-background:new    ;}
	.st10{fill:#FFFFFF;}
	.st11{fill:#B0B0B0;}
	.st12{fill:#E9E9E9;}
	.st13{fill:#F5EABB;}
	.st14{fill:#EDEDED;}
	.st15{fill:#EDEDED;stroke:#9F9F9F;stroke-width:2;stroke-miterlimit:10;}
	.st16{fill:#9F9F9F;}
	.st17{fill:#5BA696;}
</style>
<path class="st0" d="M275.5,457.6c-0.1,1.5-0.3,3.1-0.4,4.6c0,0.6-0.1,1.5-0.5,2.5c-0.3,0.8-0.8,1.5-1.1,1.9
	c-0.6,0.4-1.3,0.9-2.1,1.3c-0.8,0.4-1.5,0.7-2.1,0.9c-1.6,0.4-3.3,0.8-4.9,1.2c-1.2,0.3-2.4,0.6-3.5,0.8c-0.8,0.2-1.8,0.4-2.8,0.7
	c-0.9,0.3-1.7,0.6-2.4,0.9c-0.3,0.6-0.7,1.2-1,1.8c-0.1,0.4-0.3,1.1-0.2,2c0.1,0.9,0.5,1.6,0.7,2c0.5,0.1,1,0.2,1.5,0.3
	c12.7,0,25.3,0,38,0.1c0.3-0.2,0.5-0.4,0.8-0.6c0.5-0.5,1-1.4,1.2-3.3c0.1-1.6-0.2-1.9-0.3-3.8c0-0.8,0-0.7,0.2-4.2
	c0.1-2.6,0.1-2.7,0.2-5.1c0.1-1.6,0.2-2.9,0.2-3.7C289.8,457.9,282.6,457.7,275.5,457.6z"/>
<path class="st0" d="M235.7,435.2c-0.5,1.5-1,2.9-1.5,4.4c-0.2,0.6-0.5,1.4-1.1,2.3c-0.5,0.7-1.1,1.2-1.5,1.6
	c-0.7,0.3-1.5,0.5-2.4,0.7c-0.8,0.2-1.6,0.3-2.3,0.4c-1.7,0-3.4,0-5.1,0c-1.2,0-2.4,0-3.6,0c-0.8-0.1-1.8-0.1-2.9,0
	c-0.9,0.1-1.8,0.2-2.5,0.3c-0.5,0.5-1,1-1.4,1.5c-0.2,0.4-0.6,1-0.7,1.9c-0.1,0.9,0,1.7,0.2,2.1c0.4,0.2,0.9,0.4,1.3,0.7
	c12.3,3.1,24.5,6.3,36.8,9.4c0.3-0.1,0.6-0.2,0.9-0.4c0.6-0.4,1.3-1.1,1.9-2.9c0.5-1.5,0.3-1.9,0.7-3.8c0.2-0.8,0.2-0.7,1.2-4
	c0.6-1.8,0.7-2.4,1-3.4c0.2-0.7,0.4-1.2,0.4-1.4c0.3-0.9,0.8-2.6,1.9-6.2C249.9,437.2,242.8,436.2,235.7,435.2z"/>
<polygon class="st1" points="388.2,258 388.4,270.9 430,268.9 428.8,266.3 396.4,256.4 "/>
<polygon class="st2" points="232.4,438.1 258.3,438.9 285.3,380.9 318.7,277.1 303.7,277.5 282.1,278.8 276.5,281.3 270.5,292.2 
	262,320.5 233.2,436.7 "/>
<polygon class="st2" points="297.2,459.7 354.1,340.7 361.4,343.9 385.4,348 422,352.2 446,354.3 463.7,354.8 477.3,354.8 
	487.2,352.2 495,348.6 500.2,344.4 506.5,337.6 510.1,330.3 512.6,322.4 513.8,311.5 512.7,290.9 506,291 494.8,289.3 479.1,286.1 
	450,276 430.2,268.4 381.3,270.5 335.1,273.6 318.9,276 313,279.5 307.6,288.7 299.5,309.4 293.1,334.5 287.8,361.1 283.3,387.3 
	277.6,427.2 274.7,452.5 273.9,459.5 "/>
<path class="st3" d="M437.3,149.6c0.1-7.3,0.2-14.7,0.4-22c-0.9-0.1-1.8-0.2-2.7-0.4c-1.2-0.2-2.4-0.4-3.5-0.6
	c-0.8-0.3-1.7-0.6-2.6-1.1c-0.8-0.4-1.6-0.8-2.3-1.2c-0.8-0.7-1.7-1.4-2.5-2.1l-4-4l-2.8-4.4c-0.7-1.5-1.5-2.9-2.2-4.4
	c-0.4-2-0.8-3.9-1.3-5.9c0.1-2.1,0.3-4.2,0.4-6.4c0.2-1.3,0.4-2.5,0.5-3.8c0.2-0.8,0.6-2,1.4-3.1c0.4-0.6,0.9-1.1,1.3-1.5
	c0.4-0.8,0.8-1.7,1.3-2.5l3.6,0.7c1.4-0.1,2.7-0.1,4.1-0.2c1.9,0,3.7,0.1,5.6,0.1c2.5-0.1,5-0.3,7.5-0.4c3.1,0.2,6.2,0.4,9.3,0.6
	c1.7,1.3,3.4,2.7,5.2,4l3.9,3.7c1.3,1.2,2.6,2.3,3.9,3.5c0.7,0.1,1.4,0.1,2.1,0.2c0.9,0.8,1.8,1.6,2.7,2.4c0.1,1,0.3,2,0.4,3
	c-0.2,1.2-0.4,2.4-0.6,3.6c-1.1,1-2.2,2-3.2,3l-0.4,2.3l-0.2,3.8l-2.9,3.7l-0.4,23.8c-0.1,1.8-0.2,3.6-0.3,5.4
	c-2.1,0.8-4.1,1.5-6.2,2.3c-1.8,0.1-3.7,0.2-5.5,0.2c-2,0.2-4.1,0.5-6.1,0.7C439.8,151.7,438.6,150.7,437.3,149.6z"/>
<g>
	<ellipse class="st0" cx="471.8" cy="365.5" rx="60.4" ry="12.6"/>
	<path class="st0" d="M468.1,374.3L468.1,374.3c-1.5-0.5-3.1,0.3-3.6,1.8l-29.3,90.4c-0.5,1.5,0.3,3.1,1.8,3.6v0
		c1.5,0.5,3.1-0.3,3.6-1.8l29.3-90.4C470.4,376.4,469.6,374.8,468.1,374.3z"/>
	<path class="st0" d="M475.5,374L475.5,374c1.5-0.5,3.1,0.3,3.6,1.8l29.3,90.4c0.5,1.5-0.3,3.1-1.8,3.6l0,0
		c-1.5,0.5-3.1-0.3-3.6-1.8l-29.3-90.4C473.2,376.1,474,374.5,475.5,374z"/>
	<line class="st4" x1="449.6" y1="434.1" x2="488.3" y2="410"/>
	<line class="st4" x1="495.2" y1="434.5" x2="456.5" y2="410.4"/>
</g>
<path class="st3" d="M343.7,241.7l-0.3,0.2l-5.6,4l-2.7,3.4l-1,3l0.7,3.9l1,1.3l2.4,1.8l2.5,1.2l4,0.8l5.2-0.4l3.9-2l4.7-1.6
	l3.5-0.9l3.4,0.9l1.8,1.9l2.2,2.1l3.6,1.6l4.3,0.8l3.3,2l5.1,2.9l2.9,0.9l0.1-11l5.2-1l7.4,0.8l15.9,6l13.8,5.2l39.6,14.6
	c2.7,0.9,5.4,1.7,8.1,2.6c5,1.2,10.1,2.3,15.1,3.5c3.8,0.6,7.5,1.2,11.3,1.8c2.8,0.2,5.6,0.3,8.4,0.5l7.9-0.7l3.9-2.4l2.9-3.3
	l2.1-3.9l1.5-5.6l1.6-11.6l0.5-14l-0.1-18.3l-49.5,0.1l2.9,11.7l-0.1,9.6l-4.3,2.2l-6.9-1.4l-19.6-4.7l-35.2-6.9l-16.1-2.9
	l-11.5-1.5l-10.2,0.4l-1.8,1.3l-2.5-0.5l-3.6-0.7l-6.3-1.3l-3.7-0.9l-8.4,0.2l-4,1L343.7,241.7z"/>
<path class="st1" d="M370.6,238.8l1.6-21.7l2.9-24.6l5.3-24.9c0.9-4.2,1.8-8.5,2.7-12.7c1.2-1.8,2.4-3.6,3.6-5.4
	c1.6-0.7,3.1-1.3,4.7-2l7-1l11.5-1.6l18.8-1.8l7.6-1c0.4,0,0.8,0.1,1.3,0.1c0,1.2,0.1,2.5,0.1,3.7c0.1,0.7,0.3,1.3,0.4,2
	c0.5,0.4,0.9,0.8,1.4,1.2c0.3,0.2,0.8,0.4,1.3,0.6c0.9,0.4,1.8,0.5,2.4,0.5c0.7,0.1,1.6,0.3,2.5,0.3c0.8,0.1,1.6,0.1,2.3,0.1
	c0.9,0,1.8-0.1,2.8-0.1c1.1-0.1,2.2-0.2,3.3-0.3c0.6-0.1,1.4-0.3,2.3-0.6c0.7-0.3,1.3-0.6,1.7-0.9c0.2-0.1,0.5-0.4,0.8-0.8
	c0.2-0.3,0.3-0.6,0.4-1c0.1-0.3,0.1-0.7,0.1-1.3c0.1-1.4,0.1-2.8,0.2-4.1c3.1,0,6.1,0,9.2-0.1c6.2,0.4,12.4,0.8,18.6,1.2l12.9,2
	l9.6,2.4l5.3,2.4l4.3,4.7l3.1,7.4l2.7,11.7l1.8,7.2l1.8,11.1l1.4,13.5l1.6,11.5l1.9,12.5l0.2,4.8l-48.9-0.4l0.6,2c0,0,0,0.1,0,0.1
	l1,4.3l0.6,2.4l0.3,4.9l0.4,3.4L487,254l-3.8,2.2l-6.6-0.6l-46.8-9.2l-29.9-5.7h-21.5L370.6,238.8z"/>
<g>
	<g>
		<path class="st5" d="M206,169.6h-50.1c-7.3,0-13.2-5.9-13.2-13.2V151c0-7.3,5.9-13.2,13.2-13.2H206c7.3,0,13.2,5.9,13.2,13.2v5.4
			C219.3,163.7,213.3,169.6,206,169.6z"/>
		<polygon class="st5" points="200.5,169.6 209.3,177 209.8,165.6 200.4,165.7 		"/>
	</g>
	<g>
		<ellipse class="st6" cx="170.8" cy="154" rx="3.1" ry="3.1"/>
		<ellipse class="st6" cx="181.1" cy="154" rx="3.1" ry="3.1"/>
		<ellipse class="st6" cx="191.1" cy="154" rx="3.1" ry="3.1"/>
	</g>
</g>
<path class="st7" d="M399.3,185.9l-5.4,18.6c0,0,0,0,0,0.1l-3.9,16.9c0,0,0,0.1,0,0.1l-1.7,13.1c0,0,0,0.1,0,0.1l-0.2,6.2"/>
<polyline class="st7" points="485.9,239 485.6,233.6 483.8,222.2 479.9,207.5 474.5,191.3 "/>
<path class="st8" d="M424.6,99.7c-0.3,0.3-0.6,0.7-1,1.1c-0.3,0.4-0.6,0.7-0.8,1.1c-0.2,0.3-0.4,0.7-0.6,1.2c-0.2,0.5-0.3,1-0.4,1.3
	c0,0.3,0,0.7,0.1,1.2c0.1,0.4,0.2,0.7,0.4,1c0.2,0.3,0.5,0.6,0.9,1c0.4,0.3,0.7,0.5,1,0.6"/>
<path class="st8" d="M432.3,114c0,0,1.2-0.6,1.2-0.6c0,0,1.1-0.5,1.1-0.5c0.2-0.1,0.5-0.3,0.9-0.6c0.5-0.3,0.7-0.5,1-0.8
	c0.2-0.2,0.5-0.6,0.8-1.1"/>
<g>
	<ellipse class="st9" cx="413.5" cy="104.3" rx="4.5" ry="2.3"/>
	<ellipse class="st9" cx="441.2" cy="104.8" rx="4.5" ry="2.3"/>
</g>
<path class="st0" d="M413.4,90.1c-1.7-0.9-3.2-2.2-3.2-2.2c-0.7-0.6-1.7-1.4-2.6-2.7c-1.4-2-1.9-3.9-2.3-5.1
	c-0.5-1.8-0.9-3.5-0.4-5.6c0.2-0.9,0.7-2.9,2.4-4.1c1.4-1,2.8-1.1,4.4-1.1c2.8-0.1,5.3,0.7,6.8,1.1c1.7,0.6,2.8,1.1,4.5,1
	c0.4,0,2.4-0.1,2.7-0.9c0.2-0.7-1.1-1.2-2-3c-0.7-1.2-0.8-2.4-0.8-2.9c-0.1-0.5-0.4-4,1.9-6.4c1.8-2,4.3-2.1,7.4-2.3
	c0.8-0.1,3.1-0.2,5.9,0.5c1.2,0.3,3.5,0.9,6.1,2.6c0.7,0.5,3.1,2.2,5.1,5.4c1.4,2.3,2.6,4.3,2.3,6.7c-0.1,0.8-0.4,1.8-0.1,2
	c0.4,0.2,1-1.1,2.5-2c1.6-0.9,3.2-1,4.2-1c1.9-0.1,3.3,0.5,3.8,0.7c1.4,0.5,2.3,1.3,4.1,2.9c1.6,1.4,2.6,2.2,3.5,3.7
	c1,1.5,1.5,2.9,1.8,4c0.3,0.8,0.8,2.6,1,6.2c0.3,4.6,0.5,6.9-0.3,9.2c-0.8,2.5-1.8,2.7-2.4,5.7c-0.3,1.3-0.6,2.8-0.3,4.7
	c0.3,1.9,0.9,2.2,1.1,4.3c0.2,1.9-0.2,3.1-0.3,3.5c-0.4,1.2-0.8,2.4-2,3c-1.2,0.6-2.6,0.2-3.5-0.3c-2.2-1.3-3.1-4.8-1.8-7.2
	c0.6-1.1,1.4-0.8,2.3-2.1c1.4-1.9,1-4.4,0.8-5.3c-0.3-1.2-0.6-2.6-1.9-3.6c-1.5-1.1-3.1-0.5-4.4-0.6c-4.1-0.3-4.9-6.3-8.2-9.1
	C443.5,82.7,418.6,93,413.4,90.1z"/>
<path class="st0" d="M388.5,79"/>
<path class="st0" d="M459.8,120.7c-1.5,0.9-2.6,1.7-3.4,2.2c-1.5,1.1-1.6,1.3-2.5,1.8c-1.3,0.7-1.9,0.8-3.2,1.6
	c-0.8,0.5-1.5,1-1.9,1.3c0.4,0.4,1.1,1,2,1.6c0.9,0.6,1.4,0.8,2.9,1.7c1.2,0.7,1.3,0.9,2.3,1.5c0.8,0.5,2,1.2,3.6,1.8
	C459.6,129.7,459.7,125.2,459.8,120.7z"/>
<path class="st3" d="M434.6,146.9"/>
<g>
	<g>
		<path class="st0" d="M225,209.6c5.4,19,10.9,38,16.3,57l151.7-0.1l-0.3-4.6l-57.3,0.3l-16.4-56.7l-0.9-2.6c-0.2-0.3-0.4-0.7-0.8-1
			c-0.4-0.4-0.9-0.7-1.2-0.8c-0.4-0.2-1-0.5-1.7-0.7c-0.8-0.2-1.6-0.3-2.1-0.3c-27.7,0-55.4,0-83.1,0c-0.4,0-1.1,0.1-1.8,0.5
			c-0.7,0.3-1.1,0.8-1.4,1.1c-0.5,0.6-0.8,1.1-1,1.6c-0.2,0.5-0.5,1.2-0.6,2c0,0.6,0,1.2,0,1.8C224.8,207.9,224.9,208.8,225,209.6z"
			/>
	</g>
	<ellipse class="st10" cx="275.9" cy="232.9" rx="6.2" ry="5.9"/>
</g>
<g>
	<path class="st11" d="M454.9,474.1l50.4-201.5c0.9-3.5,4.4-5.6,7.8-4.7l0,0c3.5,0.9,5.6,4.4,4.7,7.8l-50.4,201.5
		c-0.9,3.5-4.4,5.6-7.8,4.7v0C456.2,481.1,454.1,477.6,454.9,474.1z"/>
	<path class="st11" d="M576.7,473.2l-50.4-201.5c-0.9-3.5-4.4-5.6-7.8-4.7l0,0c-3.5,0.9-5.6,4.4-4.7,7.8l50.4,201.5
		c0.9,3.5,4.4,5.6,7.8,4.7l0,0C575.5,480.2,577.6,476.7,576.7,473.2z"/>
	<path class="st11" d="M95,476l50.4-201.5c0.9-3.5,4.4-5.6,7.8-4.7l0,0c3.5,0.9,5.6,4.4,4.7,7.8l-50.4,201.5
		c-0.9,3.5-4.4,5.6-7.8,4.7h0C96.2,483,94.1,479.5,95,476z"/>
	<path class="st11" d="M216.8,475.1l-50.4-201.5c-0.9-3.5-4.4-5.6-7.8-4.7h0c-3.5,0.9-5.6,4.4-4.7,7.8l50.4,201.5
		c0.9,3.5,4.4,5.6,7.8,4.7h0C215.6,482.1,217.7,478.6,216.8,475.1z"/>
	<path class="st12" d="M544.6,281.3H54.7c-4,0-7.2-3.2-7.2-7.2l0,0c0-4,3.2-7.2,7.2-7.2h489.9c4,0,7.2,3.2,7.2,7.2l0,0
		C551.8,278.1,548.6,281.3,544.6,281.3z"/>
	<path class="st12" d="M22.3,474.4l50.4-201.5c0.9-3.5,4.4-5.6,7.8-4.7h0c3.5,0.9,5.6,4.4,4.7,7.8L34.9,477.5
		c-0.9,3.5-4.4,5.6-7.8,4.7h0C23.6,481.3,21.5,477.8,22.3,474.4z"/>
	<path class="st12" d="M144.1,473.5L93.7,272c-0.9-3.5-4.4-5.6-7.8-4.7h0c-3.5,0.9-5.6,4.4-4.7,7.8l50.4,201.5
		c0.9,3.5,4.4,5.6,7.8,4.7h0C142.9,480.5,145,477,144.1,473.5z"/>
	<path class="st12" d="M384.8,475.3l50.4-201.5c0.9-3.5,4.4-5.6,7.8-4.7l0,0c3.5,0.9,5.6,4.4,4.7,7.8l-50.4,201.5
		c-0.9,3.5-4.4,5.6-7.8,4.7l0,0C386.1,482.3,383.9,478.8,384.8,475.3z"/>
	<path class="st12" d="M506.6,474.4l-50.4-201.5c-0.9-3.5-4.4-5.6-7.8-4.7h0c-3.5,0.9-5.6,4.4-4.7,7.8l50.4,201.5
		c0.9,3.5,4.4,5.6,7.8,4.7h0C505.4,481.4,507.5,477.9,506.6,474.4z"/>
</g>
<g>
	<g>
		<path class="st13" d="M265.2,99.1l-11.5,12.1l0.2,49.6c0,0.2,0,0.5,0.1,0.9c0.1,0.3,0.2,0.5,0.3,0.7c0.1,0.1,0.2,0.3,0.5,0.5
			c0.4,0.3,0.8,0.3,0.9,0.3c0.6,0,1.1,0,1.7,0c12.1,0,24.2-0.1,36.3-0.1c0.2-0.1,0.4-0.1,0.6-0.3c0.3-0.2,0.5-0.5,0.6-0.7
			c0.1-0.2,0.2-0.4,0.3-0.7c0.1-0.4,0.2-0.8,0.2-1.1c-0.1-19.7-0.3-39.5-0.4-59.2c-0.1-0.2-0.2-0.4-0.3-0.6
			c-0.2-0.3-0.4-0.5-0.6-0.7c-0.2-0.2-0.5-0.4-0.8-0.6c-0.3-0.2-0.6-0.3-0.9-0.4C283.4,99.1,274.3,99.1,265.2,99.1z"/>
		<polygon class="st1" points="253.7,111.4 265.2,99.2 265.5,111.4 		"/>
	</g>
	<g>
		<path class="st14" d="M275.1,107.7l-11.5,12.1l0.2,49.6c0,0.2,0,0.5,0.1,0.9c0.1,0.3,0.2,0.5,0.3,0.7c0.1,0.1,0.2,0.3,0.5,0.5
			c0.4,0.3,0.8,0.3,0.9,0.3c0.6,0,1.1,0,1.7,0c12.1,0,24.2-0.1,36.3-0.1c0.2-0.1,0.4-0.1,0.6-0.3c0.3-0.2,0.5-0.5,0.6-0.7
			c0.1-0.2,0.2-0.4,0.3-0.7c0.1-0.4,0.2-0.8,0.2-1.1c-0.1-19.7-0.3-39.5-0.4-59.2c-0.1-0.2-0.2-0.4-0.3-0.6
			c-0.2-0.3-0.4-0.5-0.6-0.7c-0.2-0.2-0.5-0.4-0.8-0.6c-0.3-0.2-0.6-0.3-0.9-0.4C293.3,107.7,284.2,107.7,275.1,107.7z"/>
		<line class="st15" x1="268" y1="132.4" x2="300" y2="132.3"/>
		<line class="st15" x1="268" y1="138.2" x2="300" y2="138"/>
		<line class="st15" x1="268.1" y1="144" x2="300" y2="143.9"/>
		<line class="st15" x1="289.7" y1="116.3" x2="300.1" y2="116.3"/>
		<line class="st15" x1="289.7" y1="120.3" x2="300.1" y2="120.3"/>
		<polygon class="st16" points="263.6,119.9 275.1,107.7 275.4,119.9 		"/>
	</g>
</g>
<path class="st14" d="M210.7,115.2h-33.3c-4.3,0-7.8-3.5-7.8-7.8V87.5c0-4.3,3.5-7.8,7.8-7.8h33.3c4.3,0,7.8,3.5,7.8,7.8v19.9
	C218.5,111.8,215,115.2,210.7,115.2z"/>
<rect x="177.8" y="85.2" class="st17" width="7.2" height="24.3"/>
<rect x="186.7" y="101.8" class="st17" width="6.7" height="7.7"/>
<rect x="195.2" y="95.7" class="st17" width="7.3" height="13.8"/>
<rect x="204" y="90.5" class="st17" width="7.3" height="18.9"/>
</svg>
