<?xml version="1.0" encoding="utf-8"?>
<!-- Generator: Adobe Illustrator 24.2.1, SVG Export Plug-In . SVG Version: 6.00 Build 0)  -->
<svg version="1.1" id="Capa_1" xmlns="http://www.w3.org/2000/svg" xmlns:xlink="http://www.w3.org/1999/xlink" x="0px" y="0px"
	 viewBox="0 0 595.3 519.5" style="enable-background:new 0 0 595.3 519.5;" xml:space="preserve">
<style type="text/css">
	.st0{fill:#1D1D1B;}
	.st1{fill:#5C998E;}
	.st2{fill:#3C3C3B;}
	.st3{fill:#D8B49D;}
	.st4{fill:none;stroke:#1D1D1B;stroke-width:3;stroke-miterlimit:10;}
	.st5{fill:#007E71;}
	.st6{fill:#FEFDF4;}
	.st7{fill:#14150E;stroke:#000000;stroke-width:1.5;stroke-miterlimit:10;}
	.st8{fill:none;stroke:#1D1D1B;stroke-miterlimit:10;}
	.st9{fill:#FA9E9F;}
	.st10{fill:#FFFFFF;}
	.st11{fill:#B0B0B0;}
	.st12{fill:#E9E9E9;}
	.st13{fill:#F5EABB;}
	.st14{fill:#EDEDED;}
	.st15{fill:none;stroke:#9F9F9F;stroke-width:2;stroke-miterlimit:10;}
	.st16{fill:#9F9F9F;}
	.st17{fill:#5BA696;}
	.st18{fill:#292927;}
	.st19{fill:none;stroke:#000000;stroke-miterlimit:10;}
	.st20{opacity:0.8;}
	.st21{fill:#F2F2F2;}
	.st22{fill:none;stroke:#000000;stroke-width:2;stroke-miterlimit:10;}
	.st23{fill:#A5D6CD;}
	.st24{fill:#6D4494;}
	.st25{fill:#73E5E2;}
	.st26{fill:#D8D8D8;}
	.st27{fill:#8B9FC1;}
	.st28{fill:#B1BCE1;}
	.st29{fill:#E0C68F;}
	.st30{fill:#FADB93;}
	.st31{fill:#B79EFB;}
</style>
<path class="st0" d="M1233.4,463.5c-0.1,1.5-0.3,3.1-0.4,4.6c0,0.6-0.1,1.5-0.5,2.5c-0.3,0.8-0.8,1.5-1.1,1.9
	c-0.6,0.4-1.3,0.9-2.1,1.3c-0.8,0.4-1.5,0.7-2.1,0.9c-1.6,0.4-3.3,0.8-4.9,1.2c-1.2,0.3-2.4,0.6-3.5,0.8c-0.8,0.2-1.8,0.4-2.8,0.7
	c-0.9,0.3-1.7,0.6-2.4,0.9c-0.3,0.6-0.7,1.2-1,1.8c-0.1,0.4-0.3,1.1-0.2,2s0.5,1.6,0.7,2c0.5,0.1,1,0.2,1.5,0.3
	c12.7,0,25.3,0,38,0.1c0.3-0.2,0.5-0.4,0.8-0.6c0.5-0.5,1-1.4,1.2-3.3c0.1-1.6-0.2-1.9-0.3-3.8c0-0.8,0-0.7,0.2-4.2
	c0.1-2.6,0.1-2.7,0.2-5.1c0.1-1.6,0.2-2.9,0.2-3.7C1247.7,463.8,1240.5,463.6,1233.4,463.5z"/>
<path class="st0" d="M1193.6,441.1c-0.5,1.5-1,2.9-1.5,4.4c-0.2,0.6-0.5,1.4-1.1,2.3c-0.5,0.7-1.1,1.2-1.5,1.6
	c-0.7,0.3-1.5,0.5-2.4,0.7c-0.8,0.2-1.6,0.3-2.3,0.4c-1.7,0-3.4,0-5.1,0c-1.2,0-2.4,0-3.6,0c-0.8-0.1-1.8-0.1-2.9,0
	c-0.9,0.1-1.8,0.2-2.5,0.3c-0.5,0.5-1,1-1.4,1.5c-0.2,0.4-0.6,1-0.7,1.9c-0.1,0.9,0,1.7,0.2,2.1c0.4,0.2,0.9,0.4,1.3,0.7
	c12.3,3.1,24.5,6.3,36.8,9.4c0.3-0.1,0.6-0.2,0.9-0.4c0.6-0.4,1.3-1.1,1.9-2.9c0.5-1.5,0.3-1.9,0.7-3.8c0.2-0.8,0.2-0.7,1.2-4
	c0.6-1.8,0.7-2.4,1-3.4c0.2-0.7,0.4-1.2,0.4-1.4c0.3-0.9,0.8-2.6,1.9-6.2C1207.8,443.1,1200.7,442.1,1193.6,441.1z"/>
<polygon class="st1" points="1346.1,263.9 1346.3,276.8 1387.9,274.8 1386.7,272.2 1354.3,262.3 "/>
<polygon class="st2" points="1190.3,444 1216.2,444.8 1243.2,386.8 1276.6,283 1261.6,283.4 1240,284.7 1234.4,287.2 1228.4,298.1 
	1219.9,326.4 1191.1,442.6 "/>
<polygon class="st2" points="1255.1,465.6 1312,346.6 1319.3,349.8 1343.3,353.9 1379.9,358.1 1403.9,360.2 1421.6,360.7 
	1435.2,360.7 1445.1,358.1 1452.9,354.5 1458.1,350.3 1464.4,343.5 1468,336.2 1470.5,328.3 1471.7,317.4 1470.6,296.8 
	1463.9,296.9 1452.7,295.2 1437,292 1407.9,281.9 1388.1,274.3 1339.2,276.4 1293,279.5 1276.8,281.9 1270.9,285.4 1265.5,294.6 
	1257.4,315.3 1251,340.4 1245.7,367 1241.2,393.2 1235.5,433.1 1232.6,458.4 1231.8,465.4 "/>
<path class="st3" d="M1395.2,155.5c0.1-7.3,0.2-14.7,0.4-22c-0.9-0.1-1.8-0.2-2.7-0.4c-1.2-0.2-2.4-0.4-3.5-0.6
	c-0.8-0.3-1.7-0.6-2.6-1.1c-0.8-0.4-1.6-0.8-2.3-1.2c-0.8-0.7-1.7-1.4-2.5-2.1l-4-4l-2.8-4.4c-0.7-1.5-1.5-2.9-2.2-4.4
	c-0.4-2-0.8-3.9-1.3-5.9c0.1-2.1,0.3-4.2,0.4-6.4c0.2-1.3,0.4-2.5,0.5-3.8c0.2-0.8,0.6-2,1.4-3.1c0.4-0.6,0.9-1.1,1.3-1.5
	c0.4-0.8,0.8-1.7,1.3-2.5l3.6,0.7c1.4-0.1,2.7-0.1,4.1-0.2c1.9,0,3.7,0.1,5.6,0.1c2.5-0.1,5-0.3,7.5-0.4c3.1,0.2,6.2,0.4,9.3,0.6
	c1.7,1.3,3.4,2.7,5.2,4l3.9,3.7c1.3,1.2,2.6,2.3,3.9,3.5c0.7,0.1,1.4,0.1,2.1,0.2c0.9,0.8,1.8,1.6,2.7,2.4c0.1,1,0.3,2,0.4,3
	c-0.2,1.2-0.4,2.4-0.6,3.6c-1.1,1-2.2,2-3.2,3l-0.4,2.3l-0.2,3.8l-2.9,3.7l-0.4,23.8c-0.1,1.8-0.2,3.6-0.3,5.4
	c-2.1,0.8-4.1,1.5-6.2,2.3c-1.8,0.1-3.7,0.2-5.5,0.2c-2,0.2-4.1,0.5-6.1,0.7C1397.7,157.6,1396.5,156.6,1395.2,155.5z"/>
<g>
	<ellipse class="st0" cx="1429.7" cy="371.4" rx="60.4" ry="12.6"/>
	<path class="st0" d="M1426,380.2L1426,380.2c-1.5-0.5-3.1,0.3-3.6,1.8l-29.3,90.4c-0.5,1.5,0.3,3.1,1.8,3.6l0,0
		c1.5,0.5,3.1-0.3,3.6-1.8l29.3-90.4C1428.3,382.3,1427.5,380.7,1426,380.2z"/>
	<path class="st0" d="M1433.4,379.9L1433.4,379.9c1.5-0.5,3.1,0.3,3.6,1.8l29.3,90.4c0.5,1.5-0.3,3.1-1.8,3.6l0,0
		c-1.5,0.5-3.1-0.3-3.6-1.8l-29.3-90.4C1431.1,382,1431.9,380.4,1433.4,379.9z"/>
	<line class="st4" x1="1407.5" y1="440" x2="1446.2" y2="415.9"/>
	<line class="st4" x1="1453.1" y1="440.4" x2="1414.4" y2="416.3"/>
</g>
<path class="st3" d="M1301.6,247.6l-0.3,0.2l-5.6,4l-2.7,3.4l-1,3l0.7,3.9l1,1.3l2.4,1.8l2.5,1.2l4,0.8l5.2-0.4l3.9-2l4.7-1.6
	l3.5-0.9l3.4,0.9l1.8,1.9l2.2,2.1l3.6,1.6l4.3,0.8l3.3,2l5.1,2.9l2.9,0.9l0.1-11l5.2-1l7.4,0.8l15.9,6l13.8,5.2l39.6,14.6
	c2.7,0.9,5.4,1.7,8.1,2.6c5,1.2,10.1,2.3,15.1,3.5c3.8,0.6,7.5,1.2,11.3,1.8c2.8,0.2,5.6,0.3,8.4,0.5l7.9-0.7l3.9-2.4l2.9-3.3
	l2.1-3.9l1.5-5.6l1.6-11.6l0.5-14l-0.1-18.3l-49.5,0.1l2.9,11.7l-0.1,9.6l-4.3,2.2l-6.9-1.4l-19.6-4.7l-35.2-6.9l-16.1-2.9
	l-11.5-1.5l-10.2,0.4l-1.8,1.3l-2.5-0.5l-3.6-0.7l-6.3-1.3l-3.7-0.9l-8.4,0.2l-4,1L1301.6,247.6z"/>
<path class="st1" d="M1328.5,244.7l1.6-21.7l2.9-24.6l5.3-24.9c0.9-4.2,1.8-8.5,2.7-12.7c1.2-1.8,2.4-3.6,3.6-5.4
	c1.6-0.7,3.1-1.3,4.7-2l7-1l11.5-1.6l18.8-1.8l7.6-1c0.4,0,0.8,0.1,1.3,0.1c0,1.2,0.1,2.5,0.1,3.7c0.1,0.7,0.3,1.3,0.4,2
	c0.5,0.4,0.9,0.8,1.4,1.2c0.3,0.2,0.8,0.4,1.3,0.6c0.9,0.4,1.8,0.5,2.4,0.5c0.7,0.1,1.6,0.3,2.5,0.3c0.8,0.1,1.6,0.1,2.3,0.1
	c0.9,0,1.8-0.1,2.8-0.1c1.1-0.1,2.2-0.2,3.3-0.3c0.6-0.1,1.4-0.3,2.3-0.6c0.7-0.3,1.3-0.6,1.7-0.9c0.2-0.1,0.5-0.4,0.8-0.8
	c0.2-0.3,0.3-0.6,0.4-1c0.1-0.3,0.1-0.7,0.1-1.3c0.1-1.4,0.1-2.8,0.2-4.1c3.1,0,6.1,0,9.2-0.1c6.2,0.4,12.4,0.8,18.6,1.2l12.9,2
	l9.6,2.4l5.3,2.4l4.3,4.7l3.1,7.4l2.7,11.7l1.8,7.2l1.8,11.1l1.4,13.5l1.6,11.5l1.9,12.5l0.2,4.8l-48.9-0.4l0.6,2v0.1l1,4.3l0.6,2.4
	l0.3,4.9l0.4,3.4l-1,3.5l-3.8,2.2l-6.6-0.6l-46.8-9.2l-29.9-5.7h-21.5L1328.5,244.7z"/>
<g>
	<g>
		<path class="st5" d="M1163.9,175.5h-50.1c-7.3,0-13.2-5.9-13.2-13.2v-5.4c0-7.3,5.9-13.2,13.2-13.2h50.1c7.3,0,13.2,5.9,13.2,13.2
			v5.4C1177.2,169.6,1171.2,175.5,1163.9,175.5z"/>
		<polygon class="st5" points="1158.4,175.5 1167.2,182.9 1167.7,171.5 1158.3,171.6 		"/>
	</g>
	<g>
		<ellipse class="st6" cx="1128.7" cy="159.9" rx="3.1" ry="3.1"/>
		<ellipse class="st6" cx="1139" cy="159.9" rx="3.1" ry="3.1"/>
		<ellipse class="st6" cx="1149" cy="159.9" rx="3.1" ry="3.1"/>
	</g>
</g>
<path class="st7" d="M1357.2,191.8l-5.4,18.6c0,0,0,0,0,0.1l-3.9,16.9v0.1l-1.7,13.1v0.1l-0.2,6.2"/>
<polyline class="st7" points="1443.8,244.9 1443.5,239.5 1441.7,228.1 1437.8,213.4 1432.4,197.2 "/>
<path class="st8" d="M1382.5,105.6c-0.3,0.3-0.6,0.7-1,1.1c-0.3,0.4-0.6,0.7-0.8,1.1c-0.2,0.3-0.4,0.7-0.6,1.2s-0.3,1-0.4,1.3
	c0,0.3,0,0.7,0.1,1.2c0.1,0.4,0.2,0.7,0.4,1c0.2,0.3,0.5,0.6,0.9,1c0.4,0.3,0.7,0.5,1,0.6"/>
<path class="st8" d="M1390.2,119.9l1.2-0.6l1.1-0.5c0.2-0.1,0.5-0.3,0.9-0.6c0.5-0.3,0.7-0.5,1-0.8c0.2-0.2,0.5-0.6,0.8-1.1"/>
<g>
	<ellipse class="st9" cx="1371.4" cy="110.2" rx="4.5" ry="2.3"/>
	<ellipse class="st9" cx="1399.1" cy="110.7" rx="4.5" ry="2.3"/>
</g>
<path class="st0" d="M1371.3,96c-1.7-0.9-3.2-2.2-3.2-2.2c-0.7-0.6-1.7-1.4-2.6-2.7c-1.4-2-1.9-3.9-2.3-5.1
	c-0.5-1.8-0.9-3.5-0.4-5.6c0.2-0.9,0.7-2.9,2.4-4.1c1.4-1,2.8-1.1,4.4-1.1c2.8-0.1,5.3,0.7,6.8,1.1c1.7,0.6,2.8,1.1,4.5,1
	c0.4,0,2.4-0.1,2.7-0.9c0.2-0.7-1.1-1.2-2-3c-0.7-1.2-0.8-2.4-0.8-2.9c-0.1-0.5-0.4-4,1.9-6.4c1.8-2,4.3-2.1,7.4-2.3
	c0.8-0.1,3.1-0.2,5.9,0.5c1.2,0.3,3.5,0.9,6.1,2.6c0.7,0.5,3.1,2.2,5.1,5.4c1.4,2.3,2.6,4.3,2.3,6.7c-0.1,0.8-0.4,1.8-0.1,2
	c0.4,0.2,1-1.1,2.5-2c1.6-0.9,3.2-1,4.2-1c1.9-0.1,3.3,0.5,3.8,0.7c1.4,0.5,2.3,1.3,4.1,2.9c1.6,1.4,2.6,2.2,3.5,3.7
	c1,1.5,1.5,2.9,1.8,4c0.3,0.8,0.8,2.6,1,6.2c0.3,4.6,0.5,6.9-0.3,9.2c-0.8,2.5-1.8,2.7-2.4,5.7c-0.3,1.3-0.6,2.8-0.3,4.7
	c0.3,1.9,0.9,2.2,1.1,4.3c0.2,1.9-0.2,3.1-0.3,3.5c-0.4,1.2-0.8,2.4-2,3s-2.6,0.2-3.5-0.3c-2.2-1.3-3.1-4.8-1.8-7.2
	c0.6-1.1,1.4-0.8,2.3-2.1c1.4-1.9,1-4.4,0.8-5.3c-0.3-1.2-0.6-2.6-1.9-3.6c-1.5-1.1-3.1-0.5-4.4-0.6c-4.1-0.3-4.9-6.3-8.2-9.1
	C1401.4,88.6,1376.5,98.9,1371.3,96z"/>
<path class="st0" d="M1346.4,84.9"/>
<path class="st0" d="M1417.7,126.6c-1.5,0.9-2.6,1.7-3.4,2.2c-1.5,1.1-1.6,1.3-2.5,1.8c-1.3,0.7-1.9,0.8-3.2,1.6
	c-0.8,0.5-1.5,1-1.9,1.3c0.4,0.4,1.1,1,2,1.6s1.4,0.8,2.9,1.7c1.2,0.7,1.3,0.9,2.3,1.5c0.8,0.5,2,1.2,3.6,1.8
	C1417.5,135.6,1417.6,131.1,1417.7,126.6z"/>
<path class="st3" d="M1392.5,152.8"/>
<g>
	<g>
		<path class="st0" d="M1182.9,215.5c5.4,19,10.9,38,16.3,57l151.7-0.1l-0.3-4.6l-57.3,0.3l-16.4-56.7l-0.9-2.6
			c-0.2-0.3-0.4-0.7-0.8-1c-0.4-0.4-0.9-0.7-1.2-0.8c-0.4-0.2-1-0.5-1.7-0.7c-0.8-0.2-1.6-0.3-2.1-0.3c-27.7,0-55.4,0-83.1,0
			c-0.4,0-1.1,0.1-1.8,0.5c-0.7,0.3-1.1,0.8-1.4,1.1c-0.5,0.6-0.8,1.1-1,1.6c-0.2,0.5-0.5,1.2-0.6,2c0,0.6,0,1.2,0,1.8
			C1182.7,213.8,1182.8,214.7,1182.9,215.5z"/>
	</g>
	<ellipse class="st10" cx="1233.8" cy="238.8" rx="6.2" ry="5.9"/>
</g>
<g>
	
		<image style="overflow:visible;enable-background:new    ;" width="530" height="349" xlink:href="../../DrawKit_0001_Peach_Illustrations/DrawKit_0001_Peach_Illustrations/UI Elements/PNG/web-ui-1.png"  transform="matrix(0.6465 -2.560532e-03 2.560532e-03 0.6465 -697.8966 -719.4655)">
	</image>
	
		<image style="overflow:visible;enable-background:new    ;" width="530" height="349" xlink:href="../../DrawKit_0001_Peach_Illustrations/DrawKit_0001_Peach_Illustrations/UI Elements/PNG/web-ui-2.png"  transform="matrix(0.4105 -1.623290e-03 1.623290e-03 0.4105 -696.7093 -476.601)">
	</image>
	
		<image style="overflow:visible;enable-background:new    ;" width="422" height="735" xlink:href="../../DrawKit_0001_Peach_Illustrations/DrawKit_0001_Peach_Illustrations/UI Elements/PNG/Layer 2.png"  transform="matrix(0.267 -1.063069e-03 7.678865e-04 0.1946 -462.8004 -478.3083)">
	</image>
	
		<image style="overflow:visible;enable-background:new    ;" width="1056" height="695" xlink:href="../../DrawKit_0001_Peach_Illustrations/DrawKit_0001_Peach_Illustrations/UI Elements/PNG/video.png"  transform="matrix(0.3215 -1.274758e-03 1.274758e-03 0.3215 -693.901 -301.5025)">
	</image>
</g>
<g>
	<path class="st11" d="M1412.8,480l50.4-201.5c0.9-3.5,4.4-5.6,7.8-4.7l0,0c3.5,0.9,5.6,4.4,4.7,7.8l-50.4,201.5
		c-0.9,3.5-4.4,5.6-7.8,4.7l0,0C1414.1,487,1412,483.5,1412.8,480z"/>
	<path class="st11" d="M1534.6,479.1l-50.4-201.5c-0.9-3.5-4.4-5.6-7.8-4.7l0,0c-3.5,0.9-5.6,4.4-4.7,7.8l50.4,201.5
		c0.9,3.5,4.4,5.6,7.8,4.7l0,0C1533.4,486.1,1535.5,482.6,1534.6,479.1z"/>
	<path class="st11" d="M1052.9,481.9l50.4-201.5c0.9-3.5,4.4-5.6,7.8-4.7l0,0c3.5,0.9,5.6,4.4,4.7,7.8L1065.4,485
		c-0.9,3.5-4.4,5.6-7.8,4.7l0,0C1054.1,488.9,1052,485.4,1052.9,481.9z"/>
	<path class="st11" d="M1174.7,481l-50.4-201.5c-0.9-3.5-4.4-5.6-7.8-4.7l0,0c-3.5,0.9-5.6,4.4-4.7,7.8l50.4,201.5
		c0.9,3.5,4.4,5.6,7.8,4.7l0,0C1173.5,488,1175.6,484.5,1174.7,481z"/>
	<path class="st12" d="M1502.5,287.2h-489.9c-4,0-7.2-3.2-7.2-7.2l0,0c0-4,3.2-7.2,7.2-7.2h489.9c4,0,7.2,3.2,7.2,7.2l0,0
		C1509.7,284,1506.5,287.2,1502.5,287.2z"/>
	<path class="st12" d="M980.2,480.3l50.4-201.5c0.9-3.5,4.4-5.6,7.8-4.7l0,0c3.5,0.9,5.6,4.4,4.7,7.8l-50.3,201.5
		c-0.9,3.5-4.4,5.6-7.8,4.7l0,0C981.5,487.2,979.4,483.7,980.2,480.3z"/>
	<path class="st12" d="M1102,479.4l-50.4-201.5c-0.9-3.5-4.4-5.6-7.8-4.7l0,0c-3.5,0.9-5.6,4.4-4.7,7.8l50.4,201.5
		c0.9,3.5,4.4,5.6,7.8,4.7l0,0C1100.8,486.4,1102.9,482.9,1102,479.4z"/>
	<path class="st12" d="M1342.7,481.2l50.4-201.5c0.9-3.5,4.4-5.6,7.8-4.7l0,0c3.5,0.9,5.6,4.4,4.7,7.8l-50.4,201.5
		c-0.9,3.5-4.4,5.6-7.8,4.7l0,0C1344,488.2,1341.8,484.7,1342.7,481.2z"/>
	<path class="st12" d="M1464.5,480.3l-50.4-201.5c-0.9-3.5-4.4-5.6-7.8-4.7l0,0c-3.5,0.9-5.6,4.4-4.7,7.8l50.4,201.5
		c0.9,3.5,4.4,5.6,7.8,4.7l0,0C1463.3,487.3,1465.4,483.8,1464.5,480.3z"/>
</g>
<g>
	<g>
		<path class="st13" d="M1223.1,105l-11.5,12.1l0.2,49.6c0,0.2,0,0.5,0.1,0.9c0.1,0.3,0.2,0.5,0.3,0.7c0.1,0.1,0.2,0.3,0.5,0.5
			c0.4,0.3,0.8,0.3,0.9,0.3c0.6,0,1.1,0,1.7,0c12.1,0,24.2-0.1,36.3-0.1c0.2-0.1,0.4-0.1,0.6-0.3c0.3-0.2,0.5-0.5,0.6-0.7
			s0.2-0.4,0.3-0.7c0.1-0.4,0.2-0.8,0.2-1.1c-0.1-19.7-0.3-39.5-0.4-59.2c-0.1-0.2-0.2-0.4-0.3-0.6c-0.2-0.3-0.4-0.5-0.6-0.7
			s-0.5-0.4-0.8-0.6c-0.3-0.2-0.6-0.3-0.9-0.4C1241.3,105,1232.2,105,1223.1,105z"/>
		<polygon class="st1" points="1211.6,117.3 1223.1,105.1 1223.4,117.3 		"/>
	</g>
	<g>
		<path class="st14" d="M1233,113.6l-11.5,12.1l0.2,49.6c0,0.2,0,0.5,0.1,0.9c0.1,0.3,0.2,0.5,0.3,0.7c0.1,0.1,0.2,0.3,0.5,0.5
			c0.4,0.3,0.8,0.3,0.9,0.3c0.6,0,1.1,0,1.7,0c12.1,0,24.2-0.1,36.3-0.1c0.2-0.1,0.4-0.1,0.6-0.3c0.3-0.2,0.5-0.5,0.6-0.7
			s0.2-0.4,0.3-0.7c0.1-0.4,0.2-0.8,0.2-1.1c-0.1-19.7-0.3-39.5-0.4-59.2c-0.1-0.2-0.2-0.4-0.3-0.6c-0.2-0.3-0.4-0.5-0.6-0.7
			s-0.5-0.4-0.8-0.6c-0.3-0.2-0.6-0.3-0.9-0.4C1251.2,113.6,1242.1,113.6,1233,113.6z"/>
		<line class="st15" x1="1225.9" y1="138.3" x2="1257.9" y2="138.2"/>
		<line class="st15" x1="1225.9" y1="144.1" x2="1257.9" y2="143.9"/>
		<line class="st15" x1="1226" y1="149.9" x2="1257.9" y2="149.8"/>
		<line class="st15" x1="1247.6" y1="122.2" x2="1258" y2="122.2"/>
		<line class="st15" x1="1247.6" y1="126.2" x2="1258" y2="126.2"/>
		<polygon class="st16" points="1221.5,125.8 1233,113.6 1233.3,125.8 		"/>
	</g>
</g>
<path class="st14" d="M1168.6,121.1h-33.3c-4.3,0-7.8-3.5-7.8-7.8V93.4c0-4.3,3.5-7.8,7.8-7.8h33.3c4.3,0,7.8,3.5,7.8,7.8v19.9
	C1176.4,117.7,1172.9,121.1,1168.6,121.1z"/>
<rect x="1135.7" y="91.1" class="st17" width="7.2" height="24.3"/>
<rect x="1144.6" y="107.7" class="st17" width="6.7" height="7.7"/>
<rect x="1153.1" y="101.6" class="st17" width="7.3" height="13.8"/>
<rect x="1161.9" y="96.4" class="st17" width="7.3" height="18.9"/>
<image style="overflow:visible;enable-background:new    ;" width="58" height="39" xlink:href="../../DrawKit_0001_Peach_Illustrations/DrawKit_0001_Peach_Illustrations/UI Elements/PNG/speech-modal-3.png"  transform="matrix(1.5922 0 0 1.5922 107.0435 9.016)">
</image>
<g>
	<g>
		<polygon class="st0" points="53.2,482.4 53.3,483.9 53.7,485.2 54.3,486.6 70,506.1 71,505.9 72.5,505.2 72.8,504.6 72.8,503.2 
			71.8,500.8 69.3,496.1 68,492.3 68.7,490 71.2,487.2 73.2,485.8 73.7,485.3 64.3,473.4 		"/>
		<polygon class="st0" points="118.9,509.2 120.2,509.9 121.5,510.3 123,510.6 147.9,508 148.3,507 148.5,505.4 148.2,504.8 
			147,504.1 144.5,503.6 139.1,503.1 135.3,502.2 133.7,500.3 132.8,496.7 132.6,494.3 132.5,493.6 117.4,495 		"/>
		<path class="st18" d="M32.8,261.2l60.1,170.2c7.6,21.5,15.2,43,22.8,64.6c0.6-0.1,1.3-0.1,1.9-0.2c5.7-0.6,11.5-1.2,17.2-1.8
			c-6.5-36.8-13-73.6-19.6-110.3L95.6,273.5l-5-28.8L68.7,252l-17.8,5.5L32.8,261.2z"/>
		<polygon class="st2" points="124.8,230.1 141.4,308.8 144.9,330.3 149.3,355.4 151.9,382.3 151.3,392.4 144,407.9 124.1,434.1 
			74,485.5 73.2,485.2 63.3,474.4 63.9,473.3 93.1,432.3 117.6,399.4 89.3,245 		"/>
	</g>
	<g>
		<path class="st3" d="M69.1,129.8c-1.7,0.1-3.5,0.2-5.2,0.3c-1.5,0.3-3.1,0.5-4.7,0.7c-1.9-0.4-3.7-0.6-5.6-1
			c-1.1-0.9-1.5-1.7-1.6-2.2c-0.1-0.7,0.1-0.8,0.1-2c0-1-0.2-1.2-0.3-2.4c-0.1-1.1-0.1-1.9-0.1-2.1c0-1.3-0.8-5.5-3.1-15.7
			c-1-0.9-2-1.8-3-2.7l-0.8-3.2l-0.7-1.9c-1-0.7-2.1-1.4-3.2-2c-0.4-1-0.7-2-1.1-2.9c-0.1-0.9-0.1-1.7-0.1-2.6
			c0.6-0.8,1.3-1.6,1.9-2.4c0.6-0.2,1.2-0.3,1.7-0.5c0.9-1.2,1.8-2.3,2.7-3.5l2.7-3.7c1.3-1.4,2.5-2.8,3.8-4.2
			c2.6-0.6,5.2-1.3,7.7-1.9c2.1-0.3,4.2-0.5,6.4-0.8c1.6-0.3,3.1-0.7,4.7-0.9c1.2-0.1,2.3-0.3,3.5-0.5l2.9-1.1
			c0.5,0.6,1,1.3,1.5,1.9c0.4,0.3,0.9,0.6,1.3,1.1c0.8,0.8,1.4,1.7,1.7,2.4c0.3,1.1,0.6,2.1,1,3.1c0.4,1.8,0.9,3.6,1.3,5.3
			c-0.1,1.8-0.2,3.4-0.2,5.2c-0.4,1.4-0.8,2.7-1.2,4l-1.6,4l-2.7,4c-0.6,0.7-1.2,1.4-1.8,2.1c-0.5,0.4-1.1,0.9-1.7,1.4
			c-0.7,0.6-1.4,0.9-2,1.3c-0.9,0.3-1.9,0.7-2.9,1c-0.7,0.3-1.5,0.5-2.2,0.8c0.6,4.1,1.3,7.1,1.9,9.2c0.3,0.9,0.8,2.7,1.3,5.1
			c0.3,1.7,0.5,3.1,0.6,4.1C71.5,127.2,71,127.7,69.1,129.8z"/>
		<path class="st8" d="M76.5,89.8c0.2-0.1,0.5-0.3,0.7-0.7c0.3-0.4,0.5-0.7,0.6-1s0.2-0.6,0.2-0.9c0-0.4-0.1-0.8-0.1-1
			c-0.1-0.2-0.3-0.6-0.5-1s-0.4-0.6-0.7-0.9c-0.2-0.3-0.5-0.5-0.8-0.8c-0.4-0.3-0.7-0.6-1-0.8"/>
		<path class="st8" d="M65.9,93.7c0.3,0.4,0.6,0.7,0.8,0.8c0.3,0.2,0.5,0.3,1,0.5c0.4,0.2,0.7,0.3,0.8,0.4l1,0.3l1.1,0.3"/>
		<g>
			<ellipse transform="matrix(0.9837 -0.1796 0.1796 0.9837 -13.8717 16.6191)" class="st9" cx="84.8" cy="84.9" rx="3.8" ry="2"/>
			<ellipse transform="matrix(0.9837 -0.1796 0.1796 0.9837 -15.0925 12.5296)" class="st9" cx="61.6" cy="89.6" rx="3.8" ry="2"/>
		</g>
		<path class="st0" d="M50.8,78.6c-2.3,2.9-2.1,8-5.5,8.9c-1.1,0.3-2.5,0-3.6,1.2c-0.9,1-1,2.3-1,3.3c0,0.8,0,3,1.5,4.3
			c1,1,1.6,0.6,2.3,1.4c1.5,1.8,1.2,4.9-0.4,6.3c-0.7,0.6-1.8,1.1-2.9,0.8s-1.6-1.3-2.1-2.2c-0.1-0.3-0.7-1.3-0.8-2.9
			c-0.2-1.8,0.3-2.1,0.3-3.8c0-1.6-0.5-2.9-1-3.9c-1-2.4-1.8-2.4-2.9-4.4c-1-1.8-1.2-3.8-1.7-7.7c-0.4-3.1-0.2-4.6-0.1-5.4
			c0.1-1,0.3-2.2,0.9-3.6c0.5-1.4,1.2-2.2,2.4-3.6c1.3-1.6,1.9-2.4,3-3.1c0.4-0.2,1.5-1,3.1-1.2c0.8-0.2,2.2-0.3,3.7,0.2
			c1.4,0.5,2.1,1.5,2.4,1.3c0.2-0.2-0.2-1-0.4-1.7c-0.6-2,0.1-3.8,0.9-6c1.2-3,2.9-4.8,3.5-5.3c1.9-1.8,3.8-2.7,4.7-3.1
			c2.2-1,4.2-1.3,4.9-1.3c2.6-0.3,4.8-0.6,6.6,0.8c2.3,1.7,2.6,4.7,2.6,5.1c0.1,0.4,0.2,1.4-0.2,2.6c-0.5,1.7-1.5,2.3-1.2,2.8
			c0.4,0.6,2.1,0.4,2.4,0.3c1.4-0.2,2.3-0.8,3.6-1.5c1.2-0.6,3.2-1.6,5.5-2c1.3-0.2,2.5-0.4,3.9,0.2c1.6,0.7,2.3,2.4,2.6,3.1
			c0.7,1.7,0.7,3.2,0.5,4.8c-0.2,1.1-0.3,2.7-1.2,4.6c-0.6,1.2-1.3,2.1-1.8,2.7c0,0-1.1,1.3-2.4,2.3C78.9,76.2,56.4,71.4,50.8,78.6z
			"/>
		<path class="st0" d="M50.8,117.1c1.3-0.7,2.2-1.5,2.7-2.1c0.7-0.7,0.8-0.8,1.7-1.6c1.1-1,1.5-1.2,2.2-1.9s1.2-1.3,1.4-1.7
			c-0.4-0.2-1-0.5-1.8-0.8c-1.2-0.5-1.7-0.5-2.9-0.9c-0.8-0.3-0.9-0.4-2.4-1.1c-0.7-0.3-1.8-0.8-3.2-1.3
			C49.3,109.6,50.1,113.4,50.8,117.1z"/>
	</g>
	<g>
		<path class="st1" d="M3.5,148.1l-0.2,9.3l1.5,15.8l3.1,22.3l3.3,14.1l4.3,15.2l1.4,3.1l0.9,0.5l2.3,0.3l1.4,0.5l4.8,14.3l6.8,18.2
			L44,260l11-2.6l14.4-4.2l21.8-7.4l33.6-15.4c-0.6-4-1.2-7.9-1.8-11.9c0.3,0,0.6-0.1,0.9-0.1c1.2,0,2.4-0.1,3.6-0.1
			c0.3,0,0.7-0.1,1.2-0.4c0.5-0.3,0.8-0.6,0.9-0.8c0.2-0.4,0.4-0.8,0.6-1.3c0.2-0.7,0.4-1.3,0.5-1.8c0.2-0.9,0.3-1.8,0.4-2.8
			c0.1-1.4,0.2-2.6,0.1-3.8c-0.1-1.7-0.2-3.4-0.4-5.1c-0.4-3.9-0.9-7.5-1.5-11c-0.6-3.3-1.2-6.5-1.9-9.8l-3.3-13.8l-7.9-25.3
			l-5.3-11.1l-4.8-7.7l-6.2-2.2l-8.6-1.4l-11-0.5c-3.4,0-6.7,0.1-10.1,0.1c0.1,0.5,0.3,1.2,0.5,2c0.5,1.8,0.6,2.2,0.6,2.9
			c0,0.5-0.1,1.3-0.7,2.3c-0.4,0.4-0.9,0.9-1.6,1.3c-1.3,0.8-2.7,1.1-3.4,1.2c-1,0.1-2.1,0.1-3.1,0.2c-1.9,0.1-3.7,0.1-5.5,0.1
			c-0.5,0-1.1,0-1.8-0.1c-0.6-0.1-1.1-0.2-1.5-0.4c-0.2-0.2-0.5-0.5-0.8-0.8c-0.3-0.5-0.6-1-0.8-2c-0.2-0.8-0.3-1.4-0.4-2.4
			c-0.1-0.7-0.2-1.7-0.3-2.9c-2.4,0.4-4.8,0.8-7.2,1.3l-13.5,3.5l-8.7,2.8l-6.2,2.5l-6.4,4.5l-3.6,4l-1.9,5.3L3.5,148.1z"/>
		<polyline class="st19" points="36.6,161.6 41,190.4 123.1,217.8 		"/>
		<path class="st19" d="M108.3,145.8c0.3,0.8,0.6,1.5,0.9,2.3c0.3,0.7,0.5,1.4,0.8,2.1c0.3,0.9,0.5,1.8,0.8,2.7
			c0.2,0.8,0.4,1.7,0.6,2.5c0.1,0.5,0.2,1.1,0.4,1.9c0.2,1,0.3,1.5,0.5,2.1c0.3,0.9,0.3,0.9,0.6,2.1c0.3,1.1,0.3,1.1,0.6,2.2
			c0.3,1.1,0.4,1.2,0.5,1.9c0.1,0.5,0.1,0.5,0.4,1.9c0.3,1.5,0.4,1.8,0.5,2.7c0.1,0.5,0.1,0.8,0.1,1.1s0.1,0.7,0.1,1.2
			c0,0.3,0.1,1.4,0,3.2c0,1.2-0.1,2.3-0.2,3.3s-0.3,2.3-0.6,3.7"/>
		<path class="st19" d="M21,227.8c4.3,0,8.5-0.1,12.8-0.1c3.2-0.1,6.3-0.3,9.5-0.4c3.3-0.2,6.5-0.4,9.8-0.7
			c3.7-0.9,7.5-1.7,11.2-2.6l12.4-3.8l8.5-3.4l8.1-3.9c1.6-1.1,3.2-2.2,4.8-3.3"/>
		<path class="st0" d="M26.6,244.2c4.9-5.5,9.8-11,14.6-16.5c-6.8,0.2-13.5,0.4-20.3,0.6c0.4,1.1,0.9,2.2,1.3,3.3
			C23.7,235.8,25.2,240,26.6,244.2z"/>
		<polygon class="st3" points="99.1,187.1 102.1,187.5 104.8,190 109,194.2 111.5,196.8 112.4,197.3 114.3,197.2 115.4,196.4 
			115.8,195 115.7,192.8 114.6,190.7 106.9,182.9 104.2,183.1 102.2,183.7 100.8,184.6 99.2,185.8 98.8,186.5 		"/>
	</g>
</g>
<g class="st20">
	
		<rect x="206.2" y="234.7" transform="matrix(0.9916 0.1296 -0.1296 0.9916 38.446 -39.6461)" class="st21" width="235.2" height="81.6"/>
	
		<rect x="212.8" y="-89.7" transform="matrix(0.9916 0.1296 -0.1296 0.9916 10.6171 -55.6113)" class="st22" width="439.4" height="286.8"/>
	
		<rect x="248.3" y="-45.9" transform="matrix(0.9916 0.1296 -0.1296 0.9916 5.2044 -40.6114)" class="st22" width="132.6" height="131.1"/>
	<path class="st22" d="M414.1-41"/>
	<line class="st22" x1="632" y1="6.3" x2="411.7" y2="-22.5"/>
	<line class="st22" x1="630" y1="26.3" x2="409.7" y2="-2.5"/>
	<line class="st22" x1="627.2" y1="45.9" x2="406.8" y2="17.1"/>
	<line class="st22" x1="625.1" y1="65.9" x2="404.8" y2="37.1"/>
	<polygon class="st5" points="318.4,-9.9 275.7,46.5 345.5,55.3 	"/>
	
		<rect x="230" y="160.9" transform="matrix(0.1296 -0.9916 0.9916 0.1296 -17.8609 579.6719)" class="st22" width="182.5" height="278.3"/>
	<line class="st22" x1="192.9" y1="200.7" x2="470" y2="236.1"/>
	
		<rect x="291.2" y="274" transform="matrix(0.9916 0.1296 -0.1296 0.9916 38.7407 -37.2796)" class="st23" width="29.2" height="10"/>
	
		<rect x="326.2" y="278.3" transform="matrix(0.9916 0.1296 -0.1296 0.9916 39.5969 -41.7824)" class="st23" width="29.2" height="10"/>
	<line class="st19" x1="262.4" y1="255" x2="388.8" y2="271.3"/>
	<line class="st19" x1="253.8" y1="322.8" x2="380.2" y2="339.2"/>
	<line class="st19" x1="252.4" y1="335.1" x2="378.8" y2="351.4"/>
	<line class="st19" x1="250.4" y1="347.6" x2="376.8" y2="364"/>
	<line class="st19" x1="249.5" y1="360.1" x2="375.9" y2="376.5"/>
	
		<ellipse transform="matrix(0.1296 -0.9916 0.9916 0.1296 -21.5409 370.0648)" class="st24" cx="200" cy="197.3" rx="2.4" ry="2.4"/>
	
		<ellipse transform="matrix(0.1296 -0.9916 0.9916 0.1296 -15.3608 379.1384)" class="st25" cx="208.3" cy="198.3" rx="2.4" ry="2.4"/>
	<ellipse transform="matrix(0.1296 -0.9916 0.9916 0.1296 -9.693 387.7935)" class="st23" cx="216" cy="199.4" rx="2.4" ry="2.4"/>
	
		<rect x="481.4" y="237.7" transform="matrix(0.9916 0.1296 -0.1296 0.9916 47.527 -69.2417)" class="st19" width="148.5" height="185.5"/>
	
		<rect x="499" y="246.4" transform="matrix(0.9916 0.1296 -0.1296 0.9916 36.8519 -66.667)" class="st23" width="63.1" height="6.8"/>
	
		<ellipse transform="matrix(0.1296 -0.9916 0.9916 0.1296 283.6485 846.915)" class="st26" cx="624.2" cy="261.9" rx="5.3" ry="5.6"/>
	
		<ellipse transform="matrix(0.1296 -0.9916 0.9916 0.1296 281.0139 843.1247)" class="st10" cx="620.8" cy="261.5" rx="1.2" ry="1.2"/>
	
		<ellipse transform="matrix(0.1296 -0.9916 0.9916 0.1296 283.4364 846.6926)" class="st10" cx="624" cy="261.9" rx="1.2" ry="1.2"/>
	
		<ellipse transform="matrix(0.1296 -0.9916 0.9916 0.1296 285.8291 850.2629)" class="st10" cx="627.2" cy="262.3" rx="1.2" ry="1.2"/>
	
		<rect x="496.3" y="266.2" transform="matrix(0.9916 0.1296 -0.1296 0.9916 39.2576 -63.7483)" class="st27" width="26.2" height="7"/>
	
		<rect x="525.4" y="273.3" transform="matrix(0.9916 0.1296 -0.1296 0.9916 40.0227 -67.6644)" class="st27" width="28.8" height="0.6"/>
	
		<rect x="525.3" y="274.6" transform="matrix(0.9916 0.1296 -0.1296 0.9916 40.1857 -67.6322)" class="st27" width="28.8" height="0.6"/>
	<path class="st28" d="M523,328.9l-28.5-3.7c-3.1-0.4-5.3-3.3-4.9-6.4l4.4-33.6c0.4-3.1,3.3-5.3,6.4-4.9l28.5,3.7
		c3.1,0.4,5.3,3.3,4.9,6.4l-4.4,33.6C529,327.1,526.2,329.3,523,328.9z"/>
	<path class="st28" d="M571.7,335.1l-28.5-3.7c-3.1-0.4-5.3-3.3-4.9-6.4l4.4-33.6c0.4-3.1,3.3-5.3,6.4-4.9l28.5,3.7
		c3.1,0.4,5.3,3.3,4.9,6.4l-4.4,33.6C577.7,333.3,574.8,335.6,571.7,335.1z"/>
	<path class="st28" d="M618.6,341.3l-28.5-3.7c-3.1-0.4-5.3-3.3-4.9-6.4l4.4-33.6c0.4-3.1,3.3-5.3,6.4-4.9l28.5,3.7
		c3.1,0.4,5.3,3.3,4.9,6.4l-4.4,33.6C624.6,339.5,621.7,341.7,618.6,341.3z"/>
	
		<rect x="486.6" y="341.1" transform="matrix(0.9916 0.1296 -0.1296 0.9916 48.8826 -61.8589)" class="st29" width="26.2" height="7"/>
	
		<rect x="515.7" y="348.2" transform="matrix(0.9916 0.1296 -0.1296 0.9916 49.6477 -65.775)" class="st29" width="28.8" height="0.6"/>
	
		<rect x="515.6" y="349.5" transform="matrix(0.9916 0.1296 -0.1296 0.9916 49.8107 -65.7428)" class="st29" width="28.8" height="0.6"/>
	<path class="st30" d="M513.3,403.8l-28.5-3.7c-3.1-0.4-5.3-3.3-4.9-6.4l4.4-33.6c0.4-3.1,3.3-5.3,6.4-4.9l28.5,3.7
		c3.1,0.4,5.3,3.3,4.9,6.4l-4.4,33.6C519.3,402,516.5,404.2,513.3,403.8z"/>
	<path class="st30" d="M562,410l-28.5-3.7c-3.1-0.4-5.3-3.3-4.9-6.4l4.4-33.6c0.4-3.1,3.3-5.3,6.4-4.9l28.5,3.7
		c3.1,0.4,5.3,3.3,4.9,6.4l-4.4,33.6C568,408.2,565.1,410.4,562,410z"/>
	<path class="st30" d="M608.9,416.2l-28.5-3.7c-3.1-0.4-5.3-3.3-4.9-6.4l4.4-33.6c0.4-3.1,3.3-5.3,6.4-4.9l28.5,3.7
		c3.1,0.4,5.3,3.3,4.9,6.4l-4.4,33.6C614.9,414.4,612,416.6,608.9,416.2z"/>
	
		<rect x="154.9" y="441.6" transform="matrix(0.9916 0.1296 -0.1296 0.9916 72.7019 -43.7046)" class="st19" width="434.4" height="190.2"/>
	<line class="st19" x1="167.1" y1="429.1" x2="598.1" y2="483.8"/>
	
		<rect x="466.5" y="499.6" transform="matrix(0.9916 0.1296 -0.1296 0.9916 73.1991 -63.1113)" class="st21" width="109.8" height="62.4"/>
	
		<rect x="455.7" y="577.7" transform="matrix(0.9916 0.1296 -0.1296 0.9916 83.1914 -61.1379)" class="st21" width="111.1" height="61.7"/>
	<g>
		
			<rect x="187.8" y="474.6" transform="matrix(0.9916 0.1296 -0.1296 0.9916 72.9268 -36.7904)" class="st21" width="262.6" height="134.5"/>
		<polygon class="st31" points="302.6,515.1 297.1,559.1 337.8,541.9 		"/>
	</g>
	
		<ellipse transform="matrix(0.1296 -0.9916 0.9916 0.1296 -264.9307 543.9853)" class="st24" cx="177.4" cy="422.9" rx="3.7" ry="3.7"/>
	
		<ellipse transform="matrix(0.1296 -0.9916 0.9916 0.1296 -255.2885 558.142)" class="st25" cx="190.3" cy="424.5" rx="3.7" ry="3.7"/>
	
		<ellipse transform="matrix(0.1296 -0.9916 0.9916 0.1296 -246.4456 571.6457)" class="st23" cx="202.4" cy="426.2" rx="3.7" ry="3.7"/>
	
		<rect x="234.8" y="84.2" transform="matrix(0.9916 0.1296 -0.1296 0.9916 15.6926 -32.1452)" class="st21" width="40" height="40.5"/>
	
		<rect x="282.9" y="91" transform="matrix(0.9916 0.1296 -0.1296 0.9916 16.9796 -38.3264)" class="st21" width="40" height="40.5"/>
	
		<rect x="330.3" y="96.9" transform="matrix(0.9916 0.1296 -0.1296 0.9916 18.1464 -44.4209)" class="st21" width="40" height="40.5"/>
	<line class="st19" x1="399.7" y1="66.6" x2="526.1" y2="82.9"/>
	<line class="st19" x1="398.6" y1="73.7" x2="464.8" y2="82.3"/>
	<line class="st19" x1="397" y1="81.1" x2="463.8" y2="89.7"/>
	<line class="st19" x1="389.9" y1="138" x2="516.3" y2="154.4"/>
	<line class="st19" x1="388.6" y1="145.5" x2="515" y2="161.9"/>
	<line class="st19" x1="388.4" y1="151.6" x2="514.8" y2="168"/>
	
		<rect x="543.6" y="83.3" transform="matrix(0.9916 0.1296 -0.1296 0.9916 22.4573 -73.6405)" class="st21" width="66.7" height="104.9"/>
</g>
</svg>
